<ttFont>
<head>
    <!-- Most of this table will be recalculated by the compiler -->
    <tableVersion value="1.0"/>
    <fontRevision value="0.04999"/>
    <checkSumAdjustment value="0xce333409"/>
    <magicNumber value="0x5f0f3cf5"/>
    <flags value="00100000 00000011"/>
    <unitsPerEm value="1024"/>
    <created value="Fri Jul 24 22:49:51 2020"/>
    <modified value="Mon Sep 28 08:40:02 2020"/>
    <xMin value="-400"/>
    <yMin value="-205"/>
    <xMax value="640"/>
    <yMax value="1088"/>
    <macStyle value="00000000 00000010"/>
    <lowestRecPPEM value="7"/>
    <fontDirectionHint value="2"/>
    <indexToLocFormat value="0"/>
    <glyphDataFormat value="0"/>
  </head>
    <TTGlyph name=".notdef" xMin="-17" yMin="-30" xMax="503" yMax="670">
      <contour>
        <pt x="-17" y="-30" on="1"/>
        <pt x="123" y="670" on="1"/>
        <pt x="503" y="670" on="1"/>
        <pt x="363" y="-30" on="1"/>
      </contour>
      <contour>
        <pt x="162" y="581" on="1"/>
        <pt x="283" y="575" on="0"/>
        <pt x="370" y="531" on="0"/>
        <pt x="370" y="498" on="1"/>
        <pt x="370" y="493" on="0"/>
        <pt x="368" y="481" on="1"/>
        <pt x="363" y="456" on="0"/>
        <pt x="333" y="420" on="0"/>
        <pt x="304" y="396" on="1"/>
        <pt x="273" y="369" on="0"/>
        <pt x="231" y="322" on="0"/>
        <pt x="191" y="246" on="0"/>
        <pt x="179" y="192" on="1"/>
        <pt x="249" y="196" on="1"/>
        <pt x="262" y="260" on="0"/>
        <pt x="315" y="334" on="0"/>
        <pt x="360" y="375" on="1"/>
        <pt x="398" y="411" on="0"/>
        <pt x="436" y="461" on="0"/>
        <pt x="444" y="502" on="1"/>
        <pt x="447" y="517" on="0"/>
        <pt x="447" y="529" on="1"/>
        <pt x="447" y="584" on="0"/>
        <pt x="327" y="641" on="0"/>
        <pt x="184" y="645" on="1"/>
      </contour>
      <contour>
        <pt x="202" y="-10" on="0"/>
        <pt x="249" y="29" on="0"/>
        <pt x="256" y="62" on="1"/>
        <pt x="257" y="67" on="0"/>
        <pt x="257" y="75" on="1"/>
        <pt x="257" y="95" on="0"/>
        <pt x="231" y="118" on="0"/>
        <pt x="209" y="118" on="1"/>
        <pt x="179" y="118" on="0"/>
        <pt x="132" y="80" on="0"/>
        <pt x="125" y="47" on="1"/>
        <pt x="123" y="37" on="0"/>
        <pt x="123" y="33" on="1"/>
        <pt x="123" y="12" on="0"/>
        <pt x="150" y="-10" on="0"/>
        <pt x="172" y="-10" on="1"/>
      </contour>
    </TTGlyph>
    <TTGlyph name="A" xMin="-15" yMin="0" xMax="393" yMax="642">
      <contour>
        <pt x="347" y="642" on="1"/>
        <pt x="393" y="494" on="0"/>
        <pt x="393" y="285" on="1"/>
        <pt x="393" y="151" on="0"/>
        <pt x="373" y="0" on="1"/>
        <pt x="279" y="0" on="1"/>
        <pt x="291" y="102" on="0"/>
        <pt x="296" y="176" on="1"/>
        <pt x="136" y="176" on="1"/>
        <pt x="103" y="78" on="0"/>
        <pt x="81" y="0" on="1"/>
        <pt x="-15" y="0" on="1"/>
        <pt x="38" y="188" on="0"/>
        <pt x="180" y="520" on="0"/>
        <pt x="263" y="642" on="1"/>
      </contour>
      <contour>
        <pt x="300" y="248" on="1"/>
        <pt x="302" y="310" on="0"/>
        <pt x="302" y="336" on="1"/>
        <pt x="302" y="452" on="0"/>
        <pt x="289" y="537" on="1"/>
        <pt x="224" y="419" on="0"/>
        <pt x="161" y="248" on="1"/>
      </contour>
    </TTGlyph>
    <TTGlyph name="A.sups" xMin="147" yMin="320" xMax="403" yMax="640">
      <contour>
        <pt x="403" y="640" on="1"/>
        <pt x="390" y="576" on="1"/>
        <pt x="378" y="512" on="1"/>
        <pt x="339" y="320" on="1"/>
        <pt x="275" y="320" on="1"/>
        <pt x="301" y="448" on="1"/>
        <pt x="237" y="448" on="1"/>
        <pt x="211" y="320" on="1"/>
        <pt x="147" y="320" on="1"/>
        <pt x="186" y="512" on="1"/>
        <pt x="198" y="576" on="1"/>
        <pt x="211" y="640" on="1"/>
      </contour>
      <contour>
        <pt x="250" y="512" on="1"/>
        <pt x="314" y="512" on="1"/>
        <pt x="326" y="576" on="1"/>
        <pt x="262" y="576" on="1"/>
      </contour>
    </TTGlyph>
    <TTGlyph name="AE" xMin="-68" yMin="0" xMax="536" yMax="640">
      <contour>
        <pt x="522" y="568" on="1"/>
        <pt x="354" y="568" on="1"/>
        <pt x="305" y="324" on="1"/>
        <pt x="422" y="324" on="1"/>
        <pt x="407" y="252" on="1"/>
        <pt x="291" y="252" on="1"/>
        <pt x="255" y="72" on="1"/>
        <pt x="433" y="72" on="1"/>
        <pt x="418" y="0" on="1"/>
        <pt x="148" y="0" on="1"/>
        <pt x="183" y="176" on="1"/>
        <pt x="81" y="176" on="1"/>
        <pt x="53" y="94" on="0"/>
        <pt x="27" y="0" on="1"/>
        <pt x="-68" y="0" on="1"/>
        <pt x="-17" y="187" on="0"/>
        <pt x="120" y="518" on="0"/>
        <pt x="199" y="640" on="1"/>
        <pt x="536" y="640" on="1"/>
      </contour>
      <contour>
        <pt x="198" y="248" on="1"/>
        <pt x="262" y="568" on="1"/>
        <pt x="247" y="568" on="1"/>
        <pt x="176" y="441" on="0"/>
        <pt x="106" y="248" on="1"/>
      </contour>
    </TTGlyph>
    <TTGlyph name="AEacute" xMin="-68" yMin="0" xMax="536" yMax="844">
      <component glyphName="AE" x="0" y="0" flags="0x0"/>
      <component glyphName="acutecomb.case" x="448" y="0" flags="0x0"/>
    </TTGlyph>
    <TTGlyph name="Aacute" xMin="-15" yMin="0" xMax="482" yMax="844">
      <component glyphName="A" x="0" y="0" flags="0x0"/>
      <component glyphName="acutecomb.case" x="448" y="0" flags="0x0"/>
    </TTGlyph>
    <TTGlyph name="Abreve" xMin="-15" yMin="0" xMax="479" yMax="834">
      <component glyphName="A" x="0" y="0" flags="0x0"/>
      <component glyphName="uni0306.case" x="448" y="0" flags="0x0"/>
    </TTGlyph>
    <TTGlyph name="Acircumflex" xMin="-15" yMin="0" xMax="466" yMax="842">
      <component glyphName="A" x="0" y="0" flags="0x0"/>
      <component glyphName="uni0302.case" x="448" y="0" flags="0x0"/>
    </TTGlyph>
    <TTGlyph name="Adieresis" xMin="-15" yMin="0" xMax="475" yMax="823">
      <component glyphName="A" x="0" y="0" flags="0x0"/>
      <component glyphName="uni0308.case" x="448" y="0" flags="0x0"/>
    </TTGlyph>
    <TTGlyph name="Agrave" xMin="-15" yMin="0" xMax="393" yMax="832">
      <component glyphName="A" x="0" y="0" flags="0x0"/>
      <component glyphName="gravecomb.case" x="448" y="0" flags="0x0"/>
    </TTGlyph>
    <TTGlyph name="Alpha" xMin="-15" yMin="0" xMax="393" yMax="642">
      <component glyphName="A" x="0" y="0" flags="0x0"/>
    </TTGlyph>
    <TTGlyph name="Alphatonos" xMin="-15" yMin="0" xMax="393" yMax="704">
      <component glyphName="A" x="0" y="0" flags="0x0"/>
      <component glyphName="tonos" x="-192" y="0" flags="0x0"/>
    </TTGlyph>
    <TTGlyph name="Amacron" xMin="-15" yMin="0" xMax="460" yMax="781">
      <component glyphName="A" x="0" y="0" flags="0x0"/>
      <component glyphName="uni0304.case" x="448" y="0" flags="0x0"/>
    </TTGlyph>
    <TTGlyph name="Aogonek" xMin="-15" yMin="-197" xMax="393" yMax="642">
      <contour>
        <pt x="374" y="0" on="1"/>
        <pt x="334" y="-36" on="0"/>
        <pt x="290" y="-90" on="0"/>
        <pt x="285" y="-116" on="1"/>
        <pt x="284" y="-120" on="0"/>
        <pt x="284" y="-125" on="1"/>
        <pt x="284" y="-132" on="0"/>
        <pt x="293" y="-136" on="0"/>
        <pt x="302" y="-136" on="1"/>
        <pt x="321" y="-136" on="0"/>
        <pt x="341" y="-127" on="1"/>
        <pt x="352" y="-183" on="1"/>
        <pt x="325" y="-197" on="0"/>
        <pt x="289" y="-197" on="1"/>
        <pt x="252" y="-197" on="0"/>
        <pt x="214" y="-164" on="0"/>
        <pt x="214" y="-133" on="1"/>
        <pt x="214" y="-126" on="0"/>
        <pt x="216" y="-112" on="1"/>
        <pt x="226" y="-58" on="0"/>
        <pt x="300" y="0" on="1"/>
        <pt x="279" y="0" on="1"/>
        <pt x="291" y="102" on="0"/>
        <pt x="296" y="176" on="1"/>
        <pt x="136" y="176" on="1"/>
        <pt x="103" y="78" on="0"/>
        <pt x="81" y="0" on="1"/>
        <pt x="-15" y="0" on="1"/>
        <pt x="38" y="188" on="0"/>
        <pt x="180" y="520" on="0"/>
        <pt x="263" y="642" on="1"/>
        <pt x="347" y="642" on="1"/>
        <pt x="393" y="494" on="0"/>
        <pt x="393" y="286" on="1"/>
        <pt x="393" y="152" on="0"/>
        <pt x="373" y="1" on="1"/>
      </contour>
      <contour>
        <pt x="300" y="248" on="1"/>
        <pt x="302" y="310" on="0"/>
        <pt x="302" y="336" on="1"/>
        <pt x="302" y="452" on="0"/>
        <pt x="289" y="537" on="1"/>
        <pt x="224" y="419" on="0"/>
        <pt x="161" y="248" on="1"/>
      </contour>
    </TTGlyph>
    <TTGlyph name="Aring" xMin="-15" yMin="0" xMax="456" yMax="894">
      <component glyphName="A" x="0" y="0" flags="0x0"/>
      <component glyphName="uni030A.case" x="448" y="0" flags="0x0"/>
    </TTGlyph>
    <TTGlyph name="Aringacute" xMin="-15" yMin="0" xMax="493" yMax="901">
      <contour>
        <pt x="391" y="783" on="1"/>
        <pt x="412" y="771" on="0"/>
        <pt x="435" y="730" on="0"/>
        <pt x="435" y="705" on="1"/>
        <pt x="435" y="668" on="0"/>
        <pt x="394" y="610" on="0"/>
        <pt x="360" y="595" on="1"/>
        <pt x="393" y="460" on="0"/>
        <pt x="393" y="286" on="1"/>
        <pt x="393" y="151" on="0"/>
        <pt x="373" y="0" on="1"/>
        <pt x="279" y="0" on="1"/>
        <pt x="291" y="102" on="0"/>
        <pt x="296" y="176" on="1"/>
        <pt x="136" y="176" on="1"/>
        <pt x="103" y="78" on="0"/>
        <pt x="81" y="0" on="1"/>
        <pt x="-15" y="0" on="1"/>
        <pt x="34" y="174" on="0"/>
        <pt x="162" y="483" on="0"/>
        <pt x="237" y="602" on="1"/>
        <pt x="200" y="627" on="0"/>
        <pt x="200" y="675" on="1"/>
        <pt x="200" y="720" on="0"/>
        <pt x="262" y="787" on="0"/>
        <pt x="309" y="795" on="1"/>
        <pt x="359" y="901" on="1"/>
        <pt x="493" y="901" on="1"/>
      </contour>
      <contour>
        <pt x="309" y="737" on="0"/>
        <pt x="275" y="696" on="0"/>
        <pt x="275" y="673" on="1"/>
        <pt x="275" y="660" on="0"/>
        <pt x="289" y="643" on="0"/>
        <pt x="302" y="643" on="1"/>
        <pt x="326" y="643" on="0"/>
        <pt x="360" y="684" on="0"/>
        <pt x="360" y="708" on="1"/>
        <pt x="360" y="721" on="0"/>
        <pt x="345" y="737" on="0"/>
        <pt x="332" y="737" on="1"/>
      </contour>
      <contour>
        <pt x="300" y="248" on="1"/>
        <pt x="302" y="310" on="0"/>
        <pt x="302" y="336" on="1"/>
        <pt x="302" y="452" on="0"/>
        <pt x="289" y="537" on="1"/>
        <pt x="224" y="419" on="0"/>
        <pt x="161" y="248" on="1"/>
      </contour>
    </TTGlyph>
    <TTGlyph name="Atilde" xMin="-15" yMin="0" xMax="503" yMax="840">
      <component glyphName="A" x="0" y="0" flags="0x0"/>
      <component glyphName="tildecomb.case" x="448" y="0" flags="0x0"/>
    </TTGlyph>
    <TTGlyph name="B" xMin="10" yMin="0" xMax="448" yMax="640">
      <contour>
        <pt x="426" y="382" on="0"/>
        <pt x="333" y="311" on="1"/>
        <pt x="368" y="298" on="0"/>
        <pt x="408" y="242" on="0"/>
        <pt x="408" y="201" on="1"/>
        <pt x="408" y="180" on="0"/>
        <pt x="404" y="163" on="1"/>
        <pt x="389" y="85" on="0"/>
        <pt x="264" y="0" on="0"/>
        <pt x="172" y="0" on="1"/>
        <pt x="10" y="0" on="1"/>
        <pt x="138" y="640" on="1"/>
        <pt x="274" y="640" on="1"/>
        <pt x="357" y="640" on="0"/>
        <pt x="448" y="574" on="0"/>
        <pt x="448" y="510" on="1"/>
        <pt x="448" y="489" on="0"/>
        <pt x="444" y="469" on="1"/>
      </contour>
      <contour>
        <pt x="351" y="538" on="0"/>
        <pt x="304" y="568" on="0"/>
        <pt x="251" y="568" on="1"/>
        <pt x="216" y="568" on="1"/>
        <pt x="170" y="340" on="1"/>
        <pt x="256" y="340" on="1"/>
        <pt x="298" y="369" on="0"/>
        <pt x="351" y="463" on="0"/>
        <pt x="351" y="506" on="1"/>
      </contour>
      <contour>
        <pt x="314" y="192" on="0"/>
        <pt x="314" y="203" on="1"/>
        <pt x="314" y="235" on="0"/>
        <pt x="264" y="268" on="0"/>
        <pt x="208" y="268" on="1"/>
        <pt x="156" y="268" on="1"/>
        <pt x="117" y="72" on="1"/>
        <pt x="163" y="72" on="1"/>
        <pt x="231" y="72" on="0"/>
        <pt x="300" y="126" on="0"/>
        <pt x="311" y="180" on="1"/>
      </contour>
    </TTGlyph>
    <TTGlyph name="B.sups" xMin="147" yMin="320" xMax="403" yMax="640">
      <contour>
        <pt x="403" y="640" on="1"/>
        <pt x="390" y="576" on="1"/>
        <pt x="378" y="512" on="1"/>
        <pt x="314" y="512" on="1"/>
        <pt x="326" y="576" on="1"/>
        <pt x="262" y="576" on="1"/>
        <pt x="250" y="512" on="1"/>
        <pt x="314" y="512" on="1"/>
        <pt x="301" y="448" on="1"/>
        <pt x="237" y="448" on="1"/>
        <pt x="224" y="384" on="1"/>
        <pt x="288" y="384" on="1"/>
        <pt x="301" y="448" on="1"/>
        <pt x="365" y="448" on="1"/>
        <pt x="339" y="320" on="1"/>
        <pt x="147" y="320" on="1"/>
        <pt x="186" y="512" on="1"/>
        <pt x="198" y="576" on="1"/>
        <pt x="211" y="640" on="1"/>
      </contour>
    </TTGlyph>
    <TTGlyph name="Beta" xMin="10" yMin="0" xMax="448" yMax="640">
      <component glyphName="B" x="0" y="0" flags="0x0"/>
    </TTGlyph>
    <TTGlyph name="C" xMin="57" yMin="-9" xMax="463" yMax="647">
      <contour>
        <pt x="142" y="-9" on="0"/>
        <pt x="57" y="75" on="0"/>
        <pt x="57" y="170" on="1"/>
        <pt x="57" y="229" on="0"/>
        <pt x="76" y="327" on="1"/>
        <pt x="100" y="447" on="0"/>
        <pt x="169" y="585" on="0"/>
        <pt x="275" y="647" on="0"/>
        <pt x="355" y="647" on="1"/>
        <pt x="412" y="647" on="0"/>
        <pt x="463" y="633" on="1"/>
        <pt x="441" y="567" on="1"/>
        <pt x="405" y="575" on="0"/>
        <pt x="365" y="575" on="1"/>
        <pt x="302" y="575" on="0"/>
        <pt x="232" y="523" on="0"/>
        <pt x="192" y="415" on="0"/>
        <pt x="171" y="312" on="1"/>
        <pt x="159" y="248" on="0"/>
        <pt x="148" y="181" on="0"/>
        <pt x="148" y="155" on="1"/>
        <pt x="148" y="106" on="0"/>
        <pt x="194" y="63" on="0"/>
        <pt x="251" y="63" on="1"/>
        <pt x="293" y="63" on="0"/>
        <pt x="342" y="75" on="1"/>
        <pt x="348" y="6" on="1"/>
        <pt x="299" y="-9" on="0"/>
        <pt x="235" y="-9" on="1"/>
      </contour>
    </TTGlyph>
    <TTGlyph name="C.sups" xMin="175" yMin="316" xMax="406" yMax="644">
      <contour>
        <pt x="302" y="370" on="0"/>
        <pt x="344" y="378" on="1"/>
        <pt x="349" y="325" on="1"/>
        <pt x="316" y="316" on="0"/>
        <pt x="276" y="316" on="1"/>
        <pt x="227" y="316" on="0"/>
        <pt x="175" y="375" on="0"/>
        <pt x="175" y="430" on="1"/>
        <pt x="175" y="457" on="0"/>
        <pt x="181" y="488" on="1"/>
        <pt x="196" y="565" on="0"/>
        <pt x="273" y="644" on="0"/>
        <pt x="331" y="644" on="1"/>
        <pt x="369" y="644" on="0"/>
        <pt x="406" y="633" on="1"/>
        <pt x="391" y="584" on="1"/>
        <pt x="362" y="590" on="0"/>
        <pt x="335" y="590" on="1"/>
        <pt x="299" y="590" on="0"/>
        <pt x="255" y="542" on="0"/>
        <pt x="242" y="473" on="1"/>
        <pt x="235" y="441" on="0"/>
        <pt x="235" y="417" on="1"/>
        <pt x="235" y="389" on="0"/>
        <pt x="257" y="370" on="0"/>
        <pt x="280" y="370" on="1"/>
      </contour>
    </TTGlyph>
    <TTGlyph name="Cacute" xMin="57" yMin="-9" xMax="514" yMax="844">
      <component glyphName="C" x="0" y="0" flags="0x0"/>
      <component glyphName="acutecomb.case" x="480" y="0" flags="0x0"/>
    </TTGlyph>
    <TTGlyph name="Ccaron" xMin="57" yMin="-9" xMax="463" yMax="788">
      <component glyphName="C" x="0" y="0" flags="0x0"/>
      <component glyphName="uni030C.case" x="480" y="0" flags="0x0"/>
    </TTGlyph>
    <TTGlyph name="Ccedilla" xMin="48" yMin="-192" xMax="463" yMax="647">
      <contour>
        <pt x="412" y="647" on="0"/>
        <pt x="463" y="633" on="1"/>
        <pt x="441" y="567" on="1"/>
        <pt x="405" y="575" on="0"/>
        <pt x="365" y="575" on="1"/>
        <pt x="302" y="575" on="0"/>
        <pt x="232" y="523" on="0"/>
        <pt x="192" y="415" on="0"/>
        <pt x="171" y="312" on="1"/>
        <pt x="159" y="248" on="0"/>
        <pt x="148" y="181" on="0"/>
        <pt x="148" y="155" on="1"/>
        <pt x="148" y="106" on="0"/>
        <pt x="194" y="63" on="0"/>
        <pt x="251" y="63" on="1"/>
        <pt x="293" y="63" on="0"/>
        <pt x="342" y="75" on="1"/>
        <pt x="348" y="6" on="1"/>
        <pt x="318" y="-3" on="0"/>
        <pt x="276" y="-7" on="1"/>
        <pt x="256" y="-96" on="0"/>
        <pt x="158" y="-192" on="0"/>
        <pt x="48" y="-192" on="1"/>
        <pt x="53" y="-128" on="1"/>
        <pt x="124" y="-126" on="0"/>
        <pt x="191" y="-74" on="0"/>
        <pt x="207" y="-8" on="1"/>
        <pt x="130" y="-3" on="0"/>
        <pt x="57" y="82" on="0"/>
        <pt x="57" y="170" on="1"/>
        <pt x="57" y="229" on="0"/>
        <pt x="76" y="327" on="1"/>
        <pt x="100" y="447" on="0"/>
        <pt x="169" y="585" on="0"/>
        <pt x="275" y="647" on="0"/>
        <pt x="355" y="647" on="1"/>
      </contour>
    </TTGlyph>
    <TTGlyph name="Ccircumflex" xMin="57" yMin="-9" xMax="498" yMax="842">
      <component glyphName="C" x="0" y="0" flags="0x0"/>
      <component glyphName="uni0302.case" x="480" y="0" flags="0x0"/>
    </TTGlyph>
    <TTGlyph name="Cdotaccent" xMin="57" yMin="-9" xMax="463" yMax="822">
      <component glyphName="C" x="0" y="0" flags="0x0"/>
      <component glyphName="uni0307.case" x="480" y="0" flags="0x0"/>
    </TTGlyph>
    <TTGlyph name="Chi" xMin="-4" yMin="0" xMax="481" yMax="640">
      <component glyphName="X" x="0" y="0" flags="0x0"/>
    </TTGlyph>
    <TTGlyph name="D" xMin="10" yMin="0" xMax="434" yMax="640">
      <contour>
        <pt x="262" y="640" on="1"/>
        <pt x="350" y="640" on="0"/>
        <pt x="434" y="554" on="0"/>
        <pt x="434" y="460" on="1"/>
        <pt x="434" y="397" on="0"/>
        <pt x="416" y="310" on="1"/>
        <pt x="393" y="196" on="0"/>
        <pt x="324" y="61" on="0"/>
        <pt x="219" y="0" on="0"/>
        <pt x="140" y="0" on="1"/>
        <pt x="10" y="0" on="1"/>
        <pt x="138" y="640" on="1"/>
      </contour>
      <contour>
        <pt x="142" y="72" on="1"/>
        <pt x="198" y="72" on="0"/>
        <pt x="263" y="124" on="0"/>
        <pt x="302" y="228" on="0"/>
        <pt x="321" y="325" on="1"/>
        <pt x="343" y="433" on="0"/>
        <pt x="343" y="476" on="1"/>
        <pt x="343" y="525" on="0"/>
        <pt x="299" y="568" on="0"/>
        <pt x="247" y="568" on="1"/>
        <pt x="216" y="568" on="1"/>
        <pt x="117" y="72" on="1"/>
      </contour>
    </TTGlyph>
    <TTGlyph name="D.sups" xMin="147" yMin="320" xMax="390" yMax="640">
      <contour>
        <pt x="250" y="512" on="1"/>
        <pt x="224" y="384" on="1"/>
        <pt x="288" y="384" on="1"/>
        <pt x="275" y="320" on="1"/>
        <pt x="147" y="320" on="1"/>
        <pt x="186" y="512" on="1"/>
        <pt x="198" y="576" on="1"/>
        <pt x="211" y="640" on="1"/>
        <pt x="339" y="640" on="1"/>
        <pt x="326" y="576" on="1"/>
        <pt x="262" y="576" on="1"/>
      </contour>
      <contour>
        <pt x="314" y="512" on="1"/>
        <pt x="326" y="576" on="1"/>
        <pt x="390" y="576" on="1"/>
        <pt x="378" y="512" on="1"/>
        <pt x="352" y="384" on="1"/>
        <pt x="288" y="384" on="1"/>
      </contour>
    </TTGlyph>
    <TTGlyph name="Dcaron" xMin="10" yMin="0" xMax="434" yMax="788">
      <component glyphName="D" x="0" y="0" flags="0x0"/>
      <component glyphName="uni030C.case" x="436" y="0" flags="0x0"/>
    </TTGlyph>
    <TTGlyph name="Dcroat" xMin="0" yMin="0" xMax="434" yMax="640">
      <component glyphName="Eth" x="0" y="0" flags="0x0"/>
    </TTGlyph>
    <TTGlyph name="E" xMin="10" yMin="0" xMax="467" yMax="640">
      <contour>
        <pt x="349" y="0" on="1"/>
        <pt x="10" y="0" on="1"/>
        <pt x="138" y="640" on="1"/>
        <pt x="467" y="640" on="1"/>
        <pt x="453" y="568" on="1"/>
        <pt x="216" y="568" on="1"/>
        <pt x="167" y="324" on="1"/>
        <pt x="350" y="324" on="1"/>
        <pt x="336" y="252" on="1"/>
        <pt x="153" y="252" on="1"/>
        <pt x="117" y="72" on="1"/>
        <pt x="364" y="72" on="1"/>
      </contour>
    </TTGlyph>
    <TTGlyph name="E.sups" xMin="147" yMin="320" xMax="399" yMax="640">
      <contour>
        <pt x="339" y="320" on="1"/>
        <pt x="147" y="320" on="1"/>
        <pt x="211" y="640" on="1"/>
        <pt x="399" y="640" on="1"/>
        <pt x="388" y="584" on="1"/>
        <pt x="264" y="584" on="1"/>
        <pt x="249" y="508" on="1"/>
        <pt x="361" y="508" on="1"/>
        <pt x="350" y="452" on="1"/>
        <pt x="238" y="452" on="1"/>
        <pt x="222" y="376" on="1"/>
        <pt x="350" y="376" on="1"/>
      </contour>
    </TTGlyph>
    <TTGlyph name="Eacute" xMin="10" yMin="0" xMax="478" yMax="844">
      <component glyphName="E" x="0" y="0" flags="0x0"/>
      <component glyphName="acutecomb.case" x="444" y="0" flags="0x0"/>
    </TTGlyph>
    <TTGlyph name="Ebreve" xMin="10" yMin="0" xMax="475" yMax="834">
      <component glyphName="E" x="0" y="0" flags="0x0"/>
      <component glyphName="uni0306.case" x="444" y="0" flags="0x0"/>
    </TTGlyph>
    <TTGlyph name="Ecaron" xMin="10" yMin="0" xMax="467" yMax="788">
      <component glyphName="E" x="0" y="0" flags="0x0"/>
      <component glyphName="uni030C.case" x="444" y="0" flags="0x0"/>
    </TTGlyph>
    <TTGlyph name="Ecircumflex" xMin="10" yMin="0" xMax="467" yMax="842">
      <component glyphName="E" x="0" y="0" flags="0x0"/>
      <component glyphName="uni0302.case" x="444" y="0" flags="0x0"/>
    </TTGlyph>
    <TTGlyph name="Edieresis" xMin="10" yMin="0" xMax="471" yMax="823">
      <component glyphName="E" x="0" y="0" flags="0x0"/>
      <component glyphName="uni0308.case" x="444" y="0" flags="0x0"/>
    </TTGlyph>
    <TTGlyph name="Edotaccent" xMin="10" yMin="0" xMax="467" yMax="822">
      <component glyphName="E" x="0" y="0" flags="0x0"/>
      <component glyphName="uni0307.case" x="444" y="0" flags="0x0"/>
    </TTGlyph>
    <TTGlyph name="Egrave" xMin="10" yMin="0" xMax="467" yMax="832">
      <component glyphName="E" x="0" y="0" flags="0x0"/>
      <component glyphName="gravecomb.case" x="444" y="0" flags="0x0"/>
    </TTGlyph>
    <TTGlyph name="Emacron" xMin="10" yMin="0" xMax="467" yMax="781">
      <component glyphName="E" x="0" y="0" flags="0x0"/>
      <component glyphName="uni0304.case" x="444" y="0" flags="0x0"/>
    </TTGlyph>
    <TTGlyph name="Eng" xMin="10" yMin="-198" xMax="476" yMax="640">
      <contour>
        <pt x="389" y="640" on="1"/>
        <pt x="476" y="640" on="1"/>
        <pt x="347" y="-9" on="1"/>
        <pt x="331" y="-86" on="0"/>
        <pt x="258" y="-172" on="0"/>
        <pt x="187" y="-198" on="1"/>
        <pt x="161" y="-125" on="1"/>
        <pt x="208" y="-107" on="0"/>
        <pt x="250" y="-58" on="0"/>
        <pt x="260" y="-10" on="1"/>
        <pt x="263" y="5" on="1"/>
        <pt x="200" y="376" on="1"/>
        <pt x="194" y="499" on="1"/>
        <pt x="97" y="0" on="1"/>
        <pt x="10" y="0" on="1"/>
        <pt x="138" y="640" on="1"/>
        <pt x="234" y="640" on="1"/>
        <pt x="297" y="267" on="1"/>
        <pt x="301" y="180" on="1"/>
      </contour>
    </TTGlyph>
    <TTGlyph name="Eogonek" xMin="10" yMin="-197" xMax="467" yMax="640">
      <contour>
        <pt x="453" y="568" on="1"/>
        <pt x="216" y="568" on="1"/>
        <pt x="167" y="324" on="1"/>
        <pt x="350" y="324" on="1"/>
        <pt x="336" y="252" on="1"/>
        <pt x="153" y="252" on="1"/>
        <pt x="117" y="72" on="1"/>
        <pt x="364" y="72" on="1"/>
        <pt x="349" y="1" on="1"/>
        <pt x="350" y="0" on="1"/>
        <pt x="310" y="-36" on="0"/>
        <pt x="266" y="-90" on="0"/>
        <pt x="261" y="-116" on="1"/>
        <pt x="260" y="-120" on="0"/>
        <pt x="260" y="-125" on="1"/>
        <pt x="260" y="-132" on="0"/>
        <pt x="269" y="-136" on="0"/>
        <pt x="278" y="-136" on="1"/>
        <pt x="297" y="-136" on="0"/>
        <pt x="317" y="-127" on="1"/>
        <pt x="328" y="-183" on="1"/>
        <pt x="301" y="-197" on="0"/>
        <pt x="265" y="-197" on="1"/>
        <pt x="228" y="-197" on="0"/>
        <pt x="190" y="-164" on="0"/>
        <pt x="190" y="-133" on="1"/>
        <pt x="190" y="-126" on="0"/>
        <pt x="192" y="-112" on="1"/>
        <pt x="202" y="-58" on="0"/>
        <pt x="276" y="0" on="1"/>
        <pt x="10" y="0" on="1"/>
        <pt x="138" y="640" on="1"/>
        <pt x="467" y="640" on="1"/>
      </contour>
    </TTGlyph>
    <TTGlyph name="Epsilon" xMin="10" yMin="0" xMax="467" yMax="640">
      <component glyphName="E" x="0" y="0" flags="0x0"/>
    </TTGlyph>
    <TTGlyph name="Epsilontonos" xMin="-17" yMin="0" xMax="467" yMax="704">
      <component glyphName="E" x="0" y="0" flags="0x0"/>
      <component glyphName="tonos" x="-256" y="0" flags="0x0"/>
    </TTGlyph>
    <TTGlyph name="Eta" xMin="10" yMin="0" xMax="476" yMax="640">
      <component glyphName="H" x="0" y="0" flags="0x0"/>
    </TTGlyph>
    <TTGlyph name="Etatonos" xMin="-17" yMin="0" xMax="476" yMax="704">
      <component glyphName="H" x="0" y="0" flags="0x0"/>
      <component glyphName="tonos" x="-256" y="0" flags="0x0"/>
    </TTGlyph>
    <TTGlyph name="Eth" xMin="0" yMin="0" xMax="434" yMax="640">
      <contour>
        <pt x="262" y="640" on="1"/>
        <pt x="350" y="640" on="0"/>
        <pt x="434" y="554" on="0"/>
        <pt x="434" y="460" on="1"/>
        <pt x="434" y="397" on="0"/>
        <pt x="416" y="310" on="1"/>
        <pt x="393" y="196" on="0"/>
        <pt x="324" y="61" on="0"/>
        <pt x="219" y="0" on="0"/>
        <pt x="140" y="0" on="1"/>
        <pt x="10" y="0" on="1"/>
        <pt x="60" y="252" on="1"/>
        <pt x="0" y="252" on="1"/>
        <pt x="0" y="324" on="1"/>
        <pt x="75" y="324" on="1"/>
        <pt x="138" y="640" on="1"/>
      </contour>
      <contour>
        <pt x="343" y="433" on="0"/>
        <pt x="343" y="476" on="1"/>
        <pt x="343" y="525" on="0"/>
        <pt x="299" y="568" on="0"/>
        <pt x="247" y="568" on="1"/>
        <pt x="216" y="568" on="1"/>
        <pt x="167" y="324" on="1"/>
        <pt x="241" y="324" on="1"/>
        <pt x="241" y="252" on="1"/>
        <pt x="153" y="252" on="1"/>
        <pt x="117" y="72" on="1"/>
        <pt x="142" y="72" on="1"/>
        <pt x="198" y="72" on="0"/>
        <pt x="263" y="124" on="0"/>
        <pt x="302" y="228" on="0"/>
        <pt x="321" y="325" on="1"/>
      </contour>
    </TTGlyph>
    <TTGlyph name="Euro" xMin="58" yMin="-7" xMax="475" yMax="583">
      <contour>
        <pt x="323" y="519" on="0"/>
        <pt x="248" y="455" on="0"/>
        <pt x="223" y="384" on="1"/>
        <pt x="400" y="384" on="1"/>
        <pt x="372" y="322" on="1"/>
        <pt x="205" y="322" on="1"/>
        <pt x="196" y="281" on="1"/>
        <pt x="192" y="263" on="0"/>
        <pt x="191" y="254" on="1"/>
        <pt x="346" y="254" on="1"/>
        <pt x="319" y="192" on="1"/>
        <pt x="183" y="192" on="1"/>
        <pt x="182" y="182" on="0"/>
        <pt x="182" y="163" on="1"/>
        <pt x="182" y="106" on="0"/>
        <pt x="225" y="57" on="0"/>
        <pt x="269" y="57" on="1"/>
        <pt x="310" y="57" on="0"/>
        <pt x="360" y="73" on="1"/>
        <pt x="369" y="12" on="1"/>
        <pt x="323" y="-7" on="0"/>
        <pt x="268" y="-7" on="1"/>
        <pt x="184" y="-7" on="0"/>
        <pt x="108" y="94" on="0"/>
        <pt x="113" y="192" on="1"/>
        <pt x="58" y="192" on="1"/>
        <pt x="70" y="254" on="1"/>
        <pt x="120" y="254" on="1"/>
        <pt x="124" y="282" on="0"/>
        <pt x="127" y="296" on="1"/>
        <pt x="133" y="322" on="1"/>
        <pt x="84" y="322" on="1"/>
        <pt x="96" y="384" on="1"/>
        <pt x="149" y="384" on="1"/>
        <pt x="181" y="482" on="0"/>
        <pt x="292" y="583" on="0"/>
        <pt x="374" y="583" on="1"/>
        <pt x="427" y="583" on="0"/>
        <pt x="475" y="562" on="1"/>
        <pt x="452" y="505" on="1"/>
        <pt x="414" y="519" on="0"/>
        <pt x="373" y="519" on="1"/>
      </contour>
    </TTGlyph>
    <TTGlyph name="F" xMin="9" yMin="0" xMax="477" yMax="640">
      <contour>
        <pt x="101" y="0" on="1"/>
        <pt x="9" y="0" on="1"/>
        <pt x="137" y="640" on="1"/>
        <pt x="477" y="640" on="1"/>
        <pt x="463" y="568" on="1"/>
        <pt x="215" y="568" on="1"/>
        <pt x="166" y="324" on="1"/>
        <pt x="350" y="324" on="1"/>
        <pt x="336" y="252" on="1"/>
        <pt x="152" y="252" on="1"/>
      </contour>
    </TTGlyph>
    <TTGlyph name="F.sups" xMin="147" yMin="320" xMax="403" yMax="640">
      <contour>
        <pt x="211" y="320" on="1"/>
        <pt x="147" y="320" on="1"/>
        <pt x="211" y="640" on="1"/>
        <pt x="403" y="640" on="1"/>
        <pt x="392" y="584" on="1"/>
        <pt x="264" y="584" on="1"/>
        <pt x="248" y="504" on="1"/>
        <pt x="356" y="504" on="1"/>
        <pt x="345" y="448" on="1"/>
        <pt x="237" y="448" on="1"/>
      </contour>
    </TTGlyph>
    <TTGlyph name="G" xMin="51" yMin="-9" xMax="469" yMax="647">
      <contour>
        <pt x="296" y="575" on="0"/>
        <pt x="226" y="523" on="0"/>
        <pt x="186" y="415" on="0"/>
        <pt x="165" y="312" on="1"/>
        <pt x="142" y="200" on="0"/>
        <pt x="142" y="153" on="1"/>
        <pt x="142" y="105" on="0"/>
        <pt x="185" y="63" on="0"/>
        <pt x="237" y="63" on="1"/>
        <pt x="246" y="63" on="0"/>
        <pt x="270" y="65" on="1"/>
        <pt x="307" y="252" on="1"/>
        <pt x="224" y="252" on="1"/>
        <pt x="239" y="324" on="1"/>
        <pt x="413" y="324" on="1"/>
        <pt x="351" y="13" on="1"/>
        <pt x="352" y="6" on="1"/>
        <pt x="324" y="-2" on="0"/>
        <pt x="257" y="-9" on="0"/>
        <pt x="229" y="-9" on="1"/>
        <pt x="136" y="-9" on="0"/>
        <pt x="51" y="75" on="0"/>
        <pt x="51" y="170" on="1"/>
        <pt x="51" y="229" on="0"/>
        <pt x="70" y="327" on="1"/>
        <pt x="94" y="447" on="0"/>
        <pt x="163" y="585" on="0"/>
        <pt x="269" y="647" on="0"/>
        <pt x="349" y="647" on="1"/>
        <pt x="377" y="647" on="0"/>
        <pt x="442" y="638" on="0"/>
        <pt x="469" y="630" on="1"/>
        <pt x="447" y="564" on="1"/>
        <pt x="404" y="575" on="0"/>
        <pt x="359" y="575" on="1"/>
      </contour>
    </TTGlyph>
    <TTGlyph name="G.sups" xMin="160" yMin="320" xMax="403" yMax="640">
      <contour>
        <pt x="403" y="640" on="1"/>
        <pt x="390" y="576" on="1"/>
        <pt x="262" y="576" on="1"/>
        <pt x="275" y="640" on="1"/>
      </contour>
      <contour>
        <pt x="262" y="576" on="1"/>
        <pt x="250" y="512" on="1"/>
        <pt x="224" y="384" on="1"/>
        <pt x="160" y="384" on="1"/>
        <pt x="186" y="512" on="1"/>
        <pt x="198" y="576" on="1"/>
      </contour>
      <contour>
        <pt x="339" y="320" on="1"/>
        <pt x="211" y="320" on="1"/>
        <pt x="224" y="384" on="1"/>
        <pt x="288" y="384" on="1"/>
        <pt x="314" y="512" on="1"/>
        <pt x="378" y="512" on="1"/>
      </contour>
    </TTGlyph>
    <TTGlyph name="Gamma" xMin="10" yMin="0" xMax="472" yMax="640">
      <component glyphName="uni0413" x="0" y="0" flags="0x0"/>
    </TTGlyph>
    <TTGlyph name="Gbreve" xMin="51" yMin="-9" xMax="499" yMax="834">
      <component glyphName="G" x="0" y="0" flags="0x0"/>
      <component glyphName="uni0306.case" x="468" y="0" flags="0x0"/>
    </TTGlyph>
    <TTGlyph name="Gcaron" xMin="51" yMin="-9" xMax="469" yMax="788">
      <component glyphName="G" x="0" y="0" flags="0x0"/>
      <component glyphName="uni030C.case" x="468" y="0" flags="0x0"/>
    </TTGlyph>
    <TTGlyph name="Gcircumflex" xMin="51" yMin="-9" xMax="486" yMax="842">
      <component glyphName="G" x="0" y="0" flags="0x0"/>
      <component glyphName="uni0302.case" x="468" y="0" flags="0x0"/>
    </TTGlyph>
    <TTGlyph name="Gdotaccent" xMin="51" yMin="-9" xMax="469" yMax="822">
      <component glyphName="G" x="0" y="0" flags="0x0"/>
      <component glyphName="uni0307.case" x="468" y="0" flags="0x0"/>
    </TTGlyph>
    <TTGlyph name="H" xMin="10" yMin="0" xMax="476" yMax="640">
      <contour>
        <pt x="102" y="0" on="1"/>
        <pt x="10" y="0" on="1"/>
        <pt x="138" y="640" on="1"/>
        <pt x="230" y="640" on="1"/>
        <pt x="167" y="324" on="1"/>
        <pt x="321" y="324" on="1"/>
        <pt x="384" y="640" on="1"/>
        <pt x="476" y="640" on="1"/>
        <pt x="348" y="0" on="1"/>
        <pt x="256" y="0" on="1"/>
        <pt x="307" y="252" on="1"/>
        <pt x="153" y="252" on="1"/>
      </contour>
    </TTGlyph>
    <TTGlyph name="H.sups" xMin="147" yMin="320" xMax="403" yMax="640">
      <contour>
        <pt x="211" y="640" on="1"/>
        <pt x="275" y="640" on="1"/>
        <pt x="249" y="508" on="1"/>
        <pt x="313" y="508" on="1"/>
        <pt x="339" y="640" on="1"/>
        <pt x="403" y="640" on="1"/>
        <pt x="339" y="320" on="1"/>
        <pt x="275" y="320" on="1"/>
        <pt x="302" y="452" on="1"/>
        <pt x="238" y="452" on="1"/>
        <pt x="211" y="320" on="1"/>
        <pt x="147" y="320" on="1"/>
      </contour>
    </TTGlyph>
    <TTGlyph name="Hbar" xMin="5" yMin="0" xMax="476" yMax="640">
      <contour>
        <pt x="476" y="640" on="1"/>
        <pt x="443" y="475" on="1"/>
        <pt x="443" y="440" on="1"/>
        <pt x="436" y="440" on="1"/>
        <pt x="348" y="0" on="1"/>
        <pt x="256" y="0" on="1"/>
        <pt x="307" y="252" on="1"/>
        <pt x="153" y="252" on="1"/>
        <pt x="102" y="0" on="1"/>
        <pt x="10" y="0" on="1"/>
        <pt x="98" y="440" on="1"/>
        <pt x="5" y="440" on="1"/>
        <pt x="5" y="508" on="1"/>
        <pt x="112" y="508" on="1"/>
        <pt x="138" y="640" on="1"/>
        <pt x="230" y="640" on="1"/>
        <pt x="204" y="508" on="1"/>
        <pt x="358" y="508" on="1"/>
        <pt x="384" y="640" on="1"/>
      </contour>
      <contour>
        <pt x="167" y="324" on="1"/>
        <pt x="321" y="324" on="1"/>
        <pt x="344" y="440" on="1"/>
        <pt x="190" y="440" on="1"/>
      </contour>
    </TTGlyph>
    <TTGlyph name="Hcircumflex" xMin="10" yMin="0" xMax="476" yMax="842">
      <component glyphName="H" x="0" y="0" flags="0x0"/>
      <component glyphName="uni0302.case" x="448" y="0" flags="0x0"/>
    </TTGlyph>
    <TTGlyph name="I" xMin="13" yMin="0" xMax="469" yMax="640">
      <contour>
        <pt x="345" y="0" on="1"/>
        <pt x="13" y="0" on="1"/>
        <pt x="26" y="61" on="1"/>
        <pt x="148" y="72" on="1"/>
        <pt x="247" y="568" on="1"/>
        <pt x="133" y="579" on="1"/>
        <pt x="145" y="640" on="1"/>
        <pt x="469" y="640" on="1"/>
        <pt x="457" y="579" on="1"/>
        <pt x="339" y="568" on="1"/>
        <pt x="240" y="72" on="1"/>
        <pt x="358" y="61" on="1"/>
      </contour>
    </TTGlyph>
    <TTGlyph name="I.sups" xMin="147" yMin="320" xMax="403" yMax="640">
      <contour>
        <pt x="286" y="376" on="1"/>
        <pt x="349" y="368" on="1"/>
        <pt x="339" y="320" on="1"/>
        <pt x="147" y="320" on="1"/>
        <pt x="157" y="368" on="1"/>
        <pt x="222" y="376" on="1"/>
        <pt x="264" y="584" on="1"/>
        <pt x="202" y="592" on="1"/>
        <pt x="211" y="640" on="1"/>
        <pt x="403" y="640" on="1"/>
        <pt x="394" y="592" on="1"/>
        <pt x="328" y="584" on="1"/>
      </contour>
    </TTGlyph>
    <TTGlyph name="IJ" xMin="-42" yMin="0" xMax="489" yMax="640">
      <contour>
        <pt x="-42" y="0" on="1"/>
        <pt x="-30" y="61" on="1"/>
        <pt x="24" y="72" on="1"/>
        <pt x="123" y="568" on="1"/>
        <pt x="76" y="579" on="1"/>
        <pt x="88" y="640" on="1"/>
        <pt x="274" y="640" on="1"/>
        <pt x="262" y="579" on="1"/>
        <pt x="215" y="568" on="1"/>
        <pt x="116" y="72" on="1"/>
        <pt x="199" y="72" on="1"/>
        <pt x="245" y="72" on="0"/>
        <pt x="294" y="129" on="0"/>
        <pt x="305" y="181" on="1"/>
        <pt x="383" y="568" on="1"/>
        <pt x="299" y="568" on="1"/>
        <pt x="313" y="640" on="1"/>
        <pt x="489" y="640" on="1"/>
        <pt x="397" y="178" on="1"/>
        <pt x="361" y="0" on="0"/>
        <pt x="190" y="0" on="1"/>
      </contour>
    </TTGlyph>
    <TTGlyph name="Iacute" xMin="13" yMin="0" xMax="482" yMax="844">
      <component glyphName="I" x="0" y="0" flags="0x0"/>
      <component glyphName="acutecomb.case" x="448" y="0" flags="0x0"/>
    </TTGlyph>
    <TTGlyph name="Iacute_J.loclNLD" xMin="-42" yMin="0" xMax="489" yMax="844">
      <component glyphName="IJ" x="0" y="0" flags="0x0"/>
      <component glyphName="acutecomb.case" x="448" y="0" flags="0x0"/>
    </TTGlyph>
    <TTGlyph name="Ibreve" xMin="13" yMin="0" xMax="479" yMax="834">
      <component glyphName="I" x="0" y="0" flags="0x0"/>
      <component glyphName="uni0306.case" x="448" y="0" flags="0x0"/>
    </TTGlyph>
    <TTGlyph name="Icircumflex" xMin="13" yMin="0" xMax="469" yMax="842">
      <component glyphName="I" x="0" y="0" flags="0x0"/>
      <component glyphName="uni0302.case" x="448" y="0" flags="0x0"/>
    </TTGlyph>
    <TTGlyph name="Idieresis" xMin="13" yMin="0" xMax="475" yMax="823">
      <component glyphName="I" x="0" y="0" flags="0x0"/>
      <component glyphName="uni0308.case" x="448" y="0" flags="0x0"/>
    </TTGlyph>
    <TTGlyph name="Idotaccent" xMin="13" yMin="0" xMax="469" yMax="822">
      <component glyphName="I" x="0" y="0" flags="0x0"/>
      <component glyphName="uni0307.case" x="448" y="0" flags="0x0"/>
    </TTGlyph>
    <TTGlyph name="Igrave" xMin="13" yMin="0" xMax="469" yMax="832">
      <component glyphName="I" x="0" y="0" flags="0x0"/>
      <component glyphName="gravecomb.case" x="448" y="0" flags="0x0"/>
    </TTGlyph>
    <TTGlyph name="Imacron" xMin="13" yMin="0" xMax="469" yMax="781">
      <component glyphName="I" x="0" y="0" flags="0x0"/>
      <component glyphName="uni0304.case" x="448" y="0" flags="0x0"/>
    </TTGlyph>
    <TTGlyph name="Iogonek" xMin="13" yMin="-197" xMax="469" yMax="640">
      <contour>
        <pt x="457" y="579" on="1"/>
        <pt x="339" y="568" on="1"/>
        <pt x="240" y="72" on="1"/>
        <pt x="358" y="61" on="1"/>
        <pt x="345" y="1" on="1"/>
        <pt x="346" y="0" on="1"/>
        <pt x="306" y="-36" on="0"/>
        <pt x="262" y="-90" on="0"/>
        <pt x="257" y="-116" on="1"/>
        <pt x="256" y="-120" on="0"/>
        <pt x="256" y="-125" on="1"/>
        <pt x="256" y="-132" on="0"/>
        <pt x="265" y="-136" on="0"/>
        <pt x="274" y="-136" on="1"/>
        <pt x="293" y="-136" on="0"/>
        <pt x="313" y="-127" on="1"/>
        <pt x="324" y="-183" on="1"/>
        <pt x="297" y="-197" on="0"/>
        <pt x="261" y="-197" on="1"/>
        <pt x="224" y="-197" on="0"/>
        <pt x="186" y="-164" on="0"/>
        <pt x="186" y="-133" on="1"/>
        <pt x="186" y="-126" on="0"/>
        <pt x="188" y="-112" on="1"/>
        <pt x="198" y="-58" on="0"/>
        <pt x="272" y="0" on="1"/>
        <pt x="13" y="0" on="1"/>
        <pt x="26" y="61" on="1"/>
        <pt x="148" y="72" on="1"/>
        <pt x="247" y="568" on="1"/>
        <pt x="133" y="579" on="1"/>
        <pt x="145" y="640" on="1"/>
        <pt x="469" y="640" on="1"/>
      </contour>
    </TTGlyph>
    <TTGlyph name="Iota" xMin="13" yMin="0" xMax="469" yMax="640">
      <component glyphName="I" x="0" y="0" flags="0x0"/>
    </TTGlyph>
    <TTGlyph name="Iotadieresis" xMin="13" yMin="0" xMax="475" yMax="823">
      <component glyphName="I" x="0" y="0" flags="0x0"/>
      <component glyphName="uni0308.case" x="448" y="0" flags="0x0"/>
    </TTGlyph>
    <TTGlyph name="Iotatonos" xMin="-17" yMin="0" xMax="469" yMax="704">
      <component glyphName="I" x="0" y="0" flags="0x0"/>
      <component glyphName="tonos" x="-256" y="0" flags="0x0"/>
    </TTGlyph>
    <TTGlyph name="Itilde" xMin="13" yMin="0" xMax="503" yMax="840">
      <component glyphName="I" x="0" y="0" flags="0x0"/>
      <component glyphName="tildecomb.case" x="448" y="0" flags="0x0"/>
    </TTGlyph>
    <TTGlyph name="J" xMin="39" yMin="-8" xMax="476" yMax="640">
      <contour>
        <pt x="126" y="145" on="1"/>
        <pt x="128" y="102" on="0"/>
        <pt x="155" y="64" on="0"/>
        <pt x="186" y="64" on="1"/>
        <pt x="231" y="64" on="0"/>
        <pt x="280" y="121" on="0"/>
        <pt x="291" y="173" on="1"/>
        <pt x="369" y="564" on="1"/>
        <pt x="215" y="564" on="1"/>
        <pt x="230" y="640" on="1"/>
        <pt x="476" y="640" on="1"/>
        <pt x="382" y="170" on="1"/>
        <pt x="346" y="-8" on="0"/>
        <pt x="184" y="-8" on="1"/>
        <pt x="111" y="-8" on="0"/>
        <pt x="41" y="67" on="0"/>
        <pt x="39" y="132" on="1"/>
      </contour>
    </TTGlyph>
    <TTGlyph name="J.sups" xMin="147" yMin="320" xMax="403" yMax="640">
      <contour>
        <pt x="403" y="640" on="1"/>
        <pt x="390" y="576" on="1"/>
        <pt x="378" y="512" on="1"/>
        <pt x="352" y="384" on="1"/>
        <pt x="288" y="384" on="1"/>
        <pt x="314" y="512" on="1"/>
        <pt x="326" y="576" on="1"/>
        <pt x="198" y="576" on="1"/>
        <pt x="211" y="640" on="1"/>
      </contour>
      <contour>
        <pt x="147" y="320" on="1"/>
        <pt x="160" y="384" on="1"/>
        <pt x="288" y="384" on="1"/>
        <pt x="275" y="320" on="1"/>
      </contour>
    </TTGlyph>
    <TTGlyph name="Jcircumflex" xMin="39" yMin="-8" xMax="512" yMax="842">
      <component glyphName="J" x="0" y="0" flags="0x0"/>
      <component glyphName="uni0302.case" x="494" y="0" flags="0x0"/>
    </TTGlyph>
    <TTGlyph name="K" xMin="10" yMin="0" xMax="491" yMax="640">
      <contour>
        <pt x="339" y="304" on="0"/>
        <pt x="380" y="237" on="0"/>
        <pt x="380" y="184" on="1"/>
        <pt x="380" y="173" on="0"/>
        <pt x="378" y="147" on="1"/>
        <pt x="361" y="0" on="1"/>
        <pt x="265" y="0" on="1"/>
        <pt x="287" y="147" on="1"/>
        <pt x="291" y="179" on="0"/>
        <pt x="291" y="189" on="1"/>
        <pt x="291" y="227" on="0"/>
        <pt x="253" y="257" on="0"/>
        <pt x="209" y="257" on="1"/>
        <pt x="154" y="257" on="1"/>
        <pt x="102" y="0" on="1"/>
        <pt x="10" y="0" on="1"/>
        <pt x="138" y="640" on="1"/>
        <pt x="230" y="640" on="1"/>
        <pt x="168" y="329" on="1"/>
        <pt x="194" y="329" on="1"/>
        <pt x="264" y="401" on="0"/>
        <pt x="356" y="541" on="0"/>
        <pt x="392" y="640" on="1"/>
        <pt x="491" y="640" on="1"/>
        <pt x="452" y="536" on="0"/>
        <pt x="363" y="388" on="0"/>
        <pt x="295" y="319" on="1"/>
      </contour>
    </TTGlyph>
    <TTGlyph name="K.sups" xMin="147" yMin="320" xMax="403" yMax="640">
      <contour>
        <pt x="275" y="640" on="1"/>
        <pt x="262" y="576" on="1"/>
        <pt x="250" y="512" on="1"/>
        <pt x="314" y="512" on="1"/>
        <pt x="301" y="448" on="1"/>
        <pt x="237" y="448" on="1"/>
        <pt x="211" y="320" on="1"/>
        <pt x="147" y="320" on="1"/>
        <pt x="186" y="512" on="1"/>
        <pt x="198" y="576" on="1"/>
        <pt x="211" y="640" on="1"/>
      </contour>
      <contour>
        <pt x="326" y="576" on="1"/>
        <pt x="339" y="640" on="1"/>
        <pt x="403" y="640" on="1"/>
        <pt x="390" y="576" on="1"/>
        <pt x="378" y="512" on="1"/>
        <pt x="314" y="512" on="1"/>
      </contour>
      <contour>
        <pt x="339" y="320" on="1"/>
        <pt x="275" y="320" on="1"/>
        <pt x="301" y="448" on="1"/>
        <pt x="365" y="448" on="1"/>
      </contour>
    </TTGlyph>
    <TTGlyph name="Kappa" xMin="10" yMin="0" xMax="491" yMax="640">
      <component glyphName="K" x="0" y="0" flags="0x0"/>
    </TTGlyph>
    <TTGlyph name="L" xMin="10" yMin="0" xMax="360" yMax="640">
      <contour>
        <pt x="344" y="0" on="1"/>
        <pt x="10" y="0" on="1"/>
        <pt x="138" y="640" on="1"/>
        <pt x="230" y="640" on="1"/>
        <pt x="118" y="76" on="1"/>
        <pt x="360" y="76" on="1"/>
      </contour>
    </TTGlyph>
    <TTGlyph name="L.sups" xMin="147" yMin="320" xMax="350" yMax="640">
      <contour>
        <pt x="222" y="376" on="1"/>
        <pt x="350" y="376" on="1"/>
        <pt x="339" y="320" on="1"/>
        <pt x="147" y="320" on="1"/>
        <pt x="211" y="640" on="1"/>
        <pt x="275" y="640" on="1"/>
      </contour>
    </TTGlyph>
    <TTGlyph name="Lacute" xMin="10" yMin="0" xMax="360" yMax="844">
      <component glyphName="L" x="0" y="0" flags="0x0"/>
      <component glyphName="acutecomb.case" x="325" y="0" flags="0x0"/>
    </TTGlyph>
    <TTGlyph name="Lambda" xMin="-15" yMin="0" xMax="390" yMax="645">
      <contour>
        <pt x="348" y="638" on="1"/>
        <pt x="390" y="496" on="0"/>
        <pt x="390" y="284" on="1"/>
        <pt x="390" y="147" on="0"/>
        <pt x="372" y="0" on="1"/>
        <pt x="279" y="0" on="1"/>
        <pt x="302" y="190" on="0"/>
        <pt x="302" y="339" on="1"/>
        <pt x="302" y="443" on="0"/>
        <pt x="289" y="537" on="1"/>
        <pt x="174" y="329" on="0"/>
        <pt x="81" y="0" on="1"/>
        <pt x="-15" y="0" on="1"/>
        <pt x="38" y="189" on="0"/>
        <pt x="181" y="523" on="0"/>
        <pt x="265" y="645" on="1"/>
      </contour>
    </TTGlyph>
    <TTGlyph name="Lcaron" xMin="10" yMin="0" xMax="455" yMax="644">
      <component glyphName="L" x="0" y="0" flags="0x0"/>
      <component glyphName="uni0315" x="384" y="0" flags="0x0"/>
    </TTGlyph>
    <TTGlyph name="Ldot" xMin="10" yMin="0" xMax="363" yMax="640">
      <component glyphName="L" x="0" y="0" flags="0x0"/>
      <component glyphName="period" x="128" y="256" flags="0x4"/>
    </TTGlyph>
    <TTGlyph name="Lslash" xMin="-44" yMin="0" xMax="360" yMax="640">
      <contour>
        <pt x="154" y="255" on="1"/>
        <pt x="118" y="76" on="1"/>
        <pt x="360" y="76" on="1"/>
        <pt x="344" y="0" on="1"/>
        <pt x="10" y="0" on="1"/>
        <pt x="48" y="189" on="1"/>
        <pt x="-17" y="148" on="1"/>
        <pt x="-44" y="200" on="1"/>
        <pt x="63" y="267" on="1"/>
        <pt x="138" y="640" on="1"/>
        <pt x="230" y="640" on="1"/>
        <pt x="169" y="334" on="1"/>
        <pt x="259" y="390" on="1"/>
        <pt x="286" y="338" on="1"/>
      </contour>
    </TTGlyph>
    <TTGlyph name="M" xMin="-36" yMin="0" xMax="497" yMax="640">
      <contour>
        <pt x="-36" y="0" on="1"/>
        <pt x="46" y="378" on="0"/>
        <pt x="117" y="640" on="1"/>
        <pt x="213" y="640" on="1"/>
        <pt x="236" y="289" on="1"/>
        <pt x="238" y="289" on="1"/>
        <pt x="401" y="640" on="1"/>
        <pt x="497" y="640" on="1"/>
        <pt x="461" y="358" on="0"/>
        <pt x="394" y="0" on="1"/>
        <pt x="301" y="0" on="1"/>
        <pt x="352" y="250" on="0"/>
        <pt x="381" y="442" on="1"/>
        <pt x="380" y="442" on="1"/>
        <pt x="236" y="139" on="1"/>
        <pt x="180" y="139" on="1"/>
        <pt x="156" y="439" on="1"/>
        <pt x="154" y="439" on="1"/>
        <pt x="91" y="165" on="0"/>
        <pt x="58" y="0" on="1"/>
      </contour>
    </TTGlyph>
    <TTGlyph name="M.sups" xMin="147" yMin="320" xMax="403" yMax="640">
      <contour>
        <pt x="403" y="640" on="1"/>
        <pt x="390" y="576" on="1"/>
        <pt x="378" y="512" on="1"/>
        <pt x="339" y="320" on="1"/>
        <pt x="275" y="320" on="1"/>
        <pt x="288" y="384" on="1"/>
        <pt x="224" y="384" on="1"/>
        <pt x="211" y="320" on="1"/>
        <pt x="147" y="320" on="1"/>
        <pt x="186" y="512" on="1"/>
        <pt x="198" y="576" on="1"/>
        <pt x="211" y="640" on="1"/>
      </contour>
    </TTGlyph>
    <TTGlyph name="Mu" xMin="-36" yMin="0" xMax="497" yMax="640">
      <component glyphName="M" x="0" y="0" flags="0x0"/>
    </TTGlyph>
    <TTGlyph name="N" xMin="10" yMin="0" xMax="476" yMax="640">
      <contour>
        <pt x="294" y="145" on="1"/>
        <pt x="389" y="640" on="1"/>
        <pt x="476" y="640" on="1"/>
        <pt x="348" y="0" on="1"/>
        <pt x="253" y="0" on="1"/>
        <pt x="196" y="376" on="1"/>
        <pt x="192" y="490" on="1"/>
        <pt x="97" y="0" on="1"/>
        <pt x="10" y="0" on="1"/>
        <pt x="138" y="640" on="1"/>
        <pt x="234" y="640" on="1"/>
        <pt x="291" y="264" on="1"/>
      </contour>
    </TTGlyph>
    <TTGlyph name="N.sups" xMin="147" yMin="320" xMax="390" yMax="640">
      <contour>
        <pt x="211" y="640" on="1"/>
        <pt x="339" y="640" on="1"/>
        <pt x="326" y="576" on="1"/>
        <pt x="262" y="576" on="1"/>
        <pt x="250" y="512" on="1"/>
        <pt x="211" y="320" on="1"/>
        <pt x="147" y="320" on="1"/>
        <pt x="186" y="512" on="1"/>
        <pt x="198" y="576" on="1"/>
      </contour>
      <contour>
        <pt x="314" y="512" on="1"/>
        <pt x="326" y="576" on="1"/>
        <pt x="390" y="576" on="1"/>
        <pt x="378" y="512" on="1"/>
        <pt x="339" y="320" on="1"/>
        <pt x="275" y="320" on="1"/>
      </contour>
    </TTGlyph>
    <TTGlyph name="Nacute" xMin="10" yMin="0" xMax="482" yMax="844">
      <component glyphName="N" x="0" y="0" flags="0x0"/>
      <component glyphName="acutecomb.case" x="448" y="0" flags="0x0"/>
    </TTGlyph>
    <TTGlyph name="Ncaron" xMin="10" yMin="0" xMax="476" yMax="788">
      <component glyphName="N" x="0" y="0" flags="0x0"/>
      <component glyphName="uni030C.case" x="448" y="0" flags="0x0"/>
    </TTGlyph>
    <TTGlyph name="Ntilde" xMin="10" yMin="0" xMax="503" yMax="840">
      <component glyphName="N" x="0" y="0" flags="0x0"/>
      <component glyphName="tildecomb.case" x="448" y="0" flags="0x0"/>
    </TTGlyph>
    <TTGlyph name="Nu" xMin="10" yMin="0" xMax="476" yMax="640">
      <component glyphName="N" x="0" y="0" flags="0x0"/>
    </TTGlyph>
    <TTGlyph name="O" xMin="36" yMin="-10" xMax="452" yMax="650">
      <contour>
        <pt x="36" y="-10" on="0"/>
        <pt x="36" y="178" on="1"/>
        <pt x="36" y="240" on="0"/>
        <pt x="53" y="327" on="1"/>
        <pt x="85" y="490" on="0"/>
        <pt x="209" y="650" on="0"/>
        <pt x="304" y="650" on="1"/>
        <pt x="379" y="650" on="0"/>
        <pt x="452" y="559" on="0"/>
        <pt x="452" y="466" on="1"/>
        <pt x="452" y="401" on="0"/>
        <pt x="434" y="312" on="1"/>
        <pt x="401" y="150" on="0"/>
        <pt x="279" y="-10" on="0"/>
        <pt x="183" y="-10" on="1"/>
      </contour>
      <contour>
        <pt x="241" y="64" on="0"/>
        <pt x="313" y="185" on="0"/>
        <pt x="341" y="327" on="1"/>
        <pt x="362" y="431" on="0"/>
        <pt x="362" y="487" on="1"/>
        <pt x="362" y="534" on="0"/>
        <pt x="332" y="576" on="0"/>
        <pt x="300" y="576" on="1"/>
        <pt x="246" y="576" on="0"/>
        <pt x="174" y="455" on="0"/>
        <pt x="146" y="312" on="1"/>
        <pt x="125" y="210" on="0"/>
        <pt x="125" y="153" on="1"/>
        <pt x="125" y="106" on="0"/>
        <pt x="154" y="64" on="0"/>
        <pt x="186" y="64" on="1"/>
      </contour>
    </TTGlyph>
    <TTGlyph name="O.sups" xMin="147" yMin="320" xMax="403" yMax="640">
      <contour>
        <pt x="403" y="640" on="1"/>
        <pt x="390" y="576" on="1"/>
        <pt x="378" y="512" on="1"/>
        <pt x="339" y="320" on="1"/>
        <pt x="147" y="320" on="1"/>
        <pt x="186" y="512" on="1"/>
        <pt x="198" y="576" on="1"/>
        <pt x="211" y="640" on="1"/>
      </contour>
      <contour>
        <pt x="314" y="512" on="1"/>
        <pt x="326" y="576" on="1"/>
        <pt x="262" y="576" on="1"/>
        <pt x="250" y="512" on="1"/>
        <pt x="224" y="384" on="1"/>
        <pt x="288" y="384" on="1"/>
      </contour>
    </TTGlyph>
    <TTGlyph name="OE" xMin="-4" yMin="0" xMax="525" yMax="640">
      <contour>
        <pt x="127" y="0" on="1"/>
        <pt x="62" y="0" on="0"/>
        <pt x="-4" y="90" on="0"/>
        <pt x="-4" y="178" on="1"/>
        <pt x="-4" y="239" on="0"/>
        <pt x="13" y="327" on="1"/>
        <pt x="45" y="486" on="0"/>
        <pt x="160" y="640" on="0"/>
        <pt x="250" y="640" on="1"/>
        <pt x="525" y="640" on="1"/>
        <pt x="511" y="568" on="1"/>
        <pt x="355" y="568" on="1"/>
        <pt x="306" y="324" on="1"/>
        <pt x="427" y="324" on="1"/>
        <pt x="412" y="252" on="1"/>
        <pt x="292" y="252" on="1"/>
        <pt x="256" y="72" on="1"/>
        <pt x="422" y="72" on="1"/>
        <pt x="407" y="0" on="1"/>
      </contour>
      <contour>
        <pt x="164" y="72" on="1"/>
        <pt x="263" y="568" on="1"/>
        <pt x="241" y="568" on="1"/>
        <pt x="196" y="568" on="0"/>
        <pt x="134" y="450" on="0"/>
        <pt x="106" y="312" on="1"/>
        <pt x="84" y="200" on="0"/>
        <pt x="84" y="151" on="1"/>
        <pt x="84" y="110" on="0"/>
        <pt x="109" y="72" on="0"/>
        <pt x="136" y="72" on="1"/>
      </contour>
    </TTGlyph>
    <TTGlyph name="Oacute" xMin="36" yMin="-10" xMax="482" yMax="844">
      <component glyphName="O" x="0" y="0" flags="0x0"/>
      <component glyphName="acutecomb.case" x="448" y="0" flags="0x0"/>
    </TTGlyph>
    <TTGlyph name="Obreve" xMin="36" yMin="-10" xMax="479" yMax="834">
      <component glyphName="O" x="0" y="0" flags="0x0"/>
      <component glyphName="uni0306.case" x="448" y="0" flags="0x0"/>
    </TTGlyph>
    <TTGlyph name="Ocircumflex" xMin="36" yMin="-10" xMax="466" yMax="842">
      <component glyphName="O" x="0" y="0" flags="0x0"/>
      <component glyphName="uni0302.case" x="448" y="0" flags="0x0"/>
    </TTGlyph>
    <TTGlyph name="Odieresis" xMin="36" yMin="-10" xMax="475" yMax="823">
      <component glyphName="O" x="0" y="0" flags="0x0"/>
      <component glyphName="uni0308.case" x="448" y="0" flags="0x0"/>
    </TTGlyph>
    <TTGlyph name="Ograve" xMin="36" yMin="-10" xMax="452" yMax="832">
      <component glyphName="O" x="0" y="0" flags="0x0"/>
      <component glyphName="gravecomb.case" x="448" y="0" flags="0x0"/>
    </TTGlyph>
    <TTGlyph name="Ohungarumlaut" xMin="36" yMin="-10" xMax="506" yMax="832">
      <component glyphName="O" x="0" y="0" flags="0x0"/>
      <component glyphName="uni030B.case" x="448" y="0" flags="0x0"/>
    </TTGlyph>
    <TTGlyph name="Omacron" xMin="36" yMin="-10" xMax="460" yMax="781">
      <component glyphName="O" x="0" y="0" flags="0x0"/>
      <component glyphName="uni0304.case" x="448" y="0" flags="0x0"/>
    </TTGlyph>
    <TTGlyph name="Omegatonos" xMin="-17" yMin="0" xMax="454" yMax="704">
      <component glyphName="uni03A9" x="0" y="0" flags="0x0"/>
      <component glyphName="tonos" x="-256" y="0" flags="0x0"/>
    </TTGlyph>
    <TTGlyph name="Omicron" xMin="36" yMin="-10" xMax="452" yMax="650">
      <component glyphName="O" x="0" y="0" flags="0x0"/>
    </TTGlyph>
    <TTGlyph name="Omicrontonos" xMin="-17" yMin="-10" xMax="452" yMax="704">
      <component glyphName="O" x="0" y="0" flags="0x0"/>
      <component glyphName="tonos" x="-256" y="0" flags="0x0"/>
    </TTGlyph>
    <TTGlyph name="Oslash" xMin="-14" yMin="-21" xMax="501" yMax="661">
      <contour>
        <pt x="501" y="626" on="1"/>
        <pt x="443" y="543" on="1"/>
        <pt x="452" y="509" on="0"/>
        <pt x="452" y="464" on="1"/>
        <pt x="452" y="399" on="0"/>
        <pt x="434" y="312" on="1"/>
        <pt x="401" y="150" on="0"/>
        <pt x="279" y="-10" on="0"/>
        <pt x="183" y="-10" on="1"/>
        <pt x="119" y="-10" on="0"/>
        <pt x="83" y="26" on="1"/>
        <pt x="50" y="-21" on="1"/>
        <pt x="-14" y="15" on="1"/>
        <pt x="44" y="99" on="1"/>
        <pt x="35" y="134" on="0"/>
        <pt x="35" y="178" on="1"/>
        <pt x="35" y="243" on="0"/>
        <pt x="53" y="327" on="1"/>
        <pt x="85" y="490" on="0"/>
        <pt x="209" y="650" on="0"/>
        <pt x="304" y="650" on="1"/>
        <pt x="368" y="650" on="0"/>
        <pt x="406" y="615" on="1"/>
        <pt x="438" y="661" on="1"/>
      </contour>
      <contour>
        <pt x="138" y="274" on="0"/>
        <pt x="130" y="221" on="1"/>
        <pt x="354" y="541" on="1"/>
        <pt x="341" y="576" on="0"/>
        <pt x="300" y="576" on="1"/>
        <pt x="246" y="576" on="0"/>
        <pt x="174" y="455" on="0"/>
        <pt x="146" y="312" on="1"/>
      </contour>
      <contour>
        <pt x="350" y="373" on="0"/>
        <pt x="357" y="419" on="1"/>
        <pt x="133" y="98" on="1"/>
        <pt x="146" y="64" on="0"/>
        <pt x="186" y="64" on="1"/>
        <pt x="241" y="64" on="0"/>
        <pt x="313" y="185" on="0"/>
        <pt x="341" y="327" on="1"/>
      </contour>
    </TTGlyph>
    <TTGlyph name="Oslashacute" xMin="-14" yMin="-21" xMax="501" yMax="844">
      <component glyphName="Oslash" x="0" y="0" flags="0x0"/>
      <component glyphName="acutecomb.case" x="448" y="0" flags="0x0"/>
    </TTGlyph>
    <TTGlyph name="Otilde" xMin="36" yMin="-10" xMax="503" yMax="840">
      <component glyphName="O" x="0" y="0" flags="0x0"/>
      <component glyphName="tildecomb.case" x="448" y="0" flags="0x0"/>
    </TTGlyph>
    <TTGlyph name="P" xMin="10" yMin="0" xMax="450" yMax="640">
      <contour>
        <pt x="10" y="0" on="1"/>
        <pt x="138" y="640" on="1"/>
        <pt x="297" y="640" on="1"/>
        <pt x="369" y="640" on="0"/>
        <pt x="450" y="556" on="0"/>
        <pt x="450" y="478" on="1"/>
        <pt x="450" y="447" on="0"/>
        <pt x="442" y="405" on="1"/>
        <pt x="421" y="299" on="0"/>
        <pt x="299" y="188" on="0"/>
        <pt x="212" y="188" on="1"/>
        <pt x="140" y="188" on="1"/>
        <pt x="102" y="0" on="1"/>
      </contour>
      <contour>
        <pt x="206" y="260" on="1"/>
        <pt x="268" y="260" on="0"/>
        <pt x="333" y="342" on="0"/>
        <pt x="349" y="419" on="1"/>
        <pt x="357" y="459" on="0"/>
        <pt x="357" y="485" on="1"/>
        <pt x="357" y="526" on="0"/>
        <pt x="318" y="568" on="0"/>
        <pt x="273" y="568" on="1"/>
        <pt x="216" y="568" on="1"/>
        <pt x="154" y="260" on="1"/>
      </contour>
    </TTGlyph>
    <TTGlyph name="P.sups" xMin="147" yMin="320" xMax="403" yMax="640">
      <contour>
        <pt x="403" y="640" on="1"/>
        <pt x="390" y="576" on="1"/>
        <pt x="378" y="512" on="1"/>
        <pt x="365" y="448" on="1"/>
        <pt x="237" y="448" on="1"/>
        <pt x="211" y="320" on="1"/>
        <pt x="147" y="320" on="1"/>
        <pt x="186" y="512" on="1"/>
        <pt x="198" y="576" on="1"/>
        <pt x="211" y="640" on="1"/>
      </contour>
      <contour>
        <pt x="250" y="512" on="1"/>
        <pt x="314" y="512" on="1"/>
        <pt x="326" y="576" on="1"/>
        <pt x="262" y="576" on="1"/>
      </contour>
    </TTGlyph>
    <TTGlyph name="Phi" xMin="45" yMin="0" xMax="442" yMax="640">
      <component glyphName="uni0424" x="0" y="0" flags="0x0"/>
    </TTGlyph>
    <TTGlyph name="Pi" xMin="10" yMin="0" xMax="476" yMax="640">
      <component glyphName="uni041F" x="0" y="0" flags="0x0"/>
    </TTGlyph>
    <TTGlyph name="Psi" xMin="83" yMin="0" xMax="467" yMax="640">
      <contour>
        <pt x="186" y="512" on="1"/>
        <pt x="147" y="320" on="1"/>
        <pt x="83" y="320" on="1"/>
        <pt x="122" y="512" on="1"/>
        <pt x="134" y="576" on="1"/>
        <pt x="147" y="640" on="1"/>
        <pt x="211" y="640" on="1"/>
        <pt x="198" y="576" on="1"/>
      </contour>
      <contour>
        <pt x="275" y="320" on="1"/>
        <pt x="339" y="320" on="1"/>
        <pt x="326" y="256" on="1"/>
        <pt x="262" y="256" on="1"/>
        <pt x="250" y="192" on="1"/>
        <pt x="211" y="0" on="1"/>
        <pt x="147" y="0" on="1"/>
        <pt x="186" y="192" on="1"/>
        <pt x="198" y="256" on="1"/>
        <pt x="134" y="256" on="1"/>
        <pt x="147" y="320" on="1"/>
        <pt x="211" y="320" on="1"/>
        <pt x="250" y="512" on="1"/>
        <pt x="262" y="576" on="1"/>
        <pt x="275" y="640" on="1"/>
        <pt x="339" y="640" on="1"/>
        <pt x="326" y="576" on="1"/>
        <pt x="314" y="512" on="1"/>
      </contour>
      <contour>
        <pt x="390" y="576" on="1"/>
        <pt x="403" y="640" on="1"/>
        <pt x="467" y="640" on="1"/>
        <pt x="454" y="576" on="1"/>
        <pt x="442" y="512" on="1"/>
        <pt x="403" y="320" on="1"/>
        <pt x="339" y="320" on="1"/>
        <pt x="378" y="512" on="1"/>
      </contour>
    </TTGlyph>
    <TTGlyph name="Q" xMin="36" yMin="-149" xMax="452" yMax="650">
      <contour>
        <pt x="406" y="173" on="0"/>
        <pt x="309" y="16" on="0"/>
        <pt x="236" y="-3" on="1"/>
        <pt x="237" y="-40" on="0"/>
        <pt x="291" y="-66" on="0"/>
        <pt x="357" y="-69" on="1"/>
        <pt x="337" y="-149" on="1"/>
        <pt x="162" y="-138" on="0"/>
        <pt x="154" y="-8" on="1"/>
        <pt x="36" y="10" on="0"/>
        <pt x="36" y="178" on="1"/>
        <pt x="36" y="248" on="0"/>
        <pt x="53" y="327" on="1"/>
        <pt x="85" y="490" on="0"/>
        <pt x="209" y="650" on="0"/>
        <pt x="304" y="650" on="1"/>
        <pt x="379" y="650" on="0"/>
        <pt x="452" y="559" on="0"/>
        <pt x="452" y="466" on="1"/>
        <pt x="452" y="401" on="0"/>
        <pt x="434" y="312" on="1"/>
      </contour>
      <contour>
        <pt x="241" y="64" on="0"/>
        <pt x="313" y="185" on="0"/>
        <pt x="341" y="327" on="1"/>
        <pt x="362" y="431" on="0"/>
        <pt x="362" y="487" on="1"/>
        <pt x="362" y="534" on="0"/>
        <pt x="332" y="576" on="0"/>
        <pt x="300" y="576" on="1"/>
        <pt x="246" y="576" on="0"/>
        <pt x="174" y="455" on="0"/>
        <pt x="146" y="312" on="1"/>
        <pt x="125" y="210" on="0"/>
        <pt x="125" y="153" on="1"/>
        <pt x="125" y="106" on="0"/>
        <pt x="154" y="64" on="0"/>
        <pt x="186" y="64" on="1"/>
      </contour>
    </TTGlyph>
    <TTGlyph name="Q.sups" xMin="147" yMin="256" xMax="403" yMax="640">
      <contour>
        <pt x="403" y="640" on="1"/>
        <pt x="390" y="576" on="1"/>
        <pt x="378" y="512" on="1"/>
        <pt x="339" y="320" on="1"/>
        <pt x="275" y="320" on="1"/>
        <pt x="262" y="256" on="1"/>
        <pt x="198" y="256" on="1"/>
        <pt x="211" y="320" on="1"/>
        <pt x="147" y="320" on="1"/>
        <pt x="186" y="512" on="1"/>
        <pt x="198" y="576" on="1"/>
        <pt x="211" y="640" on="1"/>
      </contour>
      <contour>
        <pt x="314" y="512" on="1"/>
        <pt x="326" y="576" on="1"/>
        <pt x="262" y="576" on="1"/>
        <pt x="250" y="512" on="1"/>
        <pt x="224" y="384" on="1"/>
        <pt x="288" y="384" on="1"/>
      </contour>
    </TTGlyph>
    <TTGlyph name="R" xMin="10" yMin="0" xMax="453" yMax="640">
      <contour>
        <pt x="297" y="640" on="1"/>
        <pt x="370" y="640" on="0"/>
        <pt x="453" y="561" on="0"/>
        <pt x="453" y="488" on="1"/>
        <pt x="453" y="461" on="0"/>
        <pt x="447" y="429" on="1"/>
        <pt x="432" y="354" on="0"/>
        <pt x="345" y="265" on="0"/>
        <pt x="280" y="252" on="1"/>
        <pt x="325" y="227" on="0"/>
        <pt x="373" y="124" on="0"/>
        <pt x="373" y="53" on="1"/>
        <pt x="373" y="27" on="0"/>
        <pt x="370" y="0" on="1"/>
        <pt x="278" y="0" on="1"/>
        <pt x="281" y="30" on="0"/>
        <pt x="281" y="55" on="1"/>
        <pt x="281" y="123" on="0"/>
        <pt x="237" y="209" on="0"/>
        <pt x="191" y="237" on="1"/>
        <pt x="150" y="237" on="1"/>
        <pt x="102" y="0" on="1"/>
        <pt x="10" y="0" on="1"/>
        <pt x="138" y="640" on="1"/>
      </contour>
      <contour>
        <pt x="361" y="476" on="0"/>
        <pt x="361" y="498" on="1"/>
        <pt x="361" y="535" on="0"/>
        <pt x="321" y="573" on="0"/>
        <pt x="274" y="573" on="1"/>
        <pt x="217" y="573" on="1"/>
        <pt x="164" y="309" on="1"/>
        <pt x="216" y="309" on="1"/>
        <pt x="278" y="309" on="0"/>
        <pt x="342" y="382" on="0"/>
        <pt x="355" y="449" on="1"/>
      </contour>
    </TTGlyph>
    <TTGlyph name="R.sups" xMin="147" yMin="320" xMax="403" yMax="640">
      <contour>
        <pt x="403" y="640" on="1"/>
        <pt x="390" y="576" on="1"/>
        <pt x="378" y="512" on="1"/>
        <pt x="314" y="512" on="1"/>
        <pt x="326" y="576" on="1"/>
        <pt x="262" y="576" on="1"/>
        <pt x="250" y="512" on="1"/>
        <pt x="314" y="512" on="1"/>
        <pt x="301" y="448" on="1"/>
        <pt x="237" y="448" on="1"/>
        <pt x="211" y="320" on="1"/>
        <pt x="147" y="320" on="1"/>
        <pt x="186" y="512" on="1"/>
        <pt x="198" y="576" on="1"/>
        <pt x="211" y="640" on="1"/>
      </contour>
      <contour>
        <pt x="339" y="320" on="1"/>
        <pt x="275" y="320" on="1"/>
        <pt x="301" y="448" on="1"/>
        <pt x="365" y="448" on="1"/>
      </contour>
    </TTGlyph>
    <TTGlyph name="Racute" xMin="10" yMin="0" xMax="482" yMax="844">
      <component glyphName="R" x="0" y="0" flags="0x0"/>
      <component glyphName="acutecomb.case" x="448" y="0" flags="0x0"/>
    </TTGlyph>
    <TTGlyph name="Rcaron" xMin="10" yMin="0" xMax="453" yMax="788">
      <component glyphName="R" x="0" y="0" flags="0x0"/>
      <component glyphName="uni030C.case" x="448" y="0" flags="0x0"/>
    </TTGlyph>
    <TTGlyph name="Rho" xMin="10" yMin="0" xMax="450" yMax="640">
      <component glyphName="P" x="0" y="0" flags="0x0"/>
    </TTGlyph>
    <TTGlyph name="S" xMin="9" yMin="-8" xMax="456" yMax="648">
      <contour>
        <pt x="122" y="-8" on="0"/>
        <pt x="42" y="8" on="0"/>
        <pt x="9" y="24" on="1"/>
        <pt x="32" y="89" on="1"/>
        <pt x="95" y="65" on="0"/>
        <pt x="161" y="65" on="1"/>
        <pt x="288" y="65" on="0"/>
        <pt x="288" y="155" on="1"/>
        <pt x="288" y="188" on="0"/>
        <pt x="250" y="232" on="0"/>
        <pt x="208" y="263" on="1"/>
        <pt x="172" y="289" on="0"/>
        <pt x="129" y="330" on="0"/>
        <pt x="98" y="394" on="0"/>
        <pt x="98" y="439" on="1"/>
        <pt x="98" y="535" on="0"/>
        <pt x="219" y="648" on="0"/>
        <pt x="334" y="648" on="1"/>
        <pt x="401" y="648" on="0"/>
        <pt x="456" y="628" on="1"/>
        <pt x="439" y="561" on="1"/>
        <pt x="392" y="575" on="0"/>
        <pt x="334" y="575" on="1"/>
        <pt x="193" y="575" on="0"/>
        <pt x="193" y="455" on="1"/>
        <pt x="193" y="426" on="0"/>
        <pt x="216" y="382" on="0"/>
        <pt x="250" y="351" on="0"/>
        <pt x="279" y="330" on="1"/>
        <pt x="313" y="305" on="0"/>
        <pt x="354" y="267" on="0"/>
        <pt x="383" y="207" on="0"/>
        <pt x="383" y="164" on="1"/>
        <pt x="383" y="85" on="0"/>
        <pt x="269" y="-8" on="0"/>
        <pt x="161" y="-8" on="1"/>
      </contour>
    </TTGlyph>
    <TTGlyph name="S.sups" xMin="148" yMin="316" xMax="395" yMax="644">
      <contour>
        <pt x="199" y="316" on="0"/>
        <pt x="148" y="327" on="1"/>
        <pt x="162" y="377" on="1"/>
        <pt x="213" y="370" on="0"/>
        <pt x="232" y="370" on="1"/>
        <pt x="285" y="370" on="0"/>
        <pt x="295" y="418" on="1"/>
        <pt x="296" y="422" on="0"/>
        <pt x="296" y="428" on="1"/>
        <pt x="296" y="439" on="0"/>
        <pt x="283" y="449" on="0"/>
        <pt x="259" y="459" on="0"/>
        <pt x="254" y="461" on="1"/>
        <pt x="223" y="471" on="0"/>
        <pt x="192" y="503" on="0"/>
        <pt x="192" y="531" on="1"/>
        <pt x="192" y="543" on="0"/>
        <pt x="195" y="558" on="1"/>
        <pt x="212" y="644" on="0"/>
        <pt x="313" y="644" on="1"/>
        <pt x="353" y="644" on="0"/>
        <pt x="395" y="633" on="1"/>
        <pt x="380" y="584" on="1"/>
        <pt x="347" y="590" on="0"/>
        <pt x="317" y="590" on="1"/>
        <pt x="293" y="590" on="0"/>
        <pt x="260" y="567" on="0"/>
        <pt x="256" y="545" on="1"/>
        <pt x="255" y="542" on="0"/>
        <pt x="255" y="537" on="1"/>
        <pt x="255" y="527" on="0"/>
        <pt x="266" y="518" on="0"/>
        <pt x="286" y="511" on="0"/>
        <pt x="292" y="508" on="1"/>
        <pt x="326" y="498" on="0"/>
        <pt x="360" y="466" on="0"/>
        <pt x="360" y="435" on="1"/>
        <pt x="360" y="427" on="0"/>
        <pt x="356" y="405" on="1"/>
        <pt x="348" y="363" on="0"/>
        <pt x="288" y="316" on="0"/>
        <pt x="238" y="316" on="1"/>
      </contour>
    </TTGlyph>
    <TTGlyph name="Sacute" xMin="9" yMin="-8" xMax="482" yMax="844">
      <component glyphName="S" x="0" y="0" flags="0x0"/>
      <component glyphName="acutecomb.case" x="448" y="0" flags="0x0"/>
    </TTGlyph>
    <TTGlyph name="Scaron" xMin="9" yMin="-8" xMax="456" yMax="788">
      <component glyphName="S" x="0" y="0" flags="0x0"/>
      <component glyphName="uni030C.case" x="448" y="0" flags="0x0"/>
    </TTGlyph>
    <TTGlyph name="Scedilla" xMin="-4" yMin="-172" xMax="456" yMax="648">
      <contour>
        <pt x="193" y="575" on="0"/>
        <pt x="193" y="455" on="1"/>
        <pt x="193" y="426" on="0"/>
        <pt x="216" y="382" on="0"/>
        <pt x="250" y="351" on="0"/>
        <pt x="279" y="330" on="1"/>
        <pt x="313" y="305" on="0"/>
        <pt x="354" y="267" on="0"/>
        <pt x="383" y="207" on="0"/>
        <pt x="383" y="164" on="1"/>
        <pt x="383" y="97" on="0"/>
        <pt x="300" y="9" on="0"/>
        <pt x="221" y="-4" on="1"/>
        <pt x="201" y="-84" on="0"/>
        <pt x="101" y="-172" on="0"/>
        <pt x="-4" y="-172" on="1"/>
        <pt x="2" y="-108" on="1"/>
        <pt x="68" y="-106" on="0"/>
        <pt x="134" y="-63" on="0"/>
        <pt x="151" y="-8" on="1"/>
        <pt x="71" y="-6" on="0"/>
        <pt x="9" y="24" on="1"/>
        <pt x="32" y="89" on="1"/>
        <pt x="95" y="65" on="0"/>
        <pt x="161" y="65" on="1"/>
        <pt x="288" y="65" on="0"/>
        <pt x="288" y="155" on="1"/>
        <pt x="288" y="188" on="0"/>
        <pt x="250" y="232" on="0"/>
        <pt x="208" y="263" on="1"/>
        <pt x="172" y="289" on="0"/>
        <pt x="129" y="330" on="0"/>
        <pt x="98" y="394" on="0"/>
        <pt x="98" y="439" on="1"/>
        <pt x="98" y="535" on="0"/>
        <pt x="219" y="648" on="0"/>
        <pt x="334" y="648" on="1"/>
        <pt x="401" y="648" on="0"/>
        <pt x="456" y="628" on="1"/>
        <pt x="439" y="561" on="1"/>
        <pt x="392" y="575" on="0"/>
        <pt x="334" y="575" on="1"/>
      </contour>
    </TTGlyph>
    <TTGlyph name="Scircumflex" xMin="9" yMin="-8" xMax="466" yMax="842">
      <component glyphName="S" x="0" y="0" flags="0x0"/>
      <component glyphName="uni0302.case" x="448" y="0" flags="0x0"/>
    </TTGlyph>
    <TTGlyph name="Sigma" xMin="19" yMin="0" xMax="467" yMax="640">
      <contour>
        <pt x="467" y="640" on="1"/>
        <pt x="454" y="576" on="1"/>
        <pt x="198" y="576" on="1"/>
        <pt x="186" y="512" on="1"/>
        <pt x="122" y="512" on="1"/>
        <pt x="134" y="576" on="1"/>
        <pt x="147" y="640" on="1"/>
      </contour>
      <contour>
        <pt x="224" y="384" on="1"/>
        <pt x="160" y="384" on="1"/>
        <pt x="186" y="512" on="1"/>
        <pt x="250" y="512" on="1"/>
      </contour>
      <contour>
        <pt x="262" y="256" on="1"/>
        <pt x="198" y="256" on="1"/>
        <pt x="224" y="384" on="1"/>
        <pt x="288" y="384" on="1"/>
      </contour>
      <contour>
        <pt x="109" y="128" on="1"/>
        <pt x="122" y="192" on="1"/>
        <pt x="134" y="256" on="1"/>
        <pt x="198" y="256" on="1"/>
        <pt x="186" y="192" on="1"/>
        <pt x="173" y="128" on="1"/>
      </contour>
      <contour>
        <pt x="19" y="0" on="1"/>
        <pt x="45" y="128" on="1"/>
        <pt x="109" y="128" on="1"/>
        <pt x="96" y="64" on="1"/>
        <pt x="352" y="64" on="1"/>
        <pt x="339" y="0" on="1"/>
      </contour>
    </TTGlyph>
    <TTGlyph name="T" xMin="103" yMin="0" xMax="497" yMax="640">
      <contour>
        <pt x="497" y="640" on="1"/>
        <pt x="483" y="568" on="1"/>
        <pt x="339" y="568" on="1"/>
        <pt x="225" y="0" on="1"/>
        <pt x="133" y="0" on="1"/>
        <pt x="247" y="568" on="1"/>
        <pt x="103" y="568" on="1"/>
        <pt x="117" y="640" on="1"/>
      </contour>
    </TTGlyph>
    <TTGlyph name="T.sups" xMin="192" yMin="320" xMax="411" yMax="640">
      <contour>
        <pt x="203" y="640" on="1"/>
        <pt x="411" y="640" on="1"/>
        <pt x="400" y="584" on="1"/>
        <pt x="328" y="584" on="1"/>
        <pt x="275" y="320" on="1"/>
        <pt x="211" y="320" on="1"/>
        <pt x="264" y="584" on="1"/>
        <pt x="192" y="584" on="1"/>
      </contour>
    </TTGlyph>
    <TTGlyph name="Tau" xMin="103" yMin="0" xMax="497" yMax="640">
      <component glyphName="T" x="0" y="0" flags="0x0"/>
    </TTGlyph>
    <TTGlyph name="Tbar" xMin="79" yMin="0" xMax="497" yMax="640">
      <contour>
        <pt x="497" y="640" on="1"/>
        <pt x="483" y="568" on="1"/>
        <pt x="339" y="568" on="1"/>
        <pt x="290" y="322" on="1"/>
        <pt x="369" y="322" on="1"/>
        <pt x="369" y="254" on="1"/>
        <pt x="276" y="254" on="1"/>
        <pt x="225" y="0" on="1"/>
        <pt x="133" y="0" on="1"/>
        <pt x="184" y="254" on="1"/>
        <pt x="79" y="254" on="1"/>
        <pt x="79" y="322" on="1"/>
        <pt x="198" y="322" on="1"/>
        <pt x="247" y="568" on="1"/>
        <pt x="103" y="568" on="1"/>
        <pt x="117" y="640" on="1"/>
      </contour>
    </TTGlyph>
    <TTGlyph name="Tcaron" xMin="103" yMin="0" xMax="497" yMax="788">
      <component glyphName="T" x="0" y="0" flags="0x0"/>
      <component glyphName="uni030C.case" x="448" y="0" flags="0x0"/>
    </TTGlyph>
    <TTGlyph name="Theta" xMin="36" yMin="-10" xMax="452" yMax="650">
      <contour>
        <pt x="379" y="650" on="0"/>
        <pt x="452" y="559" on="0"/>
        <pt x="452" y="466" on="1"/>
        <pt x="452" y="401" on="0"/>
        <pt x="434" y="312" on="1"/>
        <pt x="401" y="150" on="0"/>
        <pt x="279" y="-10" on="0"/>
        <pt x="183" y="-10" on="1"/>
        <pt x="36" y="-10" on="0"/>
        <pt x="36" y="178" on="1"/>
        <pt x="36" y="240" on="0"/>
        <pt x="53" y="327" on="1"/>
        <pt x="85" y="490" on="0"/>
        <pt x="209" y="650" on="0"/>
        <pt x="304" y="650" on="1"/>
      </contour>
      <contour>
        <pt x="247" y="576" on="0"/>
        <pt x="176" y="460" on="0"/>
        <pt x="148" y="324" on="1"/>
        <pt x="340" y="324" on="1"/>
        <pt x="341" y="325" on="0"/>
        <pt x="341" y="327" on="1"/>
        <pt x="362" y="431" on="0"/>
        <pt x="362" y="487" on="1"/>
        <pt x="362" y="534" on="0"/>
        <pt x="332" y="576" on="0"/>
        <pt x="300" y="576" on="1"/>
      </contour>
      <contour>
        <pt x="233" y="64" on="0"/>
        <pt x="299" y="152" on="0"/>
        <pt x="324" y="252" on="1"/>
        <pt x="135" y="252" on="1"/>
        <pt x="125" y="195" on="0"/>
        <pt x="125" y="153" on="1"/>
        <pt x="125" y="106" on="0"/>
        <pt x="154" y="64" on="0"/>
        <pt x="186" y="64" on="1"/>
      </contour>
    </TTGlyph>
    <TTGlyph name="Thorn" xMin="10" yMin="0" xMax="430" yMax="640">
      <contour>
        <pt x="273" y="516" on="1"/>
        <pt x="346" y="516" on="0"/>
        <pt x="430" y="437" on="0"/>
        <pt x="430" y="366" on="1"/>
        <pt x="430" y="341" on="0"/>
        <pt x="424" y="311" on="1"/>
        <pt x="406" y="219" on="0"/>
        <pt x="287" y="124" on="0"/>
        <pt x="200" y="124" on="1"/>
        <pt x="127" y="124" on="1"/>
        <pt x="102" y="0" on="1"/>
        <pt x="10" y="0" on="1"/>
        <pt x="138" y="640" on="1"/>
        <pt x="230" y="640" on="1"/>
        <pt x="206" y="516" on="1"/>
      </contour>
      <contour>
        <pt x="193" y="196" on="1"/>
        <pt x="256" y="196" on="0"/>
        <pt x="320" y="262" on="0"/>
        <pt x="333" y="326" on="1"/>
        <pt x="338" y="354" on="0"/>
        <pt x="338" y="371" on="1"/>
        <pt x="338" y="408" on="0"/>
        <pt x="297" y="444" on="0"/>
        <pt x="248" y="444" on="1"/>
        <pt x="191" y="444" on="1"/>
        <pt x="142" y="196" on="1"/>
      </contour>
    </TTGlyph>
    <TTGlyph name="U" xMin="41" yMin="-8" xMax="476" yMax="640">
      <contour>
        <pt x="138" y="640" on="1"/>
        <pt x="230" y="640" on="1"/>
        <pt x="137" y="172" on="1"/>
        <pt x="130" y="135" on="0"/>
        <pt x="130" y="117" on="1"/>
        <pt x="130" y="90" on="0"/>
        <pt x="156" y="64" on="0"/>
        <pt x="186" y="64" on="1"/>
        <pt x="231" y="64" on="0"/>
        <pt x="281" y="124" on="0"/>
        <pt x="292" y="179" on="1"/>
        <pt x="384" y="640" on="1"/>
        <pt x="476" y="640" on="1"/>
        <pt x="384" y="177" on="1"/>
        <pt x="346" y="-8" on="0"/>
        <pt x="184" y="-8" on="1"/>
        <pt x="117" y="-8" on="0"/>
        <pt x="41" y="58" on="0"/>
        <pt x="41" y="125" on="1"/>
        <pt x="41" y="152" on="0"/>
        <pt x="47" y="183" on="1"/>
      </contour>
    </TTGlyph>
    <TTGlyph name="U.sups" xMin="160" yMin="320" xMax="403" yMax="640">
      <contour>
        <pt x="262" y="576" on="1"/>
        <pt x="250" y="512" on="1"/>
        <pt x="224" y="384" on="1"/>
        <pt x="160" y="384" on="1"/>
        <pt x="186" y="512" on="1"/>
        <pt x="198" y="576" on="1"/>
        <pt x="211" y="640" on="1"/>
        <pt x="275" y="640" on="1"/>
      </contour>
      <contour>
        <pt x="326" y="576" on="1"/>
        <pt x="339" y="640" on="1"/>
        <pt x="403" y="640" on="1"/>
        <pt x="390" y="576" on="1"/>
        <pt x="378" y="512" on="1"/>
        <pt x="339" y="320" on="1"/>
        <pt x="211" y="320" on="1"/>
        <pt x="224" y="384" on="1"/>
        <pt x="288" y="384" on="1"/>
        <pt x="314" y="512" on="1"/>
      </contour>
    </TTGlyph>
    <TTGlyph name="Uacute" xMin="41" yMin="-8" xMax="482" yMax="844">
      <component glyphName="U" x="0" y="0" flags="0x0"/>
      <component glyphName="acutecomb.case" x="448" y="0" flags="0x0"/>
    </TTGlyph>
    <TTGlyph name="Ubreve" xMin="41" yMin="-8" xMax="479" yMax="834">
      <component glyphName="U" x="0" y="0" flags="0x0"/>
      <component glyphName="uni0306.case" x="448" y="0" flags="0x0"/>
    </TTGlyph>
    <TTGlyph name="Ucircumflex" xMin="41" yMin="-8" xMax="476" yMax="842">
      <component glyphName="U" x="0" y="0" flags="0x0"/>
      <component glyphName="uni0302.case" x="448" y="0" flags="0x0"/>
    </TTGlyph>
    <TTGlyph name="Udieresis" xMin="41" yMin="-8" xMax="476" yMax="823">
      <component glyphName="U" x="0" y="0" flags="0x0"/>
      <component glyphName="uni0308.case" x="448" y="0" flags="0x0"/>
    </TTGlyph>
    <TTGlyph name="Ugrave" xMin="41" yMin="-8" xMax="476" yMax="832">
      <component glyphName="U" x="0" y="0" flags="0x0"/>
      <component glyphName="gravecomb.case" x="448" y="0" flags="0x0"/>
    </TTGlyph>
    <TTGlyph name="Uhungarumlaut" xMin="41" yMin="-8" xMax="506" yMax="832">
      <component glyphName="U" x="0" y="0" flags="0x0"/>
      <component glyphName="uni030B.case" x="448" y="0" flags="0x0"/>
    </TTGlyph>
    <TTGlyph name="Umacron" xMin="41" yMin="-8" xMax="476" yMax="781">
      <component glyphName="U" x="0" y="0" flags="0x0"/>
      <component glyphName="uni0304.case" x="448" y="0" flags="0x0"/>
    </TTGlyph>
    <TTGlyph name="Uogonek" xMin="41" yMin="-197" xMax="476" yMax="640">
      <contour>
        <pt x="384" y="640" on="1"/>
        <pt x="476" y="640" on="1"/>
        <pt x="384" y="177" on="1"/>
        <pt x="352" y="24" on="0"/>
        <pt x="238" y="-2" on="1"/>
        <pt x="199" y="-37" on="0"/>
        <pt x="156" y="-91" on="0"/>
        <pt x="151" y="-116" on="1"/>
        <pt x="150" y="-120" on="0"/>
        <pt x="150" y="-125" on="1"/>
        <pt x="150" y="-132" on="0"/>
        <pt x="159" y="-136" on="0"/>
        <pt x="168" y="-136" on="1"/>
        <pt x="187" y="-136" on="0"/>
        <pt x="207" y="-127" on="1"/>
        <pt x="218" y="-183" on="1"/>
        <pt x="191" y="-197" on="0"/>
        <pt x="155" y="-197" on="1"/>
        <pt x="118" y="-197" on="0"/>
        <pt x="80" y="-164" on="0"/>
        <pt x="80" y="-133" on="1"/>
        <pt x="80" y="-70" on="0"/>
        <pt x="158" y="-7" on="1"/>
        <pt x="103" y="-1" on="0"/>
        <pt x="41" y="65" on="0"/>
        <pt x="41" y="125" on="1"/>
        <pt x="41" y="152" on="0"/>
        <pt x="47" y="183" on="1"/>
        <pt x="138" y="640" on="1"/>
        <pt x="230" y="640" on="1"/>
        <pt x="137" y="172" on="1"/>
        <pt x="130" y="135" on="0"/>
        <pt x="130" y="117" on="1"/>
        <pt x="130" y="90" on="0"/>
        <pt x="156" y="64" on="0"/>
        <pt x="186" y="64" on="1"/>
        <pt x="231" y="64" on="0"/>
        <pt x="281" y="124" on="0"/>
        <pt x="292" y="179" on="1"/>
      </contour>
    </TTGlyph>
    <TTGlyph name="Upsilon" xMin="110" yMin="0" xMax="501" yMax="640">
      <component glyphName="Y" x="0" y="0" flags="0x0"/>
    </TTGlyph>
    <TTGlyph name="Upsilondieresis" xMin="110" yMin="0" xMax="501" yMax="823">
      <component glyphName="Y" x="0" y="0" flags="0x0"/>
      <component glyphName="uni0308.case" x="448" y="0" flags="0x0"/>
    </TTGlyph>
    <TTGlyph name="Upsilontonos" xMin="-17" yMin="0" xMax="501" yMax="704">
      <component glyphName="Y" x="0" y="0" flags="0x0"/>
      <component glyphName="tonos" x="-256" y="0" flags="0x0"/>
    </TTGlyph>
    <TTGlyph name="Uring" xMin="41" yMin="-8" xMax="476" yMax="894">
      <component glyphName="U" x="0" y="0" flags="0x0"/>
      <component glyphName="uni030A.case" x="448" y="0" flags="0x0"/>
    </TTGlyph>
    <TTGlyph name="Utilde" xMin="41" yMin="-8" xMax="503" yMax="840">
      <component glyphName="U" x="0" y="0" flags="0x0"/>
      <component glyphName="tildecomb.case" x="448" y="0" flags="0x0"/>
    </TTGlyph>
    <TTGlyph name="V" xMin="97" yMin="-2" xMax="502" yMax="640">
      <contour>
        <pt x="502" y="640" on="1"/>
        <pt x="449" y="452" on="0"/>
        <pt x="307" y="120" on="0"/>
        <pt x="224" y="-2" on="1"/>
        <pt x="140" y="-2" on="1"/>
        <pt x="97" y="143" on="0"/>
        <pt x="97" y="360" on="1"/>
        <pt x="97" y="492" on="0"/>
        <pt x="114" y="640" on="1"/>
        <pt x="208" y="640" on="1"/>
        <pt x="187" y="453" on="0"/>
        <pt x="187" y="298" on="1"/>
        <pt x="187" y="182" on="0"/>
        <pt x="198" y="104" on="1"/>
        <pt x="313" y="311" on="0"/>
        <pt x="406" y="640" on="1"/>
      </contour>
    </TTGlyph>
    <TTGlyph name="V.sups" xMin="188" yMin="317" xMax="424" yMax="644">
      <contour>
        <pt x="424" y="637" on="1"/>
        <pt x="371" y="475" on="0"/>
        <pt x="272" y="317" on="1"/>
        <pt x="217" y="324" on="1"/>
        <pt x="188" y="455" on="0"/>
        <pt x="188" y="582" on="1"/>
        <pt x="188" y="602" on="0"/>
        <pt x="190" y="644" on="1"/>
        <pt x="250" y="637" on="1"/>
        <pt x="247" y="586" on="0"/>
        <pt x="247" y="536" on="1"/>
        <pt x="247" y="454" on="0"/>
        <pt x="254" y="384" on="1"/>
        <pt x="325" y="522" on="0"/>
        <pt x="364" y="644" on="1"/>
      </contour>
    </TTGlyph>
    <TTGlyph name="W" xMin="56" yMin="0" xMax="500" yMax="640">
      <contour>
        <pt x="500" y="640" on="1"/>
        <pt x="457" y="436" on="0"/>
        <pt x="370" y="148" on="0"/>
        <pt x="303" y="0" on="1"/>
        <pt x="223" y="0" on="1"/>
        <pt x="216" y="46" on="0"/>
        <pt x="216" y="102" on="1"/>
        <pt x="216" y="142" on="0"/>
        <pt x="221" y="197" on="1"/>
        <pt x="189" y="89" on="0"/>
        <pt x="141" y="0" on="1"/>
        <pt x="59" y="0" on="1"/>
        <pt x="56" y="57" on="0"/>
        <pt x="56" y="112" on="1"/>
        <pt x="56" y="230" on="0"/>
        <pt x="84" y="476" on="0"/>
        <pt x="115" y="640" on="1"/>
        <pt x="208" y="640" on="1"/>
        <pt x="172" y="457" on="0"/>
        <pt x="136" y="222" on="0"/>
        <pt x="130" y="106" on="1"/>
        <pt x="197" y="275" on="0"/>
        <pt x="232" y="448" on="1"/>
        <pt x="306" y="448" on="1"/>
        <pt x="270" y="275" on="0"/>
        <pt x="269" y="106" on="1"/>
        <pt x="310" y="222" on="0"/>
        <pt x="369" y="456" on="0"/>
        <pt x="407" y="640" on="1"/>
      </contour>
    </TTGlyph>
    <TTGlyph name="W.sups" xMin="147" yMin="320" xMax="403" yMax="640">
      <contour>
        <pt x="326" y="576" on="1"/>
        <pt x="339" y="640" on="1"/>
        <pt x="403" y="640" on="1"/>
        <pt x="390" y="576" on="1"/>
        <pt x="378" y="512" on="1"/>
        <pt x="339" y="320" on="1"/>
        <pt x="147" y="320" on="1"/>
        <pt x="186" y="512" on="1"/>
        <pt x="198" y="576" on="1"/>
        <pt x="211" y="640" on="1"/>
        <pt x="275" y="640" on="1"/>
        <pt x="262" y="576" on="1"/>
      </contour>
    </TTGlyph>
    <TTGlyph name="Wacute" xMin="56" yMin="0" xMax="500" yMax="844">
      <component glyphName="W" x="0" y="0" flags="0x0"/>
      <component glyphName="acutecomb.case" x="448" y="0" flags="0x0"/>
    </TTGlyph>
    <TTGlyph name="Wcircumflex" xMin="56" yMin="0" xMax="500" yMax="842">
      <component glyphName="W" x="0" y="0" flags="0x0"/>
      <component glyphName="uni0302.case" x="448" y="0" flags="0x0"/>
    </TTGlyph>
    <TTGlyph name="Wdieresis" xMin="56" yMin="0" xMax="500" yMax="823">
      <component glyphName="W" x="0" y="0" flags="0x0"/>
      <component glyphName="uni0308.case" x="448" y="0" flags="0x0"/>
    </TTGlyph>
    <TTGlyph name="Wgrave" xMin="56" yMin="0" xMax="500" yMax="832">
      <component glyphName="W" x="0" y="0" flags="0x0"/>
      <component glyphName="gravecomb.case" x="448" y="0" flags="0x0"/>
    </TTGlyph>
    <TTGlyph name="X" xMin="-4" yMin="0" xMax="481" yMax="640">
      <contour>
        <pt x="481" y="640" on="1"/>
        <pt x="445" y="515" on="0"/>
        <pt x="365" y="362" on="0"/>
        <pt x="298" y="296" on="1"/>
        <pt x="335" y="225" on="0"/>
        <pt x="361" y="93" on="0"/>
        <pt x="359" y="0" on="1"/>
        <pt x="268" y="0" on="1"/>
        <pt x="269" y="86" on="0"/>
        <pt x="254" y="190" on="0"/>
        <pt x="231" y="239" on="1"/>
        <pt x="185" y="189" on="0"/>
        <pt x="126" y="86" on="0"/>
        <pt x="92" y="0" on="1"/>
        <pt x="-4" y="0" on="1"/>
        <pt x="33" y="99" on="0"/>
        <pt x="113" y="233" on="0"/>
        <pt x="181" y="306" on="1"/>
        <pt x="152" y="353" on="0"/>
        <pt x="127" y="453" on="0"/>
        <pt x="127" y="519" on="1"/>
        <pt x="127" y="568" on="0"/>
        <pt x="135" y="640" on="1"/>
        <pt x="226" y="640" on="1"/>
        <pt x="217" y="561" on="0"/>
        <pt x="217" y="507" on="1"/>
        <pt x="217" y="461" on="0"/>
        <pt x="231" y="391" on="0"/>
        <pt x="247" y="359" on="1"/>
        <pt x="295" y="407" on="0"/>
        <pt x="356" y="531" on="0"/>
        <pt x="388" y="640" on="1"/>
      </contour>
    </TTGlyph>
    <TTGlyph name="X.sups" xMin="147" yMin="320" xMax="403" yMax="640">
      <contour>
        <pt x="211" y="640" on="1"/>
        <pt x="275" y="640" on="1"/>
        <pt x="262" y="576" on="1"/>
        <pt x="250" y="512" on="1"/>
        <pt x="186" y="512" on="1"/>
        <pt x="198" y="576" on="1"/>
      </contour>
      <contour>
        <pt x="326" y="576" on="1"/>
        <pt x="339" y="640" on="1"/>
        <pt x="403" y="640" on="1"/>
        <pt x="390" y="576" on="1"/>
        <pt x="378" y="512" on="1"/>
        <pt x="314" y="512" on="1"/>
      </contour>
      <contour>
        <pt x="301" y="448" on="1"/>
        <pt x="237" y="448" on="1"/>
        <pt x="250" y="512" on="1"/>
        <pt x="314" y="512" on="1"/>
      </contour>
      <contour>
        <pt x="147" y="320" on="1"/>
        <pt x="173" y="448" on="1"/>
        <pt x="237" y="448" on="1"/>
        <pt x="211" y="320" on="1"/>
      </contour>
      <contour>
        <pt x="339" y="320" on="1"/>
        <pt x="275" y="320" on="1"/>
        <pt x="301" y="448" on="1"/>
        <pt x="365" y="448" on="1"/>
      </contour>
    </TTGlyph>
    <TTGlyph name="Xi" xMin="5" yMin="0" xMax="476" yMax="640">
      <contour>
        <pt x="122" y="560" on="1"/>
        <pt x="138" y="640" on="1"/>
        <pt x="476" y="640" on="1"/>
        <pt x="460" y="560" on="1"/>
      </contour>
      <contour>
        <pt x="109" y="248" on="1"/>
        <pt x="125" y="328" on="1"/>
        <pt x="365" y="328" on="1"/>
        <pt x="349" y="248" on="1"/>
      </contour>
      <contour>
        <pt x="5" y="0" on="1"/>
        <pt x="21" y="80" on="1"/>
        <pt x="369" y="80" on="1"/>
        <pt x="353" y="0" on="1"/>
      </contour>
    </TTGlyph>
    <TTGlyph name="Y" xMin="110" yMin="0" xMax="501" yMax="640">
      <contour>
        <pt x="501" y="640" on="1"/>
        <pt x="457" y="496" on="0"/>
        <pt x="343" y="284" on="0"/>
        <pt x="266" y="202" on="1"/>
        <pt x="252" y="203" on="1"/>
        <pt x="252" y="202" on="1"/>
        <pt x="266" y="202" on="1"/>
        <pt x="225" y="0" on="1"/>
        <pt x="133" y="0" on="1"/>
        <pt x="174" y="202" on="1"/>
        <pt x="110" y="329" on="0"/>
        <pt x="110" y="520" on="1"/>
        <pt x="110" y="586" on="0"/>
        <pt x="115" y="640" on="1"/>
        <pt x="206" y="640" on="1"/>
        <pt x="196" y="545" on="0"/>
        <pt x="196" y="488" on="1"/>
        <pt x="196" y="429" on="0"/>
        <pt x="212" y="324" on="0"/>
        <pt x="230" y="266" on="1"/>
        <pt x="296" y="357" on="0"/>
        <pt x="375" y="522" on="0"/>
        <pt x="408" y="640" on="1"/>
      </contour>
    </TTGlyph>
    <TTGlyph name="Y.sups" xMin="147" yMin="320" xMax="403" yMax="640">
      <contour>
        <pt x="326" y="576" on="1"/>
        <pt x="339" y="640" on="1"/>
        <pt x="403" y="640" on="1"/>
        <pt x="390" y="576" on="1"/>
        <pt x="378" y="512" on="1"/>
        <pt x="352" y="384" on="1"/>
        <pt x="288" y="384" on="1"/>
        <pt x="301" y="448" on="1"/>
        <pt x="173" y="448" on="1"/>
        <pt x="186" y="512" on="1"/>
        <pt x="198" y="576" on="1"/>
        <pt x="211" y="640" on="1"/>
        <pt x="275" y="640" on="1"/>
        <pt x="262" y="576" on="1"/>
        <pt x="250" y="512" on="1"/>
        <pt x="314" y="512" on="1"/>
      </contour>
      <contour>
        <pt x="147" y="320" on="1"/>
        <pt x="160" y="384" on="1"/>
        <pt x="288" y="384" on="1"/>
        <pt x="275" y="320" on="1"/>
      </contour>
    </TTGlyph>
    <TTGlyph name="Yacute" xMin="110" yMin="0" xMax="501" yMax="844">
      <component glyphName="Y" x="0" y="0" flags="0x0"/>
      <component glyphName="acutecomb.case" x="448" y="0" flags="0x0"/>
    </TTGlyph>
    <TTGlyph name="Ycircumflex" xMin="110" yMin="0" xMax="501" yMax="842">
      <component glyphName="Y" x="0" y="0" flags="0x0"/>
      <component glyphName="uni0302.case" x="448" y="0" flags="0x0"/>
    </TTGlyph>
    <TTGlyph name="Ydieresis" xMin="110" yMin="0" xMax="501" yMax="823">
      <component glyphName="Y" x="0" y="0" flags="0x0"/>
      <component glyphName="uni0308.case" x="448" y="0" flags="0x0"/>
    </TTGlyph>
    <TTGlyph name="Ygrave" xMin="110" yMin="0" xMax="501" yMax="832">
      <component glyphName="Y" x="0" y="0" flags="0x0"/>
      <component glyphName="gravecomb.case" x="448" y="0" flags="0x0"/>
    </TTGlyph>
    <TTGlyph name="Z" xMin="5" yMin="0" xMax="476" yMax="640">
      <contour>
        <pt x="145" y="640" on="1"/>
        <pt x="476" y="640" on="1"/>
        <pt x="466" y="584" on="1"/>
        <pt x="126" y="72" on="1"/>
        <pt x="363" y="72" on="1"/>
        <pt x="348" y="0" on="1"/>
        <pt x="5" y="0" on="1"/>
        <pt x="16" y="56" on="1"/>
        <pt x="355" y="568" on="1"/>
        <pt x="131" y="568" on="1"/>
      </contour>
    </TTGlyph>
    <TTGlyph name="Z.sups" xMin="147" yMin="320" xMax="403" yMax="640">
      <contour>
        <pt x="403" y="640" on="1"/>
        <pt x="390" y="576" on="1"/>
        <pt x="378" y="512" on="1"/>
        <pt x="314" y="512" on="1"/>
        <pt x="326" y="576" on="1"/>
        <pt x="198" y="576" on="1"/>
        <pt x="211" y="640" on="1"/>
      </contour>
      <contour>
        <pt x="301" y="448" on="1"/>
        <pt x="237" y="448" on="1"/>
        <pt x="250" y="512" on="1"/>
        <pt x="314" y="512" on="1"/>
      </contour>
      <contour>
        <pt x="147" y="320" on="1"/>
        <pt x="173" y="448" on="1"/>
        <pt x="237" y="448" on="1"/>
        <pt x="224" y="384" on="1"/>
        <pt x="352" y="384" on="1"/>
        <pt x="339" y="320" on="1"/>
      </contour>
    </TTGlyph>
    <TTGlyph name="Zacute" xMin="5" yMin="0" xMax="482" yMax="844">
      <component glyphName="Z" x="0" y="0" flags="0x0"/>
      <component glyphName="acutecomb.case" x="448" y="0" flags="0x0"/>
    </TTGlyph>
    <TTGlyph name="Zcaron" xMin="5" yMin="0" xMax="476" yMax="788">
      <component glyphName="Z" x="0" y="0" flags="0x0"/>
      <component glyphName="uni030C.case" x="448" y="0" flags="0x0"/>
    </TTGlyph>
    <TTGlyph name="Zdotaccent" xMin="5" yMin="0" xMax="476" yMax="846">
      <component glyphName="Z" x="0" y="0" flags="0x0"/>
      <component glyphName="uni0307" x="486" y="192" flags="0x4"/>
    </TTGlyph>
    <TTGlyph name="Zeta" xMin="5" yMin="0" xMax="476" yMax="640">
      <component glyphName="Z" x="0" y="0" flags="0x0"/>
    </TTGlyph>
    <TTGlyph name="_part.slash.comp" xMin="69" yMin="148" xMax="398" yMax="390">
      <contour>
        <pt x="96" y="148" on="1"/>
        <pt x="69" y="200" on="1"/>
        <pt x="371" y="390" on="1"/>
        <pt x="398" y="338" on="1"/>
      </contour>
    </TTGlyph>
    <TTGlyph name="a" xMin="21" yMin="-4" xMax="403" yMax="454">
      <contour>
        <pt x="403" y="454" on="0"/>
        <pt x="403" y="342" on="1"/>
        <pt x="403" y="324" on="0"/>
        <pt x="398" y="296" on="1"/>
        <pt x="352" y="64" on="1"/>
        <pt x="342" y="0" on="1"/>
        <pt x="262" y="0" on="1"/>
        <pt x="263" y="48" on="1"/>
        <pt x="206" y="-4" on="0"/>
        <pt x="136" y="-4" on="1"/>
        <pt x="80" y="-4" on="0"/>
        <pt x="21" y="55" on="0"/>
        <pt x="21" y="103" on="1"/>
        <pt x="21" y="186" on="0"/>
        <pt x="170" y="270" on="0"/>
        <pt x="302" y="272" on="1"/>
        <pt x="305" y="289" on="1"/>
        <pt x="310" y="314" on="0"/>
        <pt x="310" y="328" on="1"/>
        <pt x="310" y="355" on="0"/>
        <pt x="279" y="377" on="0"/>
        <pt x="243" y="377" on="1"/>
        <pt x="188" y="377" on="0"/>
        <pt x="113" y="352" on="1"/>
        <pt x="102" y="423" on="1"/>
        <pt x="183" y="454" on="0"/>
        <pt x="261" y="454" on="1"/>
      </contour>
      <contour>
        <pt x="194" y="68" on="0"/>
        <pt x="245" y="104" on="0"/>
        <pt x="276" y="144" on="1"/>
        <pt x="289" y="207" on="1"/>
        <pt x="203" y="204" on="0"/>
        <pt x="117" y="155" on="0"/>
        <pt x="117" y="113" on="1"/>
        <pt x="117" y="68" on="0"/>
        <pt x="163" y="68" on="1"/>
      </contour>
    </TTGlyph>
    <TTGlyph name="aacute" xMin="21" yMin="-4" xMax="444" yMax="652">
      <component glyphName="a" x="0" y="0" flags="0x0"/>
      <component glyphName="acutecomb" x="448" y="0" flags="0x0"/>
    </TTGlyph>
    <TTGlyph name="abreve" xMin="21" yMin="-4" xMax="440" yMax="642">
      <component glyphName="a" x="0" y="0" flags="0x0"/>
      <component glyphName="uni0306" x="448" y="0" flags="0x0"/>
    </TTGlyph>
    <TTGlyph name="acircumflex" xMin="21" yMin="-4" xMax="428" yMax="650">
      <component glyphName="a" x="0" y="0" flags="0x0"/>
      <component glyphName="uni0302" x="448" y="0" flags="0x0"/>
    </TTGlyph>
    <TTGlyph name="acute" xMin="170" yMin="384" xMax="407" yMax="640">
      <contour>
        <pt x="407" y="640" on="1"/>
        <pt x="264" y="384" on="1"/>
        <pt x="170" y="384" on="1"/>
        <pt x="287" y="640" on="1"/>
      </contour>
    </TTGlyph>
    <TTGlyph name="acutecomb" xMin="-205" yMin="510" xMax="-4" yMax="652">
      <contour>
        <pt x="-127" y="510" on="1"/>
        <pt x="-205" y="510" on="1"/>
        <pt x="-138" y="652" on="1"/>
        <pt x="-4" y="652" on="1"/>
      </contour>
    </TTGlyph>
    <TTGlyph name="acutecomb.case" xMin="-167" yMin="702" xMax="34" yMax="844">
      <component glyphName="acutecomb" x="38" y="192" flags="0x4"/>
    </TTGlyph>
    <TTGlyph name="adieresis" xMin="21" yMin="-4" xMax="441" yMax="653">
      <component glyphName="a" x="0" y="0" flags="0x0"/>
      <component glyphName="uni0308" x="448" y="0" flags="0x0"/>
    </TTGlyph>
    <TTGlyph name="ae" xMin="-36" yMin="-9" xMax="478" yMax="457">
      <contour>
        <pt x="252" y="201" on="1"/>
        <pt x="243" y="153" on="0"/>
        <pt x="243" y="124" on="1"/>
        <pt x="243" y="86" on="0"/>
        <pt x="272" y="55" on="0"/>
        <pt x="305" y="55" on="1"/>
        <pt x="342" y="55" on="0"/>
        <pt x="396" y="73" on="1"/>
        <pt x="406" y="13" on="1"/>
        <pt x="352" y="-9" on="0"/>
        <pt x="298" y="-9" on="1"/>
        <pt x="221" y="-9" on="0"/>
        <pt x="190" y="46" on="1"/>
        <pt x="157" y="20" on="0"/>
        <pt x="95" y="-8" on="0"/>
        <pt x="62" y="-8" on="1"/>
        <pt x="16" y="-8" on="0"/>
        <pt x="-36" y="41" on="0"/>
        <pt x="-36" y="88" on="1"/>
        <pt x="-36" y="108" on="0"/>
        <pt x="-32" y="128" on="1"/>
        <pt x="-19" y="192" on="0"/>
        <pt x="83" y="260" on="0"/>
        <pt x="189" y="264" on="1"/>
        <pt x="194" y="288" on="1"/>
        <pt x="200" y="318" on="0"/>
        <pt x="200" y="338" on="1"/>
        <pt x="200" y="365" on="0"/>
        <pt x="175" y="388" on="0"/>
        <pt x="148" y="388" on="1"/>
        <pt x="106" y="388" on="0"/>
        <pt x="50" y="367" on="1"/>
        <pt x="37" y="427" on="1"/>
        <pt x="104" y="453" on="0"/>
        <pt x="154" y="453" on="1"/>
        <pt x="236" y="453" on="0"/>
        <pt x="255" y="394" on="1"/>
        <pt x="302" y="457" on="0"/>
        <pt x="371" y="457" on="1"/>
        <pt x="478" y="457" on="0"/>
        <pt x="478" y="335" on="1"/>
        <pt x="478" y="281" on="0"/>
        <pt x="456" y="198" on="1"/>
      </contour>
      <contour>
        <pt x="331" y="393" on="0"/>
        <pt x="283" y="332" on="0"/>
        <pt x="265" y="263" on="1"/>
        <pt x="394" y="263" on="1"/>
        <pt x="405" y="315" on="0"/>
        <pt x="405" y="342" on="1"/>
        <pt x="405" y="368" on="0"/>
        <pt x="386" y="393" on="0"/>
        <pt x="365" y="393" on="1"/>
      </contour>
      <contour>
        <pt x="114" y="56" on="0"/>
        <pt x="172" y="105" on="1"/>
        <pt x="170" y="125" on="0"/>
        <pt x="170" y="138" on="1"/>
        <pt x="170" y="169" on="0"/>
        <pt x="176" y="202" on="1"/>
        <pt x="110" y="198" on="0"/>
        <pt x="47" y="154" on="0"/>
        <pt x="39" y="116" on="1"/>
        <pt x="37" y="100" on="0"/>
        <pt x="37" y="96" on="1"/>
        <pt x="37" y="56" on="0"/>
        <pt x="74" y="56" on="1"/>
      </contour>
    </TTGlyph>
    <TTGlyph name="aeacute" xMin="-36" yMin="-9" xMax="478" yMax="652">
      <component glyphName="ae" x="0" y="0" flags="0x0"/>
      <component glyphName="acutecomb" x="448" y="0" flags="0x0"/>
    </TTGlyph>
    <TTGlyph name="agrave" xMin="21" yMin="-4" xMax="403" yMax="640">
      <component glyphName="a" x="0" y="0" flags="0x0"/>
      <component glyphName="gravecomb" x="448" y="0" flags="0x0"/>
    </TTGlyph>
    <TTGlyph name="alpha" xMin="41" yMin="-8" xMax="445" yMax="456">
      <contour>
        <pt x="445" y="446" on="1"/>
        <pt x="419" y="354" on="1"/>
        <pt x="400" y="285" on="0"/>
        <pt x="373" y="219" on="1"/>
        <pt x="374" y="165" on="0"/>
        <pt x="365" y="88" on="1"/>
        <pt x="355" y="2" on="1"/>
        <pt x="283" y="-3" on="1"/>
        <pt x="296" y="80" on="1"/>
        <pt x="229" y="-8" on="0"/>
        <pt x="154" y="-8" on="1"/>
        <pt x="95" y="-8" on="0"/>
        <pt x="41" y="67" on="0"/>
        <pt x="41" y="133" on="1"/>
        <pt x="41" y="175" on="0"/>
        <pt x="52" y="228" on="1"/>
        <pt x="97" y="456" on="0"/>
        <pt x="235" y="456" on="1"/>
        <pt x="275" y="456" on="0"/>
        <pt x="334" y="408" on="0"/>
        <pt x="351" y="360" on="1"/>
        <pt x="373" y="451" on="1"/>
      </contour>
      <contour>
        <pt x="199" y="56" on="0"/>
        <pt x="282" y="146" on="0"/>
        <pt x="314" y="230" on="1"/>
        <pt x="316" y="309" on="0"/>
        <pt x="273" y="392" on="0"/>
        <pt x="239" y="392" on="1"/>
        <pt x="200" y="392" on="0"/>
        <pt x="147" y="315" on="0"/>
        <pt x="128" y="221" on="1"/>
        <pt x="115" y="150" on="0"/>
        <pt x="115" y="120" on="1"/>
        <pt x="115" y="85" on="0"/>
        <pt x="137" y="56" on="0"/>
        <pt x="160" y="56" on="1"/>
      </contour>
    </TTGlyph>
    <TTGlyph name="alphatonos" xMin="41" yMin="-8" xMax="445" yMax="704">
      <component glyphName="alpha" x="0" y="0" flags="0x0"/>
      <component glyphName="tonos" x="0" y="0" flags="0x0"/>
    </TTGlyph>
    <TTGlyph name="amacron" xMin="21" yMin="-4" xMax="432" yMax="640">
      <component glyphName="a" x="0" y="0" flags="0x0"/>
      <component glyphName="uni0304" x="448" y="0" flags="0x0"/>
    </TTGlyph>
    <TTGlyph name="ampersand" xMin="12" yMin="-10" xMax="453" yMax="542">
      <contour>
        <pt x="453" y="324" on="1"/>
        <pt x="439" y="252" on="1"/>
        <pt x="379" y="252" on="1"/>
        <pt x="335" y="17" on="1"/>
        <pt x="294" y="4" on="0"/>
        <pt x="202" y="-10" on="0"/>
        <pt x="167" y="-10" on="1"/>
        <pt x="86" y="-10" on="0"/>
        <pt x="12" y="59" on="0"/>
        <pt x="12" y="115" on="1"/>
        <pt x="12" y="136" on="0"/>
        <pt x="16" y="155" on="1"/>
        <pt x="24" y="194" on="0"/>
        <pt x="78" y="266" on="0"/>
        <pt x="129" y="290" on="1"/>
        <pt x="79" y="319" on="0"/>
        <pt x="79" y="379" on="1"/>
        <pt x="79" y="393" on="0"/>
        <pt x="82" y="408" on="1"/>
        <pt x="94" y="468" on="0"/>
        <pt x="193" y="542" on="0"/>
        <pt x="274" y="542" on="1"/>
        <pt x="329" y="542" on="0"/>
        <pt x="385" y="527" on="1"/>
        <pt x="363" y="461" on="1"/>
        <pt x="316" y="470" on="0"/>
        <pt x="279" y="470" on="1"/>
        <pt x="230" y="470" on="0"/>
        <pt x="177" y="424" on="0"/>
        <pt x="170" y="390" on="1"/>
        <pt x="168" y="378" on="0"/>
        <pt x="168" y="373" on="1"/>
        <pt x="168" y="324" on="0"/>
        <pt x="255" y="324" on="1"/>
      </contour>
      <contour>
        <pt x="287" y="252" on="1"/>
        <pt x="258" y="252" on="1"/>
        <pt x="177" y="252" on="0"/>
        <pt x="104" y="169" on="0"/>
        <pt x="104" y="115" on="1"/>
        <pt x="104" y="62" on="0"/>
        <pt x="169" y="62" on="1"/>
        <pt x="209" y="62" on="0"/>
        <pt x="251" y="71" on="1"/>
      </contour>
    </TTGlyph>
    <TTGlyph name="angle" xMin="32" yMin="64" xMax="371" yMax="522">
      <contour>
        <pt x="365" y="128" on="1"/>
        <pt x="352" y="64" on="1"/>
        <pt x="32" y="64" on="1"/>
        <pt x="44" y="128" on="1"/>
        <pt x="316" y="522" on="1"/>
        <pt x="371" y="494" on="1"/>
        <pt x="118" y="128" on="1"/>
      </contour>
    </TTGlyph>
    <TTGlyph name="anoteleia" xMin="118" yMin="192" xMax="267" yMax="340">
      <component glyphName="period" x="32" y="202" flags="0x4"/>
    </TTGlyph>
    <TTGlyph name="aogonek" xMin="21" yMin="-197" xMax="403" yMax="454">
      <contour>
        <pt x="403" y="454" on="0"/>
        <pt x="403" y="342" on="1"/>
        <pt x="403" y="324" on="0"/>
        <pt x="398" y="296" on="1"/>
        <pt x="352" y="64" on="1"/>
        <pt x="342" y="0" on="1"/>
        <pt x="302" y="-36" on="0"/>
        <pt x="258" y="-90" on="0"/>
        <pt x="253" y="-116" on="1"/>
        <pt x="252" y="-120" on="0"/>
        <pt x="252" y="-125" on="1"/>
        <pt x="252" y="-132" on="0"/>
        <pt x="261" y="-136" on="0"/>
        <pt x="270" y="-136" on="1"/>
        <pt x="289" y="-136" on="0"/>
        <pt x="309" y="-127" on="1"/>
        <pt x="320" y="-183" on="1"/>
        <pt x="293" y="-197" on="0"/>
        <pt x="257" y="-197" on="1"/>
        <pt x="220" y="-197" on="0"/>
        <pt x="182" y="-164" on="0"/>
        <pt x="182" y="-133" on="1"/>
        <pt x="182" y="-126" on="0"/>
        <pt x="184" y="-112" on="1"/>
        <pt x="194" y="-58" on="0"/>
        <pt x="268" y="0" on="1"/>
        <pt x="262" y="0" on="1"/>
        <pt x="263" y="48" on="1"/>
        <pt x="206" y="-4" on="0"/>
        <pt x="136" y="-4" on="1"/>
        <pt x="80" y="-4" on="0"/>
        <pt x="21" y="55" on="0"/>
        <pt x="21" y="103" on="1"/>
        <pt x="21" y="186" on="0"/>
        <pt x="170" y="270" on="0"/>
        <pt x="302" y="272" on="1"/>
        <pt x="305" y="289" on="1"/>
        <pt x="310" y="314" on="0"/>
        <pt x="310" y="328" on="1"/>
        <pt x="310" y="355" on="0"/>
        <pt x="279" y="377" on="0"/>
        <pt x="243" y="377" on="1"/>
        <pt x="188" y="377" on="0"/>
        <pt x="113" y="352" on="1"/>
        <pt x="102" y="423" on="1"/>
        <pt x="183" y="454" on="0"/>
        <pt x="261" y="454" on="1"/>
      </contour>
      <contour>
        <pt x="194" y="68" on="0"/>
        <pt x="245" y="104" on="0"/>
        <pt x="276" y="144" on="1"/>
        <pt x="289" y="207" on="1"/>
        <pt x="203" y="204" on="0"/>
        <pt x="117" y="155" on="0"/>
        <pt x="117" y="113" on="1"/>
        <pt x="117" y="68" on="0"/>
        <pt x="163" y="68" on="1"/>
      </contour>
    </TTGlyph>
    <TTGlyph name="approxequal" xMin="32" yMin="64" xMax="429" yMax="448">
      <contour>
        <pt x="173" y="448" on="1"/>
        <pt x="237" y="448" on="1"/>
        <pt x="224" y="384" on="1"/>
        <pt x="160" y="384" on="1"/>
      </contour>
      <contour>
        <pt x="365" y="448" on="1"/>
        <pt x="429" y="448" on="1"/>
        <pt x="403" y="320" on="1"/>
        <pt x="339" y="320" on="1"/>
      </contour>
      <contour>
        <pt x="96" y="384" on="1"/>
        <pt x="160" y="384" on="1"/>
        <pt x="134" y="256" on="1"/>
        <pt x="70" y="256" on="1"/>
      </contour>
      <contour>
        <pt x="288" y="384" on="1"/>
        <pt x="275" y="320" on="1"/>
        <pt x="211" y="320" on="1"/>
        <pt x="224" y="384" on="1"/>
      </contour>
      <contour>
        <pt x="326" y="256" on="1"/>
        <pt x="262" y="256" on="1"/>
        <pt x="275" y="320" on="1"/>
        <pt x="339" y="320" on="1"/>
      </contour>
      <contour>
        <pt x="122" y="192" on="1"/>
        <pt x="134" y="256" on="1"/>
        <pt x="198" y="256" on="1"/>
        <pt x="186" y="192" on="1"/>
      </contour>
      <contour>
        <pt x="365" y="128" on="1"/>
        <pt x="301" y="128" on="1"/>
        <pt x="314" y="192" on="1"/>
        <pt x="326" y="256" on="1"/>
        <pt x="390" y="256" on="1"/>
        <pt x="378" y="192" on="1"/>
      </contour>
      <contour>
        <pt x="32" y="64" on="1"/>
        <pt x="58" y="192" on="1"/>
        <pt x="122" y="192" on="1"/>
        <pt x="96" y="64" on="1"/>
      </contour>
      <contour>
        <pt x="173" y="128" on="1"/>
        <pt x="186" y="192" on="1"/>
        <pt x="250" y="192" on="1"/>
        <pt x="237" y="128" on="1"/>
      </contour>
      <contour>
        <pt x="288" y="64" on="1"/>
        <pt x="224" y="64" on="1"/>
        <pt x="237" y="128" on="1"/>
        <pt x="301" y="128" on="1"/>
      </contour>
    </TTGlyph>
    <TTGlyph name="aring" xMin="21" yMin="-4" xMax="416" yMax="702">
      <component glyphName="a" x="0" y="0" flags="0x0"/>
      <component glyphName="uni030A" x="448" y="0" flags="0x0"/>
    </TTGlyph>
    <TTGlyph name="aringacute" xMin="21" yMin="-4" xMax="489" yMax="876">
      <component glyphName="a" x="0" y="0" flags="0x0"/>
      <component glyphName="uni030A" x="448" y="0" flags="0x0"/>
      <component glyphName="acutecomb" x="493" y="224" flags="0x4"/>
    </TTGlyph>
    <TTGlyph name="arrowboth" xMin="-14" yMin="54" xMax="462" yMax="394">
      <contour>
        <pt x="343" y="192" on="1"/>
        <pt x="91" y="192" on="1"/>
        <pt x="182" y="98" on="1"/>
        <pt x="137" y="54" on="1"/>
        <pt x="-14" y="202" on="1"/>
        <pt x="-7" y="246" on="1"/>
        <pt x="201" y="394" on="1"/>
        <pt x="232" y="350" on="1"/>
        <pt x="105" y="256" on="1"/>
        <pt x="357" y="256" on="1"/>
        <pt x="266" y="350" on="1"/>
        <pt x="311" y="394" on="1"/>
        <pt x="462" y="246" on="1"/>
        <pt x="455" y="202" on="1"/>
        <pt x="247" y="54" on="1"/>
        <pt x="216" y="98" on="1"/>
      </contour>
    </TTGlyph>
    <TTGlyph name="arrowdown" xMin="56" yMin="54" xMax="396" yMax="512">
      <contour>
        <pt x="179" y="162" on="1"/>
        <pt x="250" y="512" on="1"/>
        <pt x="314" y="512" on="1"/>
        <pt x="243" y="162" on="1"/>
        <pt x="358" y="271" on="1"/>
        <pt x="396" y="233" on="1"/>
        <pt x="213" y="54" on="1"/>
        <pt x="169" y="54" on="1"/>
        <pt x="56" y="233" on="1"/>
        <pt x="106" y="271" on="1"/>
      </contour>
    </TTGlyph>
    <TTGlyph name="arrowleft" xMin="-14" yMin="54" xMax="454" yMax="394">
      <contour>
        <pt x="442" y="192" on="1"/>
        <pt x="91" y="192" on="1"/>
        <pt x="182" y="98" on="1"/>
        <pt x="137" y="54" on="1"/>
        <pt x="-14" y="202" on="1"/>
        <pt x="-7" y="246" on="1"/>
        <pt x="201" y="394" on="1"/>
        <pt x="232" y="350" on="1"/>
        <pt x="105" y="256" on="1"/>
        <pt x="454" y="256" on="1"/>
      </contour>
    </TTGlyph>
    <TTGlyph name="arrowright" xMin="-6" yMin="54" xMax="462" yMax="394">
      <contour>
        <pt x="343" y="192" on="1"/>
        <pt x="-6" y="192" on="1"/>
        <pt x="6" y="256" on="1"/>
        <pt x="357" y="256" on="1"/>
        <pt x="266" y="350" on="1"/>
        <pt x="311" y="394" on="1"/>
        <pt x="462" y="246" on="1"/>
        <pt x="455" y="202" on="1"/>
        <pt x="247" y="54" on="1"/>
        <pt x="216" y="98" on="1"/>
      </contour>
    </TTGlyph>
    <TTGlyph name="arrowup" xMin="78" yMin="64" xMax="418" yMax="522">
      <contour>
        <pt x="160" y="64" on="1"/>
        <pt x="231" y="414" on="1"/>
        <pt x="116" y="305" on="1"/>
        <pt x="78" y="343" on="1"/>
        <pt x="261" y="522" on="1"/>
        <pt x="305" y="522" on="1"/>
        <pt x="418" y="343" on="1"/>
        <pt x="368" y="305" on="1"/>
        <pt x="295" y="414" on="1"/>
        <pt x="224" y="64" on="1"/>
      </contour>
    </TTGlyph>
    <TTGlyph name="arrowupdn" xMin="56" yMin="54" xMax="418" yMax="522">
      <contour>
        <pt x="179" y="162" on="1"/>
        <pt x="231" y="414" on="1"/>
        <pt x="116" y="305" on="1"/>
        <pt x="78" y="343" on="1"/>
        <pt x="261" y="522" on="1"/>
        <pt x="305" y="522" on="1"/>
        <pt x="418" y="343" on="1"/>
        <pt x="368" y="305" on="1"/>
        <pt x="295" y="414" on="1"/>
        <pt x="243" y="162" on="1"/>
        <pt x="358" y="271" on="1"/>
        <pt x="396" y="233" on="1"/>
        <pt x="213" y="54" on="1"/>
        <pt x="169" y="54" on="1"/>
        <pt x="56" y="233" on="1"/>
        <pt x="106" y="271" on="1"/>
      </contour>
    </TTGlyph>
    <TTGlyph name="arrowupdnbse" xMin="56" yMin="0" xMax="418" yMax="522">
      <contour>
        <pt x="243" y="162" on="1"/>
        <pt x="358" y="271" on="1"/>
        <pt x="396" y="233" on="1"/>
        <pt x="223" y="64" on="1"/>
        <pt x="384" y="64" on="1"/>
        <pt x="384" y="0" on="1"/>
        <pt x="64" y="0" on="1"/>
        <pt x="64" y="64" on="1"/>
        <pt x="163" y="64" on="1"/>
        <pt x="56" y="233" on="1"/>
        <pt x="106" y="271" on="1"/>
        <pt x="179" y="162" on="1"/>
        <pt x="231" y="414" on="1"/>
        <pt x="116" y="305" on="1"/>
        <pt x="78" y="343" on="1"/>
        <pt x="261" y="522" on="1"/>
        <pt x="305" y="522" on="1"/>
        <pt x="418" y="343" on="1"/>
        <pt x="368" y="305" on="1"/>
        <pt x="295" y="414" on="1"/>
      </contour>
    </TTGlyph>
    <TTGlyph name="asciicircum" xMin="36" yMin="192" xMax="398" yMax="566">
      <contour>
        <pt x="340" y="566" on="1"/>
        <pt x="398" y="192" on="1"/>
        <pt x="303" y="192" on="1"/>
        <pt x="272" y="459" on="1"/>
        <pt x="133" y="192" on="1"/>
        <pt x="36" y="192" on="1"/>
        <pt x="244" y="566" on="1"/>
      </contour>
    </TTGlyph>
    <TTGlyph name="asciitilde" xMin="-10" yMin="190" xMax="483" yMax="386">
      <contour>
        <pt x="283" y="190" on="0"/>
        <pt x="238" y="211" on="0"/>
        <pt x="214" y="239" on="0"/>
        <pt x="201" y="262" on="1"/>
        <pt x="188" y="284" on="0"/>
        <pt x="168" y="305" on="0"/>
        <pt x="149" y="305" on="1"/>
        <pt x="116" y="305" on="0"/>
        <pt x="77" y="254" on="0"/>
        <pt x="61" y="197" on="1"/>
        <pt x="-10" y="209" on="1"/>
        <pt x="13" y="300" on="0"/>
        <pt x="88" y="386" on="0"/>
        <pt x="154" y="386" on="1"/>
        <pt x="190" y="386" on="0"/>
        <pt x="236" y="365" on="0"/>
        <pt x="260" y="337" on="0"/>
        <pt x="273" y="314" on="1"/>
        <pt x="286" y="292" on="0"/>
        <pt x="306" y="271" on="0"/>
        <pt x="325" y="271" on="1"/>
        <pt x="358" y="271" on="0"/>
        <pt x="397" y="323" on="0"/>
        <pt x="413" y="380" on="1"/>
        <pt x="483" y="369" on="1"/>
        <pt x="461" y="277" on="0"/>
        <pt x="386" y="190" on="0"/>
        <pt x="319" y="190" on="1"/>
      </contour>
    </TTGlyph>
    <TTGlyph name="asterisk" xMin="19" yMin="69" xMax="455" yMax="507">
      <contour>
        <pt x="408" y="464" on="1"/>
        <pt x="455" y="394" on="1"/>
        <pt x="293" y="287" on="1"/>
        <pt x="413" y="183" on="1"/>
        <pt x="342" y="112" on="1"/>
        <pt x="259" y="207" on="1"/>
        <pt x="239" y="69" on="1"/>
        <pt x="147" y="69" on="1"/>
        <pt x="182" y="205" on="1"/>
        <pt x="67" y="113" on="1"/>
        <pt x="19" y="183" on="1"/>
        <pt x="182" y="289" on="1"/>
        <pt x="61" y="394" on="1"/>
        <pt x="133" y="464" on="1"/>
        <pt x="216" y="369" on="1"/>
        <pt x="235" y="507" on="1"/>
        <pt x="327" y="507" on="1"/>
        <pt x="292" y="371" on="1"/>
      </contour>
    </TTGlyph>
    <TTGlyph name="at" xMin="20" yMin="-128" xMax="436" yMax="586">
      <contour>
        <pt x="368" y="586" on="0"/>
        <pt x="436" y="511" on="0"/>
        <pt x="436" y="444" on="1"/>
        <pt x="436" y="411" on="0"/>
        <pt x="429" y="377" on="1"/>
        <pt x="370" y="69" on="1"/>
        <pt x="337" y="60" on="0"/>
        <pt x="284" y="60" on="1"/>
        <pt x="224" y="60" on="0"/>
        <pt x="159" y="121" on="0"/>
        <pt x="159" y="178" on="1"/>
        <pt x="159" y="198" on="0"/>
        <pt x="164" y="226" on="1"/>
        <pt x="178" y="295" on="0"/>
        <pt x="262" y="377" on="0"/>
        <pt x="340" y="392" on="1"/>
        <pt x="347" y="434" on="0"/>
        <pt x="347" y="454" on="1"/>
        <pt x="347" y="486" on="0"/>
        <pt x="323" y="515" on="0"/>
        <pt x="295" y="515" on="1"/>
        <pt x="255" y="515" on="0"/>
        <pt x="197" y="455" on="0"/>
        <pt x="150" y="325" on="0"/>
        <pt x="129" y="216" on="1"/>
        <pt x="108" y="111" on="0"/>
        <pt x="108" y="52" on="1"/>
        <pt x="108" y="-7" on="0"/>
        <pt x="149" y="-56" on="0"/>
        <pt x="192" y="-56" on="1"/>
        <pt x="230" y="-56" on="0"/>
        <pt x="282" y="-43" on="1"/>
        <pt x="292" y="-107" on="1"/>
        <pt x="240" y="-128" on="0"/>
        <pt x="180" y="-128" on="1"/>
        <pt x="98" y="-128" on="0"/>
        <pt x="20" y="-36" on="0"/>
        <pt x="20" y="61" on="1"/>
        <pt x="20" y="129" on="0"/>
        <pt x="40" y="231" on="1"/>
        <pt x="76" y="414" on="0"/>
        <pt x="197" y="586" on="0"/>
        <pt x="300" y="586" on="1"/>
      </contour>
      <contour>
        <pt x="250" y="186" on="0"/>
        <pt x="250" y="172" on="1"/>
        <pt x="250" y="152" on="0"/>
        <pt x="267" y="133" on="0"/>
        <pt x="286" y="134" on="1"/>
        <pt x="324" y="314" on="1"/>
        <pt x="294" y="302" on="0"/>
        <pt x="264" y="255" on="0"/>
        <pt x="255" y="213" on="1"/>
      </contour>
    </TTGlyph>
    <TTGlyph name="atilde" xMin="21" yMin="-4" xMax="465" yMax="648">
      <component glyphName="a" x="0" y="0" flags="0x0"/>
      <component glyphName="tildecomb" x="448" y="0" flags="0x0"/>
    </TTGlyph>
    <TTGlyph name="b" xMin="8" yMin="-8" xMax="410" yMax="640">
      <contour>
        <pt x="343" y="456" on="0"/>
        <pt x="410" y="377" on="0"/>
        <pt x="410" y="303" on="1"/>
        <pt x="410" y="265" on="0"/>
        <pt x="401" y="217" on="1"/>
        <pt x="379" y="107" on="0"/>
        <pt x="274" y="-8" on="0"/>
        <pt x="198" y="-8" on="1"/>
        <pt x="130" y="-8" on="0"/>
        <pt x="97" y="37" on="1"/>
        <pt x="84" y="0" on="1"/>
        <pt x="8" y="0" on="1"/>
        <pt x="23" y="65" on="1"/>
        <pt x="138" y="640" on="1"/>
        <pt x="230" y="640" on="1"/>
        <pt x="187" y="426" on="1"/>
        <pt x="228" y="456" on="0"/>
        <pt x="282" y="456" on="1"/>
      </contour>
      <contour>
        <pt x="317" y="290" on="0"/>
        <pt x="317" y="319" on="1"/>
        <pt x="317" y="354" on="0"/>
        <pt x="291" y="383" on="0"/>
        <pt x="263" y="383" on="1"/>
        <pt x="210" y="383" on="0"/>
        <pt x="170" y="339" on="1"/>
        <pt x="123" y="100" on="1"/>
        <pt x="143" y="64" on="0"/>
        <pt x="188" y="64" on="1"/>
        <pt x="232" y="64" on="0"/>
        <pt x="287" y="139" on="0"/>
        <pt x="306" y="232" on="1"/>
      </contour>
    </TTGlyph>
    <TTGlyph name="backslash" xMin="190" yMin="-69" xMax="297" yMax="710">
      <contour>
        <pt x="297" y="710" on="1"/>
        <pt x="282" y="-57" on="1"/>
        <pt x="190" y="-69" on="1"/>
        <pt x="204" y="698" on="1"/>
      </contour>
    </TTGlyph>
    <TTGlyph name="bar" xMin="123" yMin="-64" xMax="364" yMax="704">
      <contour>
        <pt x="364" y="704" on="1"/>
        <pt x="211" y="-64" on="1"/>
        <pt x="123" y="-64" on="1"/>
        <pt x="276" y="704" on="1"/>
      </contour>
    </TTGlyph>
    <TTGlyph name="beta" xMin="-19" yMin="-192" xMax="454" yMax="640">
      <contour>
        <pt x="390" y="576" on="1"/>
        <pt x="198" y="576" on="1"/>
        <pt x="211" y="640" on="1"/>
        <pt x="403" y="640" on="1"/>
      </contour>
      <contour>
        <pt x="122" y="192" on="1"/>
        <pt x="109" y="128" on="1"/>
        <pt x="173" y="128" on="1"/>
        <pt x="160" y="64" on="1"/>
        <pt x="96" y="64" on="1"/>
        <pt x="70" y="-64" on="1"/>
        <pt x="58" y="-128" on="1"/>
        <pt x="45" y="-192" on="1"/>
        <pt x="-19" y="-192" on="1"/>
        <pt x="-6" y="-128" on="1"/>
        <pt x="6" y="-64" on="1"/>
        <pt x="58" y="192" on="1"/>
        <pt x="70" y="256" on="1"/>
        <pt x="122" y="512" on="1"/>
        <pt x="134" y="576" on="1"/>
        <pt x="198" y="576" on="1"/>
        <pt x="186" y="512" on="1"/>
        <pt x="134" y="256" on="1"/>
      </contour>
      <contour>
        <pt x="378" y="512" on="1"/>
        <pt x="390" y="576" on="1"/>
        <pt x="454" y="576" on="1"/>
        <pt x="442" y="512" on="1"/>
        <pt x="416" y="384" on="1"/>
        <pt x="352" y="384" on="1"/>
      </contour>
      <contour>
        <pt x="211" y="320" on="1"/>
        <pt x="224" y="384" on="1"/>
        <pt x="352" y="384" on="1"/>
        <pt x="339" y="320" on="1"/>
      </contour>
      <contour>
        <pt x="314" y="192" on="1"/>
        <pt x="326" y="256" on="1"/>
        <pt x="339" y="320" on="1"/>
        <pt x="403" y="320" on="1"/>
        <pt x="390" y="256" on="1"/>
        <pt x="378" y="192" on="1"/>
        <pt x="352" y="64" on="1"/>
        <pt x="288" y="64" on="1"/>
      </contour>
      <contour>
        <pt x="147" y="0" on="1"/>
        <pt x="160" y="64" on="1"/>
        <pt x="288" y="64" on="1"/>
        <pt x="275" y="0" on="1"/>
      </contour>
    </TTGlyph>
    <TTGlyph name="block" xMin="-83" yMin="-192" xMax="570" yMax="832">
      <contour>
        <pt x="570" y="832" on="1"/>
        <pt x="365" y="-192" on="1"/>
        <pt x="-83" y="-192" on="1"/>
        <pt x="122" y="832" on="1"/>
      </contour>
    </TTGlyph>
    <TTGlyph name="braceleft" xMin="92" yMin="-64" xMax="442" yMax="704">
      <contour>
        <pt x="292" y="-64" on="1"/>
        <pt x="206" y="-54" on="0"/>
        <pt x="115" y="-4" on="0"/>
        <pt x="115" y="51" on="1"/>
        <pt x="115" y="67" on="0"/>
        <pt x="124" y="101" on="0"/>
        <pt x="133" y="124" on="1"/>
        <pt x="149" y="171" on="0"/>
        <pt x="154" y="196" on="1"/>
        <pt x="156" y="210" on="0"/>
        <pt x="156" y="215" on="1"/>
        <pt x="156" y="239" on="0"/>
        <pt x="126" y="266" on="0"/>
        <pt x="92" y="272" on="1"/>
        <pt x="106" y="369" on="1"/>
        <pt x="191" y="383" on="0"/>
        <pt x="206" y="459" on="1"/>
        <pt x="210" y="476" on="0"/>
        <pt x="212" y="513" on="0"/>
        <pt x="212" y="518" on="1"/>
        <pt x="214" y="555" on="0"/>
        <pt x="218" y="576" on="1"/>
        <pt x="230" y="640" on="0"/>
        <pt x="338" y="693" on="0"/>
        <pt x="439" y="704" on="1"/>
        <pt x="442" y="638" on="1"/>
        <pt x="370" y="625" on="0"/>
        <pt x="309" y="590" on="0"/>
        <pt x="301" y="552" on="1"/>
        <pt x="299" y="541" on="0"/>
        <pt x="297" y="513" on="0"/>
        <pt x="297" y="508" on="1"/>
        <pt x="297" y="469" on="0"/>
        <pt x="290" y="435" on="1"/>
        <pt x="279" y="384" on="0"/>
        <pt x="222" y="332" on="0"/>
        <pt x="169" y="318" on="1"/>
        <pt x="206" y="305" on="0"/>
        <pt x="244" y="263" on="0"/>
        <pt x="244" y="227" on="1"/>
        <pt x="244" y="209" on="0"/>
        <pt x="240" y="190" on="1"/>
        <pt x="235" y="161" on="0"/>
        <pt x="221" y="128" on="1"/>
        <pt x="209" y="92" on="0"/>
        <pt x="205" y="74" on="1"/>
        <pt x="203" y="64" on="0"/>
        <pt x="203" y="59" on="1"/>
        <pt x="203" y="35" on="0"/>
        <pt x="249" y="11" on="0"/>
        <pt x="309" y="0" on="1"/>
      </contour>
    </TTGlyph>
    <TTGlyph name="braceright" xMin="45" yMin="-64" xMax="395" yMax="704">
      <contour>
        <pt x="45" y="2" on="1"/>
        <pt x="117" y="15" on="0"/>
        <pt x="178" y="50" on="0"/>
        <pt x="186" y="89" on="1"/>
        <pt x="188" y="100" on="0"/>
        <pt x="190" y="127" on="0"/>
        <pt x="190" y="132" on="1"/>
        <pt x="190" y="171" on="0"/>
        <pt x="197" y="205" on="1"/>
        <pt x="207" y="256" on="0"/>
        <pt x="265" y="308" on="0"/>
        <pt x="317" y="323" on="1"/>
        <pt x="280" y="336" on="0"/>
        <pt x="242" y="378" on="0"/>
        <pt x="242" y="414" on="1"/>
        <pt x="242" y="433" on="0"/>
        <pt x="246" y="450" on="1"/>
        <pt x="253" y="482" on="0"/>
        <pt x="264" y="511" on="1"/>
        <pt x="276" y="542" on="0"/>
        <pt x="281" y="567" on="1"/>
        <pt x="283" y="579" on="0"/>
        <pt x="283" y="583" on="1"/>
        <pt x="283" y="606" on="0"/>
        <pt x="237" y="629" on="0"/>
        <pt x="177" y="640" on="1"/>
        <pt x="195" y="704" on="1"/>
        <pt x="281" y="694" on="0"/>
        <pt x="371" y="644" on="0"/>
        <pt x="371" y="590" on="1"/>
        <pt x="371" y="576" on="0"/>
        <pt x="368" y="561" on="1"/>
        <pt x="364" y="538" on="0"/>
        <pt x="353" y="512" on="1"/>
        <pt x="337" y="467" on="0"/>
        <pt x="333" y="444" on="1"/>
        <pt x="331" y="430" on="0"/>
        <pt x="331" y="424" on="1"/>
        <pt x="331" y="401" on="0"/>
        <pt x="362" y="374" on="0"/>
        <pt x="395" y="368" on="1"/>
        <pt x="381" y="271" on="1"/>
        <pt x="295" y="257" on="0"/>
        <pt x="280" y="181" on="1"/>
        <pt x="275" y="156" on="0"/>
        <pt x="275" y="123" on="1"/>
        <pt x="273" y="86" on="0"/>
        <pt x="269" y="65" on="1"/>
        <pt x="256" y="0" on="0"/>
        <pt x="148" y="-53" on="0"/>
        <pt x="47" y="-64" on="1"/>
      </contour>
    </TTGlyph>
    <TTGlyph name="bracketleft" xMin="76" yMin="-64" xMax="446" yMax="704">
      <contour>
        <pt x="446" y="704" on="1"/>
        <pt x="432" y="632" on="1"/>
        <pt x="308" y="632" on="1"/>
        <pt x="183" y="8" on="1"/>
        <pt x="307" y="8" on="1"/>
        <pt x="292" y="-64" on="1"/>
        <pt x="76" y="-64" on="1"/>
        <pt x="230" y="704" on="1"/>
      </contour>
    </TTGlyph>
    <TTGlyph name="bracketright" xMin="40" yMin="-64" xMax="410" yMax="704">
      <contour>
        <pt x="410" y="704" on="1"/>
        <pt x="256" y="-64" on="1"/>
        <pt x="40" y="-64" on="1"/>
        <pt x="55" y="8" on="1"/>
        <pt x="179" y="8" on="1"/>
        <pt x="304" y="632" on="1"/>
        <pt x="180" y="632" on="1"/>
        <pt x="194" y="704" on="1"/>
      </contour>
    </TTGlyph>
    <TTGlyph name="breve" xMin="171" yMin="506" xMax="440" yMax="642">
      <component glyphName="uni0306" x="448" y="0" flags="0x0"/>
    </TTGlyph>
    <TTGlyph name="brokenbar" xMin="97" yMin="-192" xMax="364" yMax="704">
      <contour>
        <pt x="364" y="704" on="1"/>
        <pt x="287" y="320" on="1"/>
        <pt x="199" y="320" on="1"/>
        <pt x="276" y="704" on="1"/>
      </contour>
      <contour>
        <pt x="262" y="192" on="1"/>
        <pt x="185" y="-192" on="1"/>
        <pt x="97" y="-192" on="1"/>
        <pt x="174" y="192" on="1"/>
      </contour>
    </TTGlyph>
    <TTGlyph name="bullet" xMin="111" yMin="110" xMax="337" yMax="338">
      <contour>
        <pt x="285" y="338" on="0"/>
        <pt x="337" y="285" on="0"/>
        <pt x="337" y="242" on="1"/>
        <pt x="337" y="206" on="0"/>
        <pt x="301" y="146" on="0"/>
        <pt x="241" y="110" on="0"/>
        <pt x="207" y="110" on="1"/>
        <pt x="164" y="110" on="0"/>
        <pt x="111" y="164" on="0"/>
        <pt x="111" y="206" on="1"/>
        <pt x="111" y="241" on="0"/>
        <pt x="147" y="302" on="0"/>
        <pt x="207" y="338" on="0"/>
        <pt x="241" y="338" on="1"/>
      </contour>
    </TTGlyph>
    <TTGlyph name="c" xMin="43" yMin="-7" xMax="408" yMax="455">
      <contour>
        <pt x="385" y="368" on="1"/>
        <pt x="343" y="381" on="0"/>
        <pt x="294" y="381" on="1"/>
        <pt x="230" y="381" on="0"/>
        <pt x="163" y="308" on="0"/>
        <pt x="145" y="217" on="1"/>
        <pt x="136" y="172" on="0"/>
        <pt x="136" y="142" on="1"/>
        <pt x="136" y="101" on="0"/>
        <pt x="175" y="67" on="0"/>
        <pt x="220" y="67" on="1"/>
        <pt x="262" y="67" on="0"/>
        <pt x="322" y="83" on="1"/>
        <pt x="329" y="13" on="1"/>
        <pt x="272" y="-7" on="0"/>
        <pt x="203" y="-7" on="1"/>
        <pt x="43" y="-7" on="0"/>
        <pt x="43" y="148" on="1"/>
        <pt x="43" y="189" on="0"/>
        <pt x="52" y="232" on="1"/>
        <pt x="72" y="335" on="0"/>
        <pt x="181" y="455" on="0"/>
        <pt x="284" y="455" on="1"/>
        <pt x="351" y="455" on="0"/>
        <pt x="408" y="432" on="1"/>
      </contour>
    </TTGlyph>
    <TTGlyph name="cacute" xMin="43" yMin="-7" xMax="460" yMax="652">
      <component glyphName="c" x="0" y="0" flags="0x0"/>
      <component glyphName="acutecomb" x="464" y="0" flags="0x0"/>
    </TTGlyph>
    <TTGlyph name="caron" xMin="224" yMin="579" xMax="350" yMax="596">
      <component glyphName="uni030C" x="448" y="0" flags="0x0"/>
    </TTGlyph>
    <TTGlyph name="ccaron" xMin="43" yMin="-7" xMax="408" yMax="596">
      <component glyphName="c" x="0" y="0" flags="0x0"/>
      <component glyphName="uni030C" x="464" y="0" flags="0x0"/>
    </TTGlyph>
    <TTGlyph name="ccedilla" xMin="26" yMin="-192" xMax="408" yMax="455">
      <contour>
        <pt x="230" y="381" on="0"/>
        <pt x="163" y="308" on="0"/>
        <pt x="145" y="217" on="1"/>
        <pt x="136" y="172" on="0"/>
        <pt x="136" y="142" on="1"/>
        <pt x="136" y="101" on="0"/>
        <pt x="175" y="67" on="0"/>
        <pt x="220" y="67" on="1"/>
        <pt x="262" y="67" on="0"/>
        <pt x="322" y="83" on="1"/>
        <pt x="329" y="13" on="1"/>
        <pt x="295" y="1" on="0"/>
        <pt x="255" y="-4" on="1"/>
        <pt x="235" y="-94" on="0"/>
        <pt x="136" y="-192" on="0"/>
        <pt x="26" y="-192" on="1"/>
        <pt x="31" y="-128" on="1"/>
        <pt x="102" y="-126" on="0"/>
        <pt x="170" y="-74" on="0"/>
        <pt x="186" y="-7" on="1"/>
        <pt x="43" y="1" on="0"/>
        <pt x="43" y="148" on="1"/>
        <pt x="43" y="187" on="0"/>
        <pt x="52" y="232" on="1"/>
        <pt x="72" y="335" on="0"/>
        <pt x="181" y="455" on="0"/>
        <pt x="284" y="455" on="1"/>
        <pt x="351" y="455" on="0"/>
        <pt x="408" y="432" on="1"/>
        <pt x="385" y="368" on="1"/>
        <pt x="343" y="381" on="0"/>
        <pt x="294" y="381" on="1"/>
      </contour>
    </TTGlyph>
    <TTGlyph name="ccircumflex" xMin="43" yMin="-7" xMax="444" yMax="650">
      <component glyphName="c" x="0" y="0" flags="0x0"/>
      <component glyphName="uni0302" x="464" y="0" flags="0x0"/>
    </TTGlyph>
    <TTGlyph name="cdotaccent" xMin="43" yMin="-7" xMax="408" yMax="654">
      <component glyphName="c" x="0" y="0" flags="0x0"/>
      <component glyphName="uni0307" x="464" y="0" flags="0x0"/>
    </TTGlyph>
    <TTGlyph name="cedilla" xMin="48" yMin="-192" xMax="279" yMax="14">
      <component glyphName="uni0327" x="448" y="0" flags="0x0"/>
    </TTGlyph>
    <TTGlyph name="cent" xMin="58" yMin="0" xMax="442" yMax="640">
      <contour>
        <pt x="262" y="256" on="1"/>
        <pt x="250" y="192" on="1"/>
        <pt x="378" y="192" on="1"/>
        <pt x="365" y="128" on="1"/>
        <pt x="237" y="128" on="1"/>
        <pt x="211" y="0" on="1"/>
        <pt x="147" y="0" on="1"/>
        <pt x="173" y="128" on="1"/>
        <pt x="109" y="128" on="1"/>
        <pt x="122" y="192" on="1"/>
        <pt x="186" y="192" on="1"/>
        <pt x="198" y="256" on="1"/>
        <pt x="237" y="448" on="1"/>
        <pt x="173" y="448" on="1"/>
        <pt x="186" y="512" on="1"/>
        <pt x="250" y="512" on="1"/>
        <pt x="262" y="576" on="1"/>
        <pt x="275" y="640" on="1"/>
        <pt x="339" y="640" on="1"/>
        <pt x="326" y="576" on="1"/>
        <pt x="314" y="512" on="1"/>
        <pt x="442" y="512" on="1"/>
        <pt x="429" y="448" on="1"/>
        <pt x="301" y="448" on="1"/>
      </contour>
      <contour>
        <pt x="134" y="256" on="1"/>
        <pt x="122" y="192" on="1"/>
        <pt x="58" y="192" on="1"/>
        <pt x="70" y="256" on="1"/>
        <pt x="109" y="448" on="1"/>
        <pt x="173" y="448" on="1"/>
      </contour>
    </TTGlyph>
    <TTGlyph name="chi" xMin="-51" yMin="-199" xMax="434" yMax="458">
      <contour>
        <pt x="434" y="429" on="1"/>
        <pt x="249" y="153" on="1"/>
        <pt x="284" y="102" on="0"/>
        <pt x="316" y="-8" on="0"/>
        <pt x="316" y="-80" on="1"/>
        <pt x="316" y="-136" on="0"/>
        <pt x="309" y="-196" on="1"/>
        <pt x="238" y="-196" on="1"/>
        <pt x="247" y="-120" on="0"/>
        <pt x="247" y="-67" on="1"/>
        <pt x="247" y="-16" on="0"/>
        <pt x="229" y="59" on="0"/>
        <pt x="209" y="92" on="1"/>
        <pt x="14" y="-199" on="1"/>
        <pt x="-51" y="-177" on="1"/>
        <pt x="163" y="143" on="1"/>
        <pt x="123" y="214" on="0"/>
        <pt x="93" y="346" on="0"/>
        <pt x="94" y="442" on="1"/>
        <pt x="166" y="448" on="1"/>
        <pt x="165" y="363" on="0"/>
        <pt x="182" y="257" on="0"/>
        <pt x="206" y="206" on="1"/>
        <pt x="374" y="458" on="1"/>
      </contour>
    </TTGlyph>
    <TTGlyph name="circle" xMin="64" yMin="120" xMax="409" yMax="456">
      <contour>
        <pt x="144" y="120" on="0"/>
        <pt x="64" y="197" on="0"/>
        <pt x="64" y="258" on="1"/>
        <pt x="64" y="277" on="0"/>
        <pt x="68" y="294" on="1"/>
        <pt x="77" y="340" on="0"/>
        <pt x="136" y="414" on="0"/>
        <pt x="219" y="456" on="0"/>
        <pt x="265" y="456" on="1"/>
        <pt x="330" y="456" on="0"/>
        <pt x="409" y="378" on="0"/>
        <pt x="409" y="317" on="1"/>
        <pt x="409" y="300" on="0"/>
        <pt x="406" y="282" on="1"/>
        <pt x="397" y="236" on="0"/>
        <pt x="338" y="162" on="0"/>
        <pt x="254" y="120" on="0"/>
        <pt x="208" y="120" on="1"/>
      </contour>
      <contour>
        <pt x="244" y="184" on="0"/>
        <pt x="303" y="220" on="0"/>
        <pt x="340" y="280" on="0"/>
        <pt x="340" y="315" on="1"/>
        <pt x="340" y="349" on="0"/>
        <pt x="298" y="392" on="0"/>
        <pt x="263" y="392" on="1"/>
        <pt x="230" y="392" on="0"/>
        <pt x="170" y="356" on="0"/>
        <pt x="133" y="295" on="0"/>
        <pt x="133" y="259" on="1"/>
        <pt x="133" y="226" on="0"/>
        <pt x="176" y="184" on="0"/>
        <pt x="211" y="184" on="1"/>
      </contour>
    </TTGlyph>
    <TTGlyph name="circumflex" xMin="131" yMin="509" xMax="428" yMax="650">
      <component glyphName="uni0302" x="448" y="0" flags="0x0"/>
    </TTGlyph>
    <TTGlyph name="club" xMin="32" yMin="64" xMax="416" yMax="512">
      <contour>
        <pt x="339" y="320" on="1"/>
        <pt x="352" y="384" on="1"/>
        <pt x="416" y="384" on="1"/>
        <pt x="378" y="192" on="1"/>
        <pt x="314" y="192" on="1"/>
        <pt x="326" y="256" on="1"/>
        <pt x="262" y="256" on="1"/>
        <pt x="237" y="128" on="1"/>
        <pt x="365" y="128" on="1"/>
        <pt x="352" y="64" on="1"/>
        <pt x="32" y="64" on="1"/>
        <pt x="45" y="128" on="1"/>
        <pt x="173" y="128" on="1"/>
        <pt x="198" y="256" on="1"/>
        <pt x="134" y="256" on="1"/>
        <pt x="122" y="192" on="1"/>
        <pt x="58" y="192" on="1"/>
        <pt x="96" y="384" on="1"/>
        <pt x="160" y="384" on="1"/>
        <pt x="147" y="320" on="1"/>
        <pt x="211" y="320" on="1"/>
        <pt x="237" y="448" on="1"/>
        <pt x="173" y="448" on="1"/>
        <pt x="186" y="512" on="1"/>
        <pt x="378" y="512" on="1"/>
        <pt x="365" y="448" on="1"/>
        <pt x="301" y="448" on="1"/>
        <pt x="275" y="320" on="1"/>
      </contour>
    </TTGlyph>
    <TTGlyph name="colon" xMin="86" yMin="-10" xMax="299" yMax="458">
      <contour>
        <pt x="262" y="458" on="0"/>
        <pt x="299" y="425" on="0"/>
        <pt x="299" y="396" on="1"/>
        <pt x="299" y="355" on="0"/>
        <pt x="250" y="310" on="0"/>
        <pt x="215" y="310" on="1"/>
        <pt x="186" y="310" on="0"/>
        <pt x="150" y="342" on="0"/>
        <pt x="150" y="371" on="1"/>
        <pt x="150" y="412" on="0"/>
        <pt x="199" y="458" on="0"/>
        <pt x="233" y="458" on="1"/>
      </contour>
      <contour>
        <pt x="198" y="138" on="0"/>
        <pt x="235" y="105" on="0"/>
        <pt x="235" y="76" on="1"/>
        <pt x="235" y="35" on="0"/>
        <pt x="186" y="-10" on="0"/>
        <pt x="151" y="-10" on="1"/>
        <pt x="122" y="-10" on="0"/>
        <pt x="86" y="22" on="0"/>
        <pt x="86" y="51" on="1"/>
        <pt x="86" y="92" on="0"/>
        <pt x="135" y="138" on="0"/>
        <pt x="169" y="138" on="1"/>
      </contour>
    </TTGlyph>
    <TTGlyph name="comma" xMin="67" yMin="-144" xMax="233" yMax="136">
      <contour>
        <pt x="196" y="136" on="0"/>
        <pt x="233" y="103" on="0"/>
        <pt x="233" y="68" on="1"/>
        <pt x="233" y="59" on="0"/>
        <pt x="229" y="35" on="1"/>
        <pt x="210" y="-57" on="0"/>
        <pt x="111" y="-144" on="1"/>
        <pt x="67" y="-98" on="1"/>
        <pt x="93" y="-72" on="0"/>
        <pt x="128" y="-30" on="0"/>
        <pt x="139" y="-6" on="1"/>
        <pt x="115" y="-5" on="0"/>
        <pt x="86" y="25" on="0"/>
        <pt x="86" y="50" on="1"/>
        <pt x="86" y="89" on="0"/>
        <pt x="134" y="136" on="0"/>
        <pt x="167" y="136" on="1"/>
      </contour>
    </TTGlyph>
    <TTGlyph name="copyright" xMin="9" yMin="11" xMax="452" yMax="501">
      <contour>
        <pt x="323" y="501" on="0"/>
        <pt x="404" y="459" on="0"/>
        <pt x="452" y="376" on="0"/>
        <pt x="452" y="316" on="1"/>
        <pt x="452" y="283" on="0"/>
        <pt x="445" y="249" on="1"/>
        <pt x="430" y="173" on="0"/>
        <pt x="349" y="65" on="0"/>
        <pt x="242" y="11" on="0"/>
        <pt x="187" y="11" on="1"/>
        <pt x="138" y="11" on="0"/>
        <pt x="57" y="54" on="0"/>
        <pt x="9" y="139" on="0"/>
        <pt x="9" y="198" on="1"/>
        <pt x="9" y="232" on="0"/>
        <pt x="16" y="264" on="1"/>
        <pt x="31" y="341" on="0"/>
        <pt x="112" y="448" on="0"/>
        <pt x="219" y="501" on="0"/>
        <pt x="274" y="501" on="1"/>
      </contour>
      <contour>
        <pt x="271" y="59" on="0"/>
        <pt x="378" y="177" on="0"/>
        <pt x="396" y="264" on="1"/>
        <pt x="402" y="293" on="0"/>
        <pt x="402" y="321" on="1"/>
        <pt x="402" y="380" on="0"/>
        <pt x="342" y="453" on="0"/>
        <pt x="276" y="453" on="1"/>
        <pt x="190" y="453" on="0"/>
        <pt x="82" y="334" on="0"/>
        <pt x="65" y="249" on="1"/>
        <pt x="59" y="219" on="0"/>
        <pt x="59" y="191" on="1"/>
        <pt x="59" y="132" on="0"/>
        <pt x="120" y="59" on="0"/>
        <pt x="186" y="59" on="1"/>
      </contour>
      <contour>
        <pt x="324" y="338" on="1"/>
        <pt x="302" y="348" on="0"/>
        <pt x="268" y="348" on="1"/>
        <pt x="228" y="348" on="0"/>
        <pt x="184" y="305" on="0"/>
        <pt x="174" y="252" on="1"/>
        <pt x="169" y="225" on="0"/>
        <pt x="169" y="213" on="1"/>
        <pt x="169" y="188" on="0"/>
        <pt x="193" y="170" on="0"/>
        <pt x="221" y="170" on="1"/>
        <pt x="250" y="170" on="0"/>
        <pt x="289" y="182" on="1"/>
        <pt x="299" y="135" on="1"/>
        <pt x="257" y="120" on="0"/>
        <pt x="219" y="120" on="1"/>
        <pt x="166" y="120" on="0"/>
        <pt x="116" y="174" on="0"/>
        <pt x="116" y="220" on="1"/>
        <pt x="116" y="239" on="0"/>
        <pt x="121" y="266" on="1"/>
        <pt x="132" y="325" on="0"/>
        <pt x="202" y="397" on="0"/>
        <pt x="263" y="397" on="1"/>
        <pt x="305" y="397" on="0"/>
        <pt x="344" y="380" on="1"/>
      </contour>
    </TTGlyph>
    <TTGlyph name="currency" xMin="17" yMin="57" xMax="457" yMax="519">
      <contour>
        <pt x="457" y="481" on="1"/>
        <pt x="389" y="407" on="1"/>
        <pt x="418" y="370" on="0"/>
        <pt x="418" y="318" on="1"/>
        <pt x="418" y="298" on="0"/>
        <pt x="414" y="281" on="1"/>
        <pt x="407" y="247" on="0"/>
        <pt x="370" y="186" on="0"/>
        <pt x="342" y="162" on="1"/>
        <pt x="379" y="95" on="1"/>
        <pt x="322" y="57" on="1"/>
        <pt x="283" y="127" on="1"/>
        <pt x="249" y="112" on="0"/>
        <pt x="208" y="112" on="1"/>
        <pt x="166" y="112" on="0"/>
        <pt x="130" y="130" on="1"/>
        <pt x="64" y="57" on="1"/>
        <pt x="17" y="95" on="1"/>
        <pt x="85" y="169" on="1"/>
        <pt x="57" y="206" on="0"/>
        <pt x="57" y="257" on="1"/>
        <pt x="57" y="279" on="0"/>
        <pt x="61" y="296" on="1"/>
        <pt x="68" y="330" on="0"/>
        <pt x="105" y="391" on="0"/>
        <pt x="132" y="414" on="1"/>
        <pt x="95" y="481" on="1"/>
        <pt x="152" y="519" on="1"/>
        <pt x="190" y="449" on="1"/>
        <pt x="226" y="464" on="0"/>
        <pt x="267" y="464" on="1"/>
        <pt x="311" y="464" on="0"/>
        <pt x="344" y="446" on="1"/>
        <pt x="410" y="519" on="1"/>
      </contour>
      <contour>
        <pt x="351" y="310" on="0"/>
        <pt x="351" y="317" on="1"/>
        <pt x="351" y="354" on="0"/>
        <pt x="304" y="400" on="0"/>
        <pt x="265" y="400" on="1"/>
        <pt x="216" y="400" on="0"/>
        <pt x="136" y="331" on="0"/>
        <pt x="126" y="281" on="1"/>
        <pt x="124" y="273" on="0"/>
        <pt x="124" y="259" on="1"/>
        <pt x="124" y="223" on="0"/>
        <pt x="171" y="176" on="0"/>
        <pt x="209" y="176" on="1"/>
        <pt x="258" y="176" on="0"/>
        <pt x="338" y="246" on="0"/>
        <pt x="349" y="296" on="1"/>
      </contour>
    </TTGlyph>
    <TTGlyph name="d" xMin="38" yMin="-8" xMax="476" yMax="640">
      <contour>
        <pt x="386" y="640" on="1"/>
        <pt x="476" y="640" on="1"/>
        <pt x="361" y="65" on="1"/>
        <pt x="353" y="0" on="1"/>
        <pt x="280" y="0" on="1"/>
        <pt x="280" y="57" on="1"/>
        <pt x="235" y="-8" on="0"/>
        <pt x="161" y="-8" on="1"/>
        <pt x="102" y="-8" on="0"/>
        <pt x="38" y="70" on="0"/>
        <pt x="38" y="144" on="1"/>
        <pt x="38" y="177" on="0"/>
        <pt x="48" y="232" on="1"/>
        <pt x="69" y="341" on="0"/>
        <pt x="172" y="456" on="0"/>
        <pt x="242" y="456" on="1"/>
        <pt x="304" y="456" on="0"/>
        <pt x="339" y="413" on="1"/>
      </contour>
      <contour>
        <pt x="224" y="65" on="0"/>
        <pt x="286" y="152" on="0"/>
        <pt x="307" y="257" on="1"/>
        <pt x="325" y="344" on="1"/>
        <pt x="303" y="383" on="0"/>
        <pt x="257" y="383" on="1"/>
        <pt x="217" y="383" on="0"/>
        <pt x="162" y="308" on="0"/>
        <pt x="143" y="217" on="1"/>
        <pt x="133" y="168" on="0"/>
        <pt x="133" y="134" on="1"/>
        <pt x="133" y="97" on="0"/>
        <pt x="158" y="65" on="0"/>
        <pt x="183" y="65" on="1"/>
      </contour>
    </TTGlyph>
    <TTGlyph name="dagger" xMin="92" yMin="0" xMax="437" yMax="640">
      <contour>
        <pt x="263" y="640" on="1"/>
        <pt x="351" y="640" on="1"/>
        <pt x="316" y="462" on="1"/>
        <pt x="437" y="462" on="1"/>
        <pt x="422" y="390" on="1"/>
        <pt x="301" y="390" on="1"/>
        <pt x="223" y="0" on="1"/>
        <pt x="135" y="0" on="1"/>
        <pt x="213" y="390" on="1"/>
        <pt x="92" y="390" on="1"/>
        <pt x="107" y="462" on="1"/>
        <pt x="228" y="462" on="1"/>
      </contour>
    </TTGlyph>
    <TTGlyph name="daggerdbl" xMin="56" yMin="0" xMax="431" yMax="640">
      <contour>
        <pt x="273" y="640" on="1"/>
        <pt x="341" y="640" on="1"/>
        <pt x="305" y="458" on="1"/>
        <pt x="431" y="458" on="1"/>
        <pt x="418" y="394" on="1"/>
        <pt x="292" y="394" on="1"/>
        <pt x="262" y="246" on="1"/>
        <pt x="388" y="246" on="1"/>
        <pt x="376" y="182" on="1"/>
        <pt x="250" y="182" on="1"/>
        <pt x="213" y="0" on="1"/>
        <pt x="145" y="0" on="1"/>
        <pt x="182" y="182" on="1"/>
        <pt x="56" y="182" on="1"/>
        <pt x="68" y="246" on="1"/>
        <pt x="194" y="246" on="1"/>
        <pt x="224" y="394" on="1"/>
        <pt x="98" y="394" on="1"/>
        <pt x="111" y="458" on="1"/>
        <pt x="237" y="458" on="1"/>
      </contour>
    </TTGlyph>
    <TTGlyph name="dcaron" xMin="8" yMin="-8" xMax="563" yMax="644">
      <component glyphName="d" x="-30" y="0" flags="0x0"/>
      <component glyphName="uni0315" x="492" y="0" flags="0x0"/>
    </TTGlyph>
    <TTGlyph name="dcroat" xMin="38" yMin="-8" xMax="512" yMax="640">
      <contour>
        <pt x="512" y="569" on="1"/>
        <pt x="498" y="500" on="1"/>
        <pt x="448" y="500" on="1"/>
        <pt x="361" y="65" on="1"/>
        <pt x="353" y="0" on="1"/>
        <pt x="280" y="0" on="1"/>
        <pt x="280" y="57" on="1"/>
        <pt x="235" y="-8" on="0"/>
        <pt x="161" y="-8" on="1"/>
        <pt x="102" y="-8" on="0"/>
        <pt x="38" y="70" on="0"/>
        <pt x="38" y="144" on="1"/>
        <pt x="38" y="177" on="0"/>
        <pt x="48" y="232" on="1"/>
        <pt x="69" y="341" on="0"/>
        <pt x="172" y="456" on="0"/>
        <pt x="242" y="456" on="1"/>
        <pt x="304" y="456" on="0"/>
        <pt x="339" y="413" on="1"/>
        <pt x="357" y="500" on="1"/>
        <pt x="232" y="500" on="1"/>
        <pt x="246" y="569" on="1"/>
        <pt x="371" y="569" on="1"/>
        <pt x="386" y="640" on="1"/>
        <pt x="476" y="640" on="1"/>
        <pt x="462" y="569" on="1"/>
      </contour>
      <contour>
        <pt x="224" y="65" on="0"/>
        <pt x="286" y="152" on="0"/>
        <pt x="307" y="257" on="1"/>
        <pt x="325" y="344" on="1"/>
        <pt x="303" y="383" on="0"/>
        <pt x="257" y="383" on="1"/>
        <pt x="217" y="383" on="0"/>
        <pt x="162" y="308" on="0"/>
        <pt x="143" y="217" on="1"/>
        <pt x="133" y="168" on="0"/>
        <pt x="133" y="134" on="1"/>
        <pt x="133" y="97" on="0"/>
        <pt x="158" y="65" on="0"/>
        <pt x="183" y="65" on="1"/>
      </contour>
    </TTGlyph>
    <TTGlyph name="degree" xMin="175" yMin="377" xMax="452" yMax="647">
      <contour>
        <pt x="389" y="647" on="0"/>
        <pt x="452" y="584" on="0"/>
        <pt x="452" y="535" on="1"/>
        <pt x="452" y="520" on="0"/>
        <pt x="449" y="505" on="1"/>
        <pt x="438" y="452" on="0"/>
        <pt x="350" y="377" on="0"/>
        <pt x="293" y="377" on="1"/>
        <pt x="239" y="377" on="0"/>
        <pt x="175" y="442" on="0"/>
        <pt x="175" y="492" on="1"/>
        <pt x="175" y="532" on="0"/>
        <pt x="218" y="603" on="0"/>
        <pt x="292" y="647" on="0"/>
        <pt x="335" y="647" on="1"/>
      </contour>
      <contour>
        <pt x="324" y="433" on="0"/>
        <pt x="369" y="468" on="0"/>
        <pt x="391" y="517" on="0"/>
        <pt x="391" y="538" on="1"/>
        <pt x="391" y="561" on="0"/>
        <pt x="365" y="591" on="0"/>
        <pt x="335" y="591" on="1"/>
        <pt x="295" y="591" on="0"/>
        <pt x="244" y="537" on="0"/>
        <pt x="238" y="505" on="1"/>
        <pt x="236" y="493" on="0"/>
        <pt x="236" y="487" on="1"/>
        <pt x="236" y="464" on="0"/>
        <pt x="262" y="433" on="0"/>
        <pt x="292" y="433" on="1"/>
      </contour>
    </TTGlyph>
    <TTGlyph name="delta" xMin="37" yMin="-13" xMax="464" yMax="642">
      <contour>
        <pt x="306" y="578" on="0"/>
        <pt x="255" y="539" on="0"/>
        <pt x="249" y="509" on="1"/>
        <pt x="247" y="499" on="0"/>
        <pt x="247" y="494" on="1"/>
        <pt x="247" y="479" on="0"/>
        <pt x="267" y="450" on="0"/>
        <pt x="293" y="425" on="1"/>
        <pt x="336" y="392" on="0"/>
        <pt x="395" y="303" on="0"/>
        <pt x="395" y="238" on="1"/>
        <pt x="395" y="209" on="0"/>
        <pt x="390" y="185" on="1"/>
        <pt x="374" y="104" on="0"/>
        <pt x="267" y="-13" on="0"/>
        <pt x="180" y="-13" on="1"/>
        <pt x="106" y="-13" on="0"/>
        <pt x="37" y="74" on="0"/>
        <pt x="37" y="137" on="1"/>
        <pt x="37" y="160" on="0"/>
        <pt x="42" y="185" on="1"/>
        <pt x="56" y="255" on="0"/>
        <pt x="150" y="366" on="0"/>
        <pt x="221" y="401" on="1"/>
        <pt x="174" y="438" on="0"/>
        <pt x="174" y="493" on="1"/>
        <pt x="174" y="502" on="0"/>
        <pt x="178" y="526" on="1"/>
        <pt x="187" y="577" on="0"/>
        <pt x="273" y="642" on="0"/>
        <pt x="356" y="642" on="1"/>
        <pt x="403" y="642" on="0"/>
        <pt x="464" y="635" on="1"/>
        <pt x="451" y="573" on="1"/>
        <pt x="389" y="578" on="0"/>
        <pt x="355" y="578" on="1"/>
      </contour>
      <contour>
        <pt x="324" y="225" on="0"/>
        <pt x="324" y="242" on="1"/>
        <pt x="324" y="306" on="0"/>
        <pt x="274" y="358" on="1"/>
        <pt x="198" y="320" on="0"/>
        <pt x="126" y="232" on="0"/>
        <pt x="114" y="169" on="1"/>
        <pt x="110" y="150" on="0"/>
        <pt x="110" y="129" on="1"/>
        <pt x="110" y="92" on="0"/>
        <pt x="146" y="51" on="0"/>
        <pt x="181" y="51" on="1"/>
        <pt x="234" y="51" on="0"/>
        <pt x="305" y="127" on="0"/>
        <pt x="319" y="200" on="1"/>
      </contour>
    </TTGlyph>
    <TTGlyph name="diamond" xMin="71" yMin="80" xMax="395" yMax="456">
      <contour>
        <pt x="71" y="252" on="1"/>
        <pt x="75" y="284" on="1"/>
        <pt x="247" y="456" on="1"/>
        <pt x="291" y="456" on="1"/>
        <pt x="395" y="284" on="1"/>
        <pt x="391" y="252" on="1"/>
        <pt x="218" y="80" on="1"/>
        <pt x="174" y="80" on="1"/>
      </contour>
    </TTGlyph>
    <TTGlyph name="dieresis" xMin="153" yMin="523" xMax="441" yMax="653">
      <component glyphName="uni0308" x="448" y="0" flags="0x0"/>
    </TTGlyph>
    <TTGlyph name="dieresistonos" xMin="129" yMin="512" xMax="464" yMax="704">
      <contour>
        <pt x="239" y="512" on="1"/>
        <pt x="288" y="704" on="1"/>
        <pt x="372" y="704" on="1"/>
        <pt x="304" y="512" on="1"/>
      </contour>
      <contour>
        <pt x="191" y="650" on="0"/>
        <pt x="208" y="629" on="0"/>
        <pt x="208" y="608" on="1"/>
        <pt x="208" y="596" on="0"/>
        <pt x="205" y="579" on="1"/>
        <pt x="194" y="522" on="0"/>
        <pt x="162" y="522" on="1"/>
        <pt x="147" y="522" on="0"/>
        <pt x="129" y="544" on="0"/>
        <pt x="129" y="566" on="1"/>
        <pt x="129" y="579" on="0"/>
        <pt x="132" y="594" on="1"/>
        <pt x="143" y="650" on="0"/>
        <pt x="176" y="650" on="1"/>
      </contour>
      <contour>
        <pt x="447" y="650" on="0"/>
        <pt x="464" y="629" on="0"/>
        <pt x="464" y="608" on="1"/>
        <pt x="464" y="596" on="0"/>
        <pt x="461" y="579" on="1"/>
        <pt x="450" y="522" on="0"/>
        <pt x="418" y="522" on="1"/>
        <pt x="403" y="522" on="0"/>
        <pt x="385" y="544" on="0"/>
        <pt x="385" y="566" on="1"/>
        <pt x="385" y="579" on="0"/>
        <pt x="388" y="594" on="1"/>
        <pt x="399" y="650" on="0"/>
        <pt x="432" y="650" on="1"/>
      </contour>
    </TTGlyph>
    <TTGlyph name="divide" xMin="30" yMin="62" xMax="443" yMax="514">
      <contour>
        <pt x="302" y="514" on="0"/>
        <pt x="334" y="485" on="0"/>
        <pt x="334" y="460" on="1"/>
        <pt x="334" y="425" on="0"/>
        <pt x="292" y="386" on="0"/>
        <pt x="262" y="386" on="1"/>
        <pt x="237" y="386" on="0"/>
        <pt x="205" y="415" on="0"/>
        <pt x="205" y="441" on="1"/>
        <pt x="205" y="475" on="0"/>
        <pt x="247" y="514" on="0"/>
        <pt x="277" y="514" on="1"/>
      </contour>
      <contour>
        <pt x="30" y="256" on="1"/>
        <pt x="43" y="320" on="1"/>
        <pt x="443" y="320" on="1"/>
        <pt x="430" y="256" on="1"/>
      </contour>
      <contour>
        <pt x="237" y="190" on="0"/>
        <pt x="269" y="162" on="0"/>
        <pt x="269" y="136" on="1"/>
        <pt x="269" y="101" on="0"/>
        <pt x="228" y="62" on="0"/>
        <pt x="198" y="62" on="1"/>
        <pt x="173" y="62" on="0"/>
        <pt x="140" y="91" on="0"/>
        <pt x="140" y="117" on="1"/>
        <pt x="140" y="151" on="0"/>
        <pt x="182" y="190" on="0"/>
        <pt x="212" y="190" on="1"/>
      </contour>
    </TTGlyph>
    <TTGlyph name="dkshade" xMin="-70" yMin="-192" xMax="506" yMax="832">
      <contour>
        <pt x="506" y="832" on="1"/>
        <pt x="493" y="768" on="1"/>
        <pt x="429" y="768" on="1"/>
        <pt x="416" y="704" on="1"/>
        <pt x="480" y="704" on="1"/>
        <pt x="454" y="576" on="1"/>
        <pt x="442" y="512" on="1"/>
        <pt x="378" y="512" on="1"/>
        <pt x="365" y="448" on="1"/>
        <pt x="429" y="448" on="1"/>
        <pt x="390" y="256" on="1"/>
        <pt x="326" y="256" on="1"/>
        <pt x="314" y="192" on="1"/>
        <pt x="378" y="192" on="1"/>
        <pt x="339" y="0" on="1"/>
        <pt x="275" y="0" on="1"/>
        <pt x="262" y="-64" on="1"/>
        <pt x="326" y="-64" on="1"/>
        <pt x="314" y="-128" on="1"/>
        <pt x="301" y="-192" on="1"/>
        <pt x="237" y="-192" on="1"/>
        <pt x="250" y="-128" on="1"/>
        <pt x="186" y="-128" on="1"/>
        <pt x="173" y="-192" on="1"/>
        <pt x="109" y="-192" on="1"/>
        <pt x="122" y="-128" on="1"/>
        <pt x="58" y="-128" on="1"/>
        <pt x="45" y="-192" on="1"/>
        <pt x="-19" y="-192" on="1"/>
        <pt x="-6" y="-128" on="1"/>
        <pt x="-70" y="-128" on="1"/>
        <pt x="-58" y="-64" on="1"/>
        <pt x="-32" y="64" on="1"/>
        <pt x="32" y="64" on="1"/>
        <pt x="45" y="128" on="1"/>
        <pt x="-19" y="128" on="1"/>
        <pt x="-6" y="192" on="1"/>
        <pt x="6" y="256" on="1"/>
        <pt x="19" y="320" on="1"/>
        <pt x="83" y="320" on="1"/>
        <pt x="96" y="384" on="1"/>
        <pt x="32" y="384" on="1"/>
        <pt x="58" y="512" on="1"/>
        <pt x="70" y="576" on="1"/>
        <pt x="134" y="576" on="1"/>
        <pt x="147" y="640" on="1"/>
        <pt x="83" y="640" on="1"/>
        <pt x="122" y="832" on="1"/>
      </contour>
      <contour>
        <pt x="237" y="768" on="1"/>
        <pt x="173" y="768" on="1"/>
        <pt x="160" y="704" on="1"/>
        <pt x="224" y="704" on="1"/>
      </contour>
      <contour>
        <pt x="288" y="704" on="1"/>
        <pt x="352" y="704" on="1"/>
        <pt x="365" y="768" on="1"/>
        <pt x="301" y="768" on="1"/>
      </contour>
      <contour>
        <pt x="275" y="640" on="1"/>
        <pt x="211" y="640" on="1"/>
        <pt x="198" y="576" on="1"/>
        <pt x="262" y="576" on="1"/>
      </contour>
      <contour>
        <pt x="326" y="576" on="1"/>
        <pt x="390" y="576" on="1"/>
        <pt x="403" y="640" on="1"/>
        <pt x="339" y="640" on="1"/>
      </contour>
      <contour>
        <pt x="186" y="512" on="1"/>
        <pt x="122" y="512" on="1"/>
        <pt x="109" y="448" on="1"/>
        <pt x="173" y="448" on="1"/>
      </contour>
      <contour>
        <pt x="237" y="448" on="1"/>
        <pt x="301" y="448" on="1"/>
        <pt x="314" y="512" on="1"/>
        <pt x="250" y="512" on="1"/>
      </contour>
      <contour>
        <pt x="224" y="384" on="1"/>
        <pt x="160" y="384" on="1"/>
        <pt x="147" y="320" on="1"/>
        <pt x="211" y="320" on="1"/>
      </contour>
      <contour>
        <pt x="275" y="320" on="1"/>
        <pt x="339" y="320" on="1"/>
        <pt x="352" y="384" on="1"/>
        <pt x="288" y="384" on="1"/>
      </contour>
      <contour>
        <pt x="134" y="256" on="1"/>
        <pt x="70" y="256" on="1"/>
        <pt x="58" y="192" on="1"/>
        <pt x="122" y="192" on="1"/>
      </contour>
      <contour>
        <pt x="186" y="192" on="1"/>
        <pt x="250" y="192" on="1"/>
        <pt x="262" y="256" on="1"/>
        <pt x="198" y="256" on="1"/>
      </contour>
      <contour>
        <pt x="173" y="128" on="1"/>
        <pt x="109" y="128" on="1"/>
        <pt x="96" y="64" on="1"/>
        <pt x="160" y="64" on="1"/>
      </contour>
      <contour>
        <pt x="224" y="64" on="1"/>
        <pt x="288" y="64" on="1"/>
        <pt x="301" y="128" on="1"/>
        <pt x="237" y="128" on="1"/>
      </contour>
      <contour>
        <pt x="19" y="0" on="1"/>
        <pt x="6" y="-64" on="1"/>
        <pt x="70" y="-64" on="1"/>
        <pt x="83" y="0" on="1"/>
      </contour>
      <contour>
        <pt x="134" y="-64" on="1"/>
        <pt x="198" y="-64" on="1"/>
        <pt x="211" y="0" on="1"/>
        <pt x="147" y="0" on="1"/>
      </contour>
    </TTGlyph>
    <TTGlyph name="dnblock" xMin="-83" yMin="-192" xMax="467" yMax="320">
      <contour>
        <pt x="467" y="320" on="1"/>
        <pt x="365" y="-192" on="1"/>
        <pt x="-83" y="-192" on="1"/>
        <pt x="19" y="320" on="1"/>
      </contour>
    </TTGlyph>
    <TTGlyph name="dollar" xMin="-3" yMin="-74" xMax="457" yMax="650">
      <contour>
        <pt x="323" y="510" on="1"/>
        <pt x="283" y="310" on="1"/>
        <pt x="337" y="292" on="0"/>
        <pt x="396" y="242" on="0"/>
        <pt x="396" y="192" on="1"/>
        <pt x="396" y="172" on="0"/>
        <pt x="392" y="153" on="1"/>
        <pt x="380" y="91" on="0"/>
        <pt x="292" y="11" on="0"/>
        <pt x="220" y="-2" on="1"/>
        <pt x="206" y="-74" on="1"/>
        <pt x="122" y="-74" on="1"/>
        <pt x="135" y="-8" on="1"/>
        <pt x="64" y="-5" on="0"/>
        <pt x="-3" y="19" on="1"/>
        <pt x="26" y="91" on="1"/>
        <pt x="88" y="66" on="0"/>
        <pt x="150" y="66" on="1"/>
        <pt x="189" y="260" on="1"/>
        <pt x="138" y="279" on="0"/>
        <pt x="80" y="332" on="0"/>
        <pt x="80" y="384" on="1"/>
        <pt x="80" y="406" on="0"/>
        <pt x="84" y="426" on="1"/>
        <pt x="96" y="482" on="0"/>
        <pt x="182" y="562" on="0"/>
        <pt x="252" y="577" on="1"/>
        <pt x="267" y="650" on="1"/>
        <pt x="351" y="650" on="1"/>
        <pt x="338" y="584" on="1"/>
        <pt x="405" y="582" on="0"/>
        <pt x="457" y="565" on="1"/>
        <pt x="432" y="493" on="1"/>
        <pt x="384" y="510" on="0"/>
        <pt x="330" y="510" on="1"/>
      </contour>
      <contour>
        <pt x="236" y="494" on="1"/>
        <pt x="185" y="472" on="0"/>
        <pt x="174" y="412" on="1"/>
        <pt x="172" y="400" on="0"/>
        <pt x="172" y="394" on="1"/>
        <pt x="172" y="360" on="0"/>
        <pt x="205" y="340" on="1"/>
      </contour>
      <contour>
        <pt x="303" y="171" on="0"/>
        <pt x="303" y="176" on="1"/>
        <pt x="303" y="194" on="0"/>
        <pt x="285" y="219" on="0"/>
        <pt x="267" y="230" on="1"/>
        <pt x="237" y="80" on="1"/>
        <pt x="290" y="102" on="0"/>
        <pt x="301" y="159" on="1"/>
      </contour>
    </TTGlyph>
    <TTGlyph name="dotaccent" xMin="233" yMin="526" xMax="362" yMax="654">
      <component glyphName="uni0307" x="448" y="0" flags="0x0"/>
    </TTGlyph>
    <TTGlyph name="dotbelowcomb" xMin="-357" yMin="-184" xMax="-228" yMax="-56">
      <component glyphName="uni0307" x="-142" y="-710" flags="0x4"/>
    </TTGlyph>
    <TTGlyph name="dotlessi" xMin="99" yMin="0" xMax="328" yMax="448">
      <contour>
        <pt x="238" y="0" on="1"/>
        <pt x="146" y="0" on="1"/>
        <pt x="221" y="374" on="1"/>
        <pt x="99" y="382" on="1"/>
        <pt x="112" y="448" on="1"/>
        <pt x="328" y="448" on="1"/>
      </contour>
    </TTGlyph>
    <TTGlyph name="dotmath" xMin="118" yMin="214" xMax="267" yMax="362">
      <component glyphName="period" x="32" y="224" flags="0x4"/>
    </TTGlyph>
    <TTGlyph name="e" xMin="38" yMin="-13" xMax="412" yMax="461">
      <contour>
        <pt x="136" y="194" on="1"/>
        <pt x="130" y="161" on="0"/>
        <pt x="130" y="137" on="1"/>
        <pt x="130" y="95" on="0"/>
        <pt x="169" y="59" on="0"/>
        <pt x="213" y="59" on="1"/>
        <pt x="258" y="59" on="0"/>
        <pt x="335" y="84" on="1"/>
        <pt x="343" y="17" on="1"/>
        <pt x="270" y="-13" on="0"/>
        <pt x="201" y="-13" on="1"/>
        <pt x="115" y="-13" on="0"/>
        <pt x="38" y="73" on="0"/>
        <pt x="38" y="148" on="1"/>
        <pt x="38" y="189" on="0"/>
        <pt x="47" y="232" on="1"/>
        <pt x="67" y="336" on="0"/>
        <pt x="174" y="461" on="0"/>
        <pt x="266" y="461" on="1"/>
        <pt x="338" y="461" on="0"/>
        <pt x="412" y="378" on="0"/>
        <pt x="412" y="306" on="1"/>
        <pt x="412" y="252" on="0"/>
        <pt x="393" y="191" on="1"/>
      </contour>
      <contour>
        <pt x="223" y="389" on="0"/>
        <pt x="169" y="331" on="0"/>
        <pt x="151" y="265" on="1"/>
        <pt x="314" y="265" on="1"/>
        <pt x="320" y="297" on="0"/>
        <pt x="320" y="319" on="1"/>
        <pt x="320" y="389" on="0"/>
        <pt x="263" y="389" on="1"/>
      </contour>
    </TTGlyph>
    <TTGlyph name="eacute" xMin="38" yMin="-13" xMax="444" yMax="652">
      <component glyphName="e" x="0" y="0" flags="0x0"/>
      <component glyphName="acutecomb" x="448" y="0" flags="0x0"/>
    </TTGlyph>
    <TTGlyph name="ebreve" xMin="38" yMin="-13" xMax="440" yMax="642">
      <component glyphName="e" x="0" y="0" flags="0x0"/>
      <component glyphName="uni0306" x="448" y="0" flags="0x0"/>
    </TTGlyph>
    <TTGlyph name="ecaron" xMin="38" yMin="-13" xMax="412" yMax="596">
      <component glyphName="e" x="0" y="0" flags="0x0"/>
      <component glyphName="uni030C" x="448" y="0" flags="0x0"/>
    </TTGlyph>
    <TTGlyph name="ecircumflex" xMin="38" yMin="-13" xMax="428" yMax="650">
      <component glyphName="e" x="0" y="0" flags="0x0"/>
      <component glyphName="uni0302" x="448" y="0" flags="0x0"/>
    </TTGlyph>
    <TTGlyph name="edieresis" xMin="38" yMin="-13" xMax="441" yMax="653">
      <component glyphName="e" x="0" y="0" flags="0x0"/>
      <component glyphName="uni0308" x="448" y="0" flags="0x0"/>
    </TTGlyph>
    <TTGlyph name="edotaccent" xMin="38" yMin="-13" xMax="412" yMax="654">
      <component glyphName="e" x="0" y="0" flags="0x0"/>
      <component glyphName="uni0307" x="448" y="0" flags="0x0"/>
    </TTGlyph>
    <TTGlyph name="egrave" xMin="38" yMin="-13" xMax="412" yMax="640">
      <component glyphName="e" x="0" y="0" flags="0x0"/>
      <component glyphName="gravecomb" x="448" y="0" flags="0x0"/>
    </TTGlyph>
    <TTGlyph name="eight" xMin="8" yMin="-11" xMax="441" yMax="586">
      <contour>
        <pt x="429" y="395" on="0"/>
        <pt x="379" y="315" on="0"/>
        <pt x="337" y="283" on="1"/>
        <pt x="373" y="259" on="0"/>
        <pt x="408" y="209" on="0"/>
        <pt x="408" y="176" on="1"/>
        <pt x="408" y="129" on="0"/>
        <pt x="348" y="43" on="0"/>
        <pt x="240" y="-11" on="0"/>
        <pt x="172" y="-11" on="1"/>
        <pt x="93" y="-11" on="0"/>
        <pt x="8" y="57" on="0"/>
        <pt x="8" y="113" on="1"/>
        <pt x="8" y="129" on="0"/>
        <pt x="11" y="145" on="1"/>
        <pt x="21" y="194" on="0"/>
        <pt x="84" y="274" on="0"/>
        <pt x="129" y="303" on="1"/>
        <pt x="91" y="342" on="0"/>
        <pt x="91" y="393" on="1"/>
        <pt x="91" y="410" on="0"/>
        <pt x="94" y="426" on="1"/>
        <pt x="103" y="472" on="0"/>
        <pt x="163" y="545" on="0"/>
        <pt x="252" y="586" on="0"/>
        <pt x="302" y="586" on="1"/>
        <pt x="366" y="586" on="0"/>
        <pt x="441" y="524" on="0"/>
        <pt x="441" y="469" on="1"/>
        <pt x="441" y="459" on="0"/>
        <pt x="437" y="435" on="1"/>
      </contour>
      <contour>
        <pt x="343" y="434" on="0"/>
        <pt x="343" y="446" on="1"/>
        <pt x="343" y="476" on="0"/>
        <pt x="310" y="514" on="0"/>
        <pt x="277" y="514" on="1"/>
        <pt x="231" y="514" on="0"/>
        <pt x="187" y="453" on="0"/>
        <pt x="187" y="416" on="1"/>
        <pt x="187" y="390" on="0"/>
        <pt x="228" y="344" on="0"/>
        <pt x="280" y="316" on="1"/>
        <pt x="328" y="360" on="0"/>
        <pt x="340" y="420" on="1"/>
      </contour>
      <contour>
        <pt x="310" y="144" on="0"/>
        <pt x="310" y="148" on="1"/>
        <pt x="310" y="173" on="0"/>
        <pt x="262" y="217" on="0"/>
        <pt x="200" y="249" on="1"/>
        <pt x="177" y="263" on="1"/>
        <pt x="145" y="242" on="0"/>
        <pt x="115" y="193" on="0"/>
        <pt x="109" y="163" on="1"/>
        <pt x="107" y="155" on="0"/>
        <pt x="107" y="140" on="1"/>
        <pt x="107" y="105" on="0"/>
        <pt x="151" y="61" on="0"/>
        <pt x="197" y="61" on="1"/>
        <pt x="245" y="61" on="0"/>
        <pt x="303" y="106" on="0"/>
        <pt x="308" y="132" on="1"/>
      </contour>
    </TTGlyph>
    <TTGlyph name="eight.dnom" xMin="211" yMin="-198" xMax="460" yMax="134">
      <component glyphName="uni2078" x="128" y="-512" flags="0x4"/>
    </TTGlyph>
    <TTGlyph name="eight.numr" xMin="83" yMin="314" xMax="332" yMax="646">
      <component glyphName="uni2078" x="0" y="0" flags="0x0"/>
    </TTGlyph>
    <TTGlyph name="eight_fraction_nine" xMin="39" yMin="-192" xMax="467" yMax="646">
      <component glyphName="eight.numr" x="0" y="0" flags="0x0"/>
      <component glyphName="fraction.alt" x="0" y="0" flags="0x0"/>
      <component glyphName="nine.dnom" x="0" y="0" flags="0x0"/>
    </TTGlyph>
    <TTGlyph name="ellipsis" xMin="-31" yMin="-10" xMax="416" yMax="138">
      <component glyphName="period" x="-117" y="0" flags="0x0"/>
      <component glyphName="period" x="32" y="0" flags="0x0"/>
      <component glyphName="period" x="181" y="0" flags="0x0"/>
    </TTGlyph>
    <TTGlyph name="emacron" xMin="38" yMin="-13" xMax="432" yMax="640">
      <component glyphName="e" x="0" y="0" flags="0x0"/>
      <component glyphName="uni0304" x="448" y="0" flags="0x0"/>
    </TTGlyph>
    <TTGlyph name="emdash" xMin="-6" yMin="248" xMax="479" yMax="328">
      <contour>
        <pt x="479" y="328" on="1"/>
        <pt x="463" y="248" on="1"/>
        <pt x="-6" y="248" on="1"/>
        <pt x="11" y="328" on="1"/>
      </contour>
    </TTGlyph>
    <TTGlyph name="emoji.eyes" xMin="94" yMin="378" xMax="444" yMax="518">
      <contour>
        <pt x="114" y="378" on="0"/>
        <pt x="94" y="409" on="0"/>
        <pt x="94" y="433" on="1"/>
        <pt x="94" y="465" on="0"/>
        <pt x="128" y="518" on="0"/>
        <pt x="150" y="518" on="1"/>
        <pt x="167" y="518" on="0"/>
        <pt x="188" y="487" on="0"/>
        <pt x="188" y="463" on="1"/>
        <pt x="188" y="430" on="0"/>
        <pt x="153" y="378" on="0"/>
        <pt x="132" y="378" on="1"/>
      </contour>
      <contour>
        <pt x="370" y="378" on="0"/>
        <pt x="350" y="409" on="0"/>
        <pt x="350" y="433" on="1"/>
        <pt x="350" y="465" on="0"/>
        <pt x="384" y="518" on="0"/>
        <pt x="406" y="518" on="1"/>
        <pt x="423" y="518" on="0"/>
        <pt x="444" y="487" on="0"/>
        <pt x="444" y="463" on="1"/>
        <pt x="444" y="430" on="0"/>
        <pt x="409" y="378" on="0"/>
        <pt x="388" y="378" on="1"/>
      </contour>
    </TTGlyph>
    <TTGlyph name="emoji.eyes.smiling" xMin="31" yMin="384" xMax="479" yMax="512">
      <contour>
        <pt x="92" y="384" on="1"/>
        <pt x="31" y="384" on="1"/>
        <pt x="121" y="512" on="1"/>
        <pt x="185" y="512" on="1"/>
        <pt x="223" y="384" on="1"/>
        <pt x="166" y="384" on="1"/>
        <pt x="147" y="448" on="1"/>
        <pt x="137" y="448" on="1"/>
      </contour>
      <contour>
        <pt x="348" y="384" on="1"/>
        <pt x="287" y="384" on="1"/>
        <pt x="377" y="512" on="1"/>
        <pt x="441" y="512" on="1"/>
        <pt x="479" y="384" on="1"/>
        <pt x="422" y="384" on="1"/>
        <pt x="403" y="448" on="1"/>
        <pt x="393" y="448" on="1"/>
      </contour>
    </TTGlyph>
    <TTGlyph name="emoji.mouth" xMin="3" yMin="130" xMax="454" yMax="256">
      <contour>
        <pt x="100" y="130" on="1"/>
        <pt x="54" y="130" on="0"/>
        <pt x="3" y="179" on="0"/>
        <pt x="3" y="220" on="1"/>
        <pt x="3" y="236" on="0"/>
        <pt x="6" y="252" on="1"/>
        <pt x="6" y="256" on="1"/>
        <pt x="70" y="256" on="1"/>
        <pt x="69" y="248" on="1"/>
        <pt x="66" y="235" on="0"/>
        <pt x="66" y="224" on="1"/>
        <pt x="66" y="207" on="0"/>
        <pt x="85" y="190" on="0"/>
        <pt x="107" y="190" on="1"/>
        <pt x="323" y="190" on="1"/>
        <pt x="377" y="190" on="0"/>
        <pt x="390" y="254" on="1"/>
        <pt x="390" y="256" on="1"/>
        <pt x="454" y="256" on="1"/>
        <pt x="452" y="246" on="1"/>
        <pt x="441" y="191" on="0"/>
        <pt x="371" y="130" on="0"/>
        <pt x="316" y="130" on="1"/>
      </contour>
    </TTGlyph>
    <TTGlyph name="emoji.mouth.grinning" xMin="-10" yMin="66" xMax="454" yMax="254">
      <contour>
        <pt x="6" y="254" on="1"/>
        <pt x="454" y="254" on="1"/>
        <pt x="440" y="182" on="1"/>
        <pt x="429" y="127" on="0"/>
        <pt x="358" y="66" on="0"/>
        <pt x="303" y="66" on="1"/>
        <pt x="87" y="66" on="1"/>
        <pt x="41" y="66" on="0"/>
        <pt x="-10" y="115" on="0"/>
        <pt x="-10" y="156" on="1"/>
        <pt x="-10" y="172" on="0"/>
        <pt x="-7" y="188" on="1"/>
      </contour>
      <contour>
        <pt x="56" y="184" on="1"/>
        <pt x="53" y="171" on="0"/>
        <pt x="53" y="160" on="1"/>
        <pt x="53" y="143" on="0"/>
        <pt x="72" y="126" on="0"/>
        <pt x="94" y="126" on="1"/>
        <pt x="108" y="126" on="1"/>
        <pt x="122" y="194" on="1"/>
        <pt x="58" y="194" on="1"/>
      </contour>
      <contour>
        <pt x="236" y="126" on="1"/>
        <pt x="250" y="194" on="1"/>
        <pt x="186" y="194" on="1"/>
        <pt x="172" y="126" on="1"/>
      </contour>
      <contour>
        <pt x="378" y="194" on="1"/>
        <pt x="314" y="194" on="1"/>
        <pt x="300" y="126" on="1"/>
        <pt x="310" y="126" on="1"/>
        <pt x="364" y="126" on="0"/>
        <pt x="377" y="190" on="1"/>
      </contour>
    </TTGlyph>
    <TTGlyph name="endash" xMin="79" yMin="248" xMax="395" yMax="328">
      <component glyphName="hyphen" x="0" y="0" flags="0x0"/>
    </TTGlyph>
    <TTGlyph name="eng" xMin="10" yMin="-198" xMax="413" yMax="452">
      <contour>
        <pt x="413" y="452" on="0"/>
        <pt x="413" y="349" on="1"/>
        <pt x="413" y="326" on="0"/>
        <pt x="407" y="294" on="1"/>
        <pt x="347" y="-9" on="1"/>
        <pt x="332" y="-84" on="0"/>
        <pt x="260" y="-171" on="0"/>
        <pt x="187" y="-198" on="1"/>
        <pt x="162" y="-125" on="1"/>
        <pt x="204" y="-108" on="0"/>
        <pt x="244" y="-58" on="0"/>
        <pt x="254" y="-10" on="1"/>
        <pt x="315" y="293" on="1"/>
        <pt x="321" y="322" on="0"/>
        <pt x="321" y="339" on="1"/>
        <pt x="321" y="360" on="0"/>
        <pt x="301" y="380" on="0"/>
        <pt x="278" y="380" on="1"/>
        <pt x="229" y="380" on="0"/>
        <pt x="168" y="332" on="1"/>
        <pt x="102" y="0" on="1"/>
        <pt x="10" y="0" on="1"/>
        <pt x="87" y="383" on="1"/>
        <pt x="98" y="448" on="1"/>
        <pt x="179" y="448" on="1"/>
        <pt x="178" y="412" on="1"/>
        <pt x="240" y="452" on="0"/>
        <pt x="306" y="452" on="1"/>
      </contour>
    </TTGlyph>
    <TTGlyph name="eogonek" xMin="38" yMin="-197" xMax="412" yMax="461">
      <contour>
        <pt x="136" y="194" on="1"/>
        <pt x="130" y="161" on="0"/>
        <pt x="130" y="137" on="1"/>
        <pt x="130" y="95" on="0"/>
        <pt x="169" y="59" on="0"/>
        <pt x="213" y="59" on="1"/>
        <pt x="258" y="59" on="0"/>
        <pt x="335" y="84" on="1"/>
        <pt x="343" y="17" on="1"/>
        <pt x="310" y="4" on="0"/>
        <pt x="283" y="-3" on="1"/>
        <pt x="245" y="-37" on="0"/>
        <pt x="202" y="-91" on="0"/>
        <pt x="197" y="-116" on="1"/>
        <pt x="196" y="-120" on="0"/>
        <pt x="196" y="-125" on="1"/>
        <pt x="196" y="-132" on="0"/>
        <pt x="205" y="-136" on="0"/>
        <pt x="214" y="-136" on="1"/>
        <pt x="233" y="-136" on="0"/>
        <pt x="253" y="-127" on="1"/>
        <pt x="264" y="-183" on="1"/>
        <pt x="237" y="-197" on="0"/>
        <pt x="201" y="-197" on="1"/>
        <pt x="164" y="-197" on="0"/>
        <pt x="126" y="-164" on="0"/>
        <pt x="126" y="-133" on="1"/>
        <pt x="126" y="-74" on="0"/>
        <pt x="196" y="-13" on="1"/>
        <pt x="38" y="-10" on="0"/>
        <pt x="38" y="147" on="1"/>
        <pt x="38" y="187" on="0"/>
        <pt x="47" y="232" on="1"/>
        <pt x="67" y="336" on="0"/>
        <pt x="174" y="461" on="0"/>
        <pt x="266" y="461" on="1"/>
        <pt x="338" y="461" on="0"/>
        <pt x="412" y="378" on="0"/>
        <pt x="412" y="306" on="1"/>
        <pt x="412" y="252" on="0"/>
        <pt x="393" y="191" on="1"/>
      </contour>
      <contour>
        <pt x="223" y="389" on="0"/>
        <pt x="169" y="331" on="0"/>
        <pt x="151" y="265" on="1"/>
        <pt x="314" y="265" on="1"/>
        <pt x="320" y="297" on="0"/>
        <pt x="320" y="319" on="1"/>
        <pt x="320" y="389" on="0"/>
        <pt x="263" y="389" on="1"/>
      </contour>
    </TTGlyph>
    <TTGlyph name="epsilon" xMin="32" yMin="0" xMax="429" yMax="448">
      <contour>
        <pt x="429" y="448" on="1"/>
        <pt x="416" y="384" on="1"/>
        <pt x="160" y="384" on="1"/>
        <pt x="173" y="448" on="1"/>
      </contour>
      <contour>
        <pt x="70" y="256" on="1"/>
        <pt x="96" y="384" on="1"/>
        <pt x="160" y="384" on="1"/>
        <pt x="134" y="256" on="1"/>
      </contour>
      <contour>
        <pt x="122" y="192" on="1"/>
        <pt x="134" y="256" on="1"/>
        <pt x="326" y="256" on="1"/>
        <pt x="314" y="192" on="1"/>
      </contour>
      <contour>
        <pt x="32" y="64" on="1"/>
        <pt x="58" y="192" on="1"/>
        <pt x="122" y="192" on="1"/>
        <pt x="96" y="64" on="1"/>
      </contour>
      <contour>
        <pt x="83" y="0" on="1"/>
        <pt x="96" y="64" on="1"/>
        <pt x="352" y="64" on="1"/>
        <pt x="339" y="0" on="1"/>
      </contour>
    </TTGlyph>
    <TTGlyph name="epsilontonos" xMin="32" yMin="0" xMax="429" yMax="704">
      <component glyphName="epsilon" x="0" y="0" flags="0x0"/>
      <component glyphName="tonos" x="0" y="0" flags="0x0"/>
    </TTGlyph>
    <TTGlyph name="equal" xMin="20" yMin="164" xMax="454" yMax="412">
      <contour>
        <pt x="454" y="412" on="1"/>
        <pt x="438" y="332" on="1"/>
        <pt x="54" y="332" on="1"/>
        <pt x="70" y="412" on="1"/>
      </contour>
      <contour>
        <pt x="420" y="244" on="1"/>
        <pt x="404" y="164" on="1"/>
        <pt x="20" y="164" on="1"/>
        <pt x="36" y="244" on="1"/>
      </contour>
    </TTGlyph>
    <TTGlyph name="equivalence" xMin="5" yMin="128" xMax="469" yMax="448">
      <contour>
        <pt x="469" y="448" on="1"/>
        <pt x="456" y="384" on="1"/>
        <pt x="56" y="384" on="1"/>
        <pt x="69" y="448" on="1"/>
      </contour>
      <contour>
        <pt x="443" y="320" on="1"/>
        <pt x="430" y="256" on="1"/>
        <pt x="30" y="256" on="1"/>
        <pt x="43" y="320" on="1"/>
      </contour>
      <contour>
        <pt x="418" y="192" on="1"/>
        <pt x="405" y="128" on="1"/>
        <pt x="5" y="128" on="1"/>
        <pt x="18" y="192" on="1"/>
      </contour>
    </TTGlyph>
    <TTGlyph name="estimated" xMin="43" yMin="-13" xMax="407" yMax="461">
      <contour>
        <pt x="341" y="461" on="0"/>
        <pt x="407" y="380" on="0"/>
        <pt x="407" y="309" on="1"/>
        <pt x="407" y="273" on="0"/>
        <pt x="397" y="221" on="1"/>
        <pt x="392" y="191" on="1"/>
        <pt x="390" y="192" on="1"/>
        <pt x="390" y="191" on="1"/>
        <pt x="158" y="191" on="1"/>
        <pt x="148" y="134" on="0"/>
        <pt x="148" y="108" on="1"/>
        <pt x="148" y="73" on="0"/>
        <pt x="176" y="41" on="0"/>
        <pt x="207" y="41" on="1"/>
        <pt x="255" y="41" on="0"/>
        <pt x="312" y="58" on="1"/>
        <pt x="322" y="7" on="1"/>
        <pt x="255" y="-13" on="0"/>
        <pt x="197" y="-13" on="1"/>
        <pt x="117" y="-13" on="0"/>
        <pt x="43" y="78" on="0"/>
        <pt x="43" y="152" on="1"/>
        <pt x="43" y="192" on="0"/>
        <pt x="52" y="232" on="1"/>
        <pt x="72" y="331" on="0"/>
        <pt x="183" y="461" on="0"/>
        <pt x="271" y="461" on="1"/>
      </contour>
      <contour>
        <pt x="233" y="407" on="0"/>
        <pt x="188" y="333" on="0"/>
        <pt x="169" y="247" on="1"/>
        <pt x="289" y="247" on="1"/>
        <pt x="303" y="320" on="0"/>
        <pt x="303" y="355" on="1"/>
        <pt x="303" y="382" on="0"/>
        <pt x="286" y="407" on="0"/>
        <pt x="268" y="407" on="1"/>
      </contour>
    </TTGlyph>
    <TTGlyph name="eta" xMin="15" yMin="-192" xMax="408" yMax="452">
      <contour>
        <pt x="349" y="452" on="0"/>
        <pt x="408" y="403" on="0"/>
        <pt x="408" y="346" on="1"/>
        <pt x="408" y="324" on="0"/>
        <pt x="402" y="294" on="1"/>
        <pt x="305" y="-192" on="1"/>
        <pt x="233" y="-192" on="1"/>
        <pt x="330" y="293" on="1"/>
        <pt x="336" y="322" on="0"/>
        <pt x="336" y="342" on="1"/>
        <pt x="336" y="367" on="0"/>
        <pt x="313" y="388" on="0"/>
        <pt x="286" y="388" on="1"/>
        <pt x="254" y="388" on="0"/>
        <pt x="185" y="354" on="0"/>
        <pt x="152" y="326" on="1"/>
        <pt x="87" y="0" on="1"/>
        <pt x="15" y="0" on="1"/>
        <pt x="92" y="383" on="1"/>
        <pt x="103" y="448" on="1"/>
        <pt x="168" y="448" on="1"/>
        <pt x="165" y="403" on="1"/>
        <pt x="197" y="426" on="0"/>
        <pt x="268" y="452" on="0"/>
        <pt x="301" y="452" on="1"/>
      </contour>
    </TTGlyph>
    <TTGlyph name="etatonos" xMin="15" yMin="-192" xMax="408" yMax="704">
      <component glyphName="eta" x="0" y="0" flags="0x0"/>
      <component glyphName="tonos" x="0" y="0" flags="0x0"/>
    </TTGlyph>
    <TTGlyph name="eth" xMin="33" yMin="-8" xMax="421" yMax="646">
      <contour>
        <pt x="421" y="590" on="1"/>
        <pt x="352" y="548" on="1"/>
        <pt x="419" y="456" on="0"/>
        <pt x="419" y="340" on="1"/>
        <pt x="419" y="300" on="0"/>
        <pt x="409" y="245" on="1"/>
        <pt x="384" y="120" on="0"/>
        <pt x="268" y="-8" on="0"/>
        <pt x="181" y="-8" on="1"/>
        <pt x="112" y="-8" on="0"/>
        <pt x="33" y="76" on="0"/>
        <pt x="33" y="148" on="1"/>
        <pt x="33" y="180" on="0"/>
        <pt x="40" y="211" on="1"/>
        <pt x="59" y="306" on="0"/>
        <pt x="175" y="414" on="0"/>
        <pt x="248" y="414" on="1"/>
        <pt x="291" y="414" on="0"/>
        <pt x="325" y="396" on="1"/>
        <pt x="316" y="453" on="0"/>
        <pt x="280" y="503" on="1"/>
        <pt x="191" y="448" on="1"/>
        <pt x="160" y="497" on="1"/>
        <pt x="241" y="547" on="1"/>
        <pt x="229" y="559" on="0"/>
        <pt x="197" y="585" on="1"/>
        <pt x="252" y="646" on="1"/>
        <pt x="287" y="621" on="0"/>
        <pt x="315" y="592" on="1"/>
        <pt x="391" y="639" on="1"/>
      </contour>
      <contour>
        <pt x="238" y="64" on="0"/>
        <pt x="300" y="164" on="0"/>
        <pt x="319" y="257" on="1"/>
        <pt x="327" y="293" on="0"/>
        <pt x="328" y="325" on="1"/>
        <pt x="296" y="342" on="0"/>
        <pt x="258" y="342" on="1"/>
        <pt x="159" y="342" on="0"/>
        <pt x="131" y="196" on="1"/>
        <pt x="124" y="159" on="0"/>
        <pt x="124" y="138" on="1"/>
        <pt x="124" y="64" on="0"/>
        <pt x="186" y="64" on="1"/>
      </contour>
    </TTGlyph>
    <TTGlyph name="exclam" xMin="117" yMin="-10" xMax="363" yMax="640">
      <contour>
        <pt x="261" y="202" on="1"/>
        <pt x="179" y="202" on="1"/>
        <pt x="251" y="640" on="1"/>
        <pt x="363" y="640" on="1"/>
      </contour>
      <contour>
        <pt x="154" y="-10" on="0"/>
        <pt x="117" y="21" on="0"/>
        <pt x="117" y="49" on="1"/>
        <pt x="117" y="86" on="0"/>
        <pt x="165" y="128" on="0"/>
        <pt x="199" y="128" on="1"/>
        <pt x="228" y="128" on="0"/>
        <pt x="266" y="97" on="0"/>
        <pt x="266" y="69" on="1"/>
        <pt x="266" y="64" on="0"/>
        <pt x="264" y="52" on="1"/>
        <pt x="258" y="22" on="0"/>
        <pt x="213" y="-10" on="0"/>
        <pt x="183" y="-10" on="1"/>
      </contour>
    </TTGlyph>
    <TTGlyph name="exclamdbl" xMin="16" yMin="-10" xMax="464" yMax="640">
      <component glyphName="exclam" x="-101" y="0" flags="0x0"/>
      <component glyphName="exclam" x="101" y="0" flags="0x0"/>
    </TTGlyph>
    <TTGlyph name="exclamdown" xMin="85" yMin="-192" xMax="332" yMax="458">
      <contour>
        <pt x="294" y="458" on="0"/>
        <pt x="332" y="427" on="0"/>
        <pt x="332" y="400" on="1"/>
        <pt x="332" y="363" on="0"/>
        <pt x="283" y="320" on="0"/>
        <pt x="249" y="320" on="1"/>
        <pt x="220" y="320" on="0"/>
        <pt x="183" y="352" on="0"/>
        <pt x="183" y="380" on="1"/>
        <pt x="183" y="417" on="0"/>
        <pt x="231" y="458" on="0"/>
        <pt x="265" y="458" on="1"/>
      </contour>
      <contour>
        <pt x="187" y="246" on="1"/>
        <pt x="269" y="246" on="1"/>
        <pt x="197" y="-192" on="1"/>
        <pt x="85" y="-192" on="1"/>
      </contour>
    </TTGlyph>
    <TTGlyph name="f" xMin="24" yMin="-205" xMax="473" yMax="648">
      <contour>
        <pt x="167" y="373" on="1"/>
        <pt x="89" y="376" on="1"/>
        <pt x="104" y="448" on="1"/>
        <pt x="180" y="448" on="1"/>
        <pt x="190" y="502" on="1"/>
        <pt x="204" y="578" on="0"/>
        <pt x="291" y="648" on="0"/>
        <pt x="358" y="648" on="1"/>
        <pt x="410" y="648" on="0"/>
        <pt x="473" y="635" on="1"/>
        <pt x="453" y="569" on="1"/>
        <pt x="404" y="576" on="0"/>
        <pt x="372" y="576" on="1"/>
        <pt x="332" y="576" on="0"/>
        <pt x="287" y="533" on="0"/>
        <pt x="281" y="498" on="1"/>
        <pt x="272" y="448" on="1"/>
        <pt x="405" y="448" on="1"/>
        <pt x="390" y="374" on="1"/>
        <pt x="259" y="374" on="1"/>
        <pt x="191" y="-11" on="1"/>
        <pt x="180" y="-79" on="0"/>
        <pt x="133" y="-165" on="0"/>
        <pt x="93" y="-205" on="1"/>
        <pt x="24" y="-169" on="1"/>
        <pt x="55" y="-131" on="0"/>
        <pt x="91" y="-62" on="0"/>
        <pt x="101" y="-5" on="1"/>
      </contour>
    </TTGlyph>
    <TTGlyph name="female" xMin="64" yMin="-114" xMax="409" yMax="456">
      <contour>
        <pt x="394" y="225" on="0"/>
        <pt x="313" y="141" on="0"/>
        <pt x="258" y="127" on="1"/>
        <pt x="258" y="48" on="1"/>
        <pt x="354" y="48" on="1"/>
        <pt x="354" y="-16" on="1"/>
        <pt x="258" y="-16" on="1"/>
        <pt x="258" y="-114" on="1"/>
        <pt x="190" y="-114" on="1"/>
        <pt x="190" y="-16" on="1"/>
        <pt x="94" y="-16" on="1"/>
        <pt x="94" y="48" on="1"/>
        <pt x="190" y="48" on="1"/>
        <pt x="190" y="121" on="1"/>
        <pt x="133" y="127" on="0"/>
        <pt x="64" y="202" on="0"/>
        <pt x="64" y="258" on="1"/>
        <pt x="64" y="277" on="0"/>
        <pt x="68" y="294" on="1"/>
        <pt x="77" y="340" on="0"/>
        <pt x="136" y="414" on="0"/>
        <pt x="219" y="456" on="0"/>
        <pt x="265" y="456" on="1"/>
        <pt x="330" y="456" on="0"/>
        <pt x="409" y="378" on="0"/>
        <pt x="409" y="317" on="1"/>
        <pt x="409" y="300" on="0"/>
        <pt x="406" y="282" on="1"/>
      </contour>
      <contour>
        <pt x="133" y="226" on="0"/>
        <pt x="176" y="184" on="0"/>
        <pt x="211" y="184" on="1"/>
        <pt x="244" y="184" on="0"/>
        <pt x="303" y="220" on="0"/>
        <pt x="340" y="280" on="0"/>
        <pt x="340" y="315" on="1"/>
        <pt x="340" y="349" on="0"/>
        <pt x="298" y="392" on="0"/>
        <pt x="263" y="392" on="1"/>
        <pt x="230" y="392" on="0"/>
        <pt x="170" y="356" on="0"/>
        <pt x="133" y="295" on="0"/>
        <pt x="133" y="259" on="1"/>
      </contour>
    </TTGlyph>
    <TTGlyph name="filledbox" xMin="30" yMin="64" xMax="418" yMax="384">
      <contour>
        <pt x="94" y="384" on="1"/>
        <pt x="418" y="384" on="1"/>
        <pt x="354" y="64" on="1"/>
        <pt x="30" y="64" on="1"/>
      </contour>
    </TTGlyph>
    <TTGlyph name="filledrect" xMin="-3" yMin="128" xMax="451" yMax="320">
      <contour>
        <pt x="35" y="320" on="1"/>
        <pt x="451" y="320" on="1"/>
        <pt x="413" y="128" on="1"/>
        <pt x="-3" y="128" on="1"/>
      </contour>
    </TTGlyph>
    <TTGlyph name="five" xMin="11" yMin="0" xMax="449" yMax="576">
      <contour>
        <pt x="435" y="504" on="1"/>
        <pt x="221" y="504" on="1"/>
        <pt x="179" y="325" on="1"/>
        <pt x="206" y="329" on="0"/>
        <pt x="251" y="329" on="1"/>
        <pt x="315" y="329" on="0"/>
        <pt x="394" y="271" on="0"/>
        <pt x="394" y="209" on="1"/>
        <pt x="394" y="191" on="0"/>
        <pt x="389" y="164" on="1"/>
        <pt x="371" y="76" on="0"/>
        <pt x="260" y="0" on="0"/>
        <pt x="174" y="0" on="1"/>
        <pt x="129" y="0" on="0"/>
        <pt x="53" y="13" on="0"/>
        <pt x="11" y="26" on="1"/>
        <pt x="35" y="91" on="1"/>
        <pt x="108" y="72" on="0"/>
        <pt x="162" y="72" on="1"/>
        <pt x="221" y="72" on="0"/>
        <pt x="284" y="122" on="0"/>
        <pt x="295" y="176" on="1"/>
        <pt x="299" y="193" on="0"/>
        <pt x="299" y="210" on="1"/>
        <pt x="299" y="236" on="0"/>
        <pt x="265" y="257" on="0"/>
        <pt x="223" y="257" on="1"/>
        <pt x="179" y="257" on="0"/>
        <pt x="107" y="244" on="1"/>
        <pt x="73" y="271" on="1"/>
        <pt x="146" y="576" on="1"/>
        <pt x="449" y="576" on="1"/>
      </contour>
    </TTGlyph>
    <TTGlyph name="five.dnom" xMin="211" yMin="-192" xMax="467" yMax="128">
      <component glyphName="uni2075" x="128" y="-512" flags="0x4"/>
    </TTGlyph>
    <TTGlyph name="five.numr" xMin="83" yMin="320" xMax="339" yMax="640">
      <component glyphName="uni2075" x="0" y="0" flags="0x0"/>
    </TTGlyph>
    <TTGlyph name="five_fraction_nine" xMin="39" yMin="-192" xMax="467" yMax="640">
      <component glyphName="five.numr" x="0" y="0" flags="0x0"/>
      <component glyphName="fraction.alt" x="0" y="0" flags="0x0"/>
      <component glyphName="nine.dnom" x="0" y="0" flags="0x0"/>
    </TTGlyph>
    <TTGlyph name="five_fraction_seven" xMin="39" yMin="-200" xMax="467" yMax="640">
      <component glyphName="five.numr" x="0" y="0" flags="0x0"/>
      <component glyphName="fraction.alt" x="0" y="0" flags="0x0"/>
      <component glyphName="seven.dnom" x="0" y="0" flags="0x0"/>
    </TTGlyph>
    <TTGlyph name="fiveeighths" xMin="39" yMin="-198" xMax="460" yMax="640">
      <component glyphName="five.numr" x="0" y="0" flags="0x0"/>
      <component glyphName="fraction.alt" x="0" y="0" flags="0x0"/>
      <component glyphName="eight.dnom" x="0" y="0" flags="0x0"/>
    </TTGlyph>
    <TTGlyph name="florin" xMin="5" yMin="-198" xMax="483" yMax="648">
      <contour>
        <pt x="5" y="-125" on="1"/>
        <pt x="47" y="-106" on="0"/>
        <pt x="88" y="-56" on="0"/>
        <pt x="97" y="-10" on="1"/>
        <pt x="174" y="373" on="1"/>
        <pt x="99" y="376" on="1"/>
        <pt x="114" y="448" on="1"/>
        <pt x="189" y="448" on="1"/>
        <pt x="201" y="508" on="1"/>
        <pt x="216" y="580" on="0"/>
        <pt x="304" y="648" on="0"/>
        <pt x="368" y="648" on="1"/>
        <pt x="420" y="648" on="0"/>
        <pt x="483" y="635" on="1"/>
        <pt x="463" y="569" on="1"/>
        <pt x="414" y="576" on="0"/>
        <pt x="381" y="576" on="1"/>
        <pt x="342" y="576" on="0"/>
        <pt x="299" y="535" on="0"/>
        <pt x="292" y="504" on="1"/>
        <pt x="281" y="448" on="1"/>
        <pt x="415" y="448" on="1"/>
        <pt x="400" y="374" on="1"/>
        <pt x="266" y="374" on="1"/>
        <pt x="190" y="-9" on="1"/>
        <pt x="175" y="-85" on="0"/>
        <pt x="104" y="-170" on="0"/>
        <pt x="30" y="-198" on="1"/>
      </contour>
    </TTGlyph>
    <TTGlyph name="four" xMin="17" yMin="0" xMax="423" yMax="593">
      <contour>
        <pt x="344" y="196" on="1"/>
        <pt x="423" y="196" on="1"/>
        <pt x="408" y="124" on="1"/>
        <pt x="329" y="124" on="1"/>
        <pt x="304" y="0" on="1"/>
        <pt x="212" y="0" on="1"/>
        <pt x="237" y="124" on="1"/>
        <pt x="17" y="128" on="1"/>
        <pt x="67" y="337" on="0"/>
        <pt x="262" y="565" on="0"/>
        <pt x="421" y="593" on="1"/>
        <pt x="420" y="591" on="1"/>
        <pt x="422" y="592" on="1"/>
      </contour>
      <contour>
        <pt x="291" y="392" on="1"/>
        <pt x="310" y="476" on="1"/>
        <pt x="189" y="400" on="0"/>
        <pt x="127" y="193" on="1"/>
        <pt x="252" y="196" on="1"/>
      </contour>
    </TTGlyph>
    <TTGlyph name="four.dnom" xMin="222" yMin="-192" xMax="463" yMax="142">
      <component glyphName="uni2074" x="128" y="-512" flags="0x4"/>
    </TTGlyph>
    <TTGlyph name="four.numr" xMin="94" yMin="320" xMax="335" yMax="654">
      <component glyphName="uni2074" x="0" y="0" flags="0x0"/>
    </TTGlyph>
    <TTGlyph name="four_fraction_nine" xMin="39" yMin="-192" xMax="467" yMax="654">
      <component glyphName="four.numr" x="0" y="0" flags="0x0"/>
      <component glyphName="fraction.alt" x="0" y="0" flags="0x0"/>
      <component glyphName="nine.dnom" x="0" y="0" flags="0x0"/>
    </TTGlyph>
    <TTGlyph name="four_fraction_seven" xMin="39" yMin="-200" xMax="467" yMax="654">
      <component glyphName="four.numr" x="0" y="0" flags="0x0"/>
      <component glyphName="fraction.alt" x="0" y="0" flags="0x0"/>
      <component glyphName="seven.dnom" x="0" y="0" flags="0x0"/>
    </TTGlyph>
    <TTGlyph name="fraction" xMin="52" yMin="-69" xMax="434" yMax="710">
      <component glyphName="slash" x="0" y="0" flags="0x0"/>
    </TTGlyph>
    <TTGlyph name="fraction.alt" xMin="39" yMin="171" xMax="408" yMax="277">
      <contour>
        <pt x="39" y="171" on="1"/>
        <pt x="42" y="226" on="1"/>
        <pt x="408" y="277" on="1"/>
        <pt x="405" y="222" on="1"/>
      </contour>
    </TTGlyph>
    <TTGlyph name="franc" xMin="-12" yMin="0" xMax="454" yMax="576">
      <contour>
        <pt x="-12" y="114" on="1"/>
        <pt x="0" y="174" on="1"/>
        <pt x="50" y="174" on="1"/>
        <pt x="130" y="576" on="1"/>
        <pt x="454" y="576" on="1"/>
        <pt x="442" y="512" on="1"/>
        <pt x="190" y="512" on="1"/>
        <pt x="151" y="320" on="1"/>
        <pt x="339" y="320" on="1"/>
        <pt x="326" y="256" on="1"/>
        <pt x="138" y="256" on="1"/>
        <pt x="122" y="174" on="1"/>
        <pt x="256" y="174" on="1"/>
        <pt x="244" y="114" on="1"/>
        <pt x="110" y="114" on="1"/>
        <pt x="87" y="0" on="1"/>
        <pt x="15" y="0" on="1"/>
        <pt x="38" y="114" on="1"/>
      </contour>
    </TTGlyph>
    <TTGlyph name="g" xMin="12" yMin="-196" xMax="440" yMax="456">
      <contour>
        <pt x="364" y="448" on="1"/>
        <pt x="440" y="448" on="1"/>
        <pt x="425" y="384" on="1"/>
        <pt x="340" y="-40" on="1"/>
        <pt x="324" y="-124" on="0"/>
        <pt x="222" y="-196" on="0"/>
        <pt x="143" y="-196" on="1"/>
        <pt x="82" y="-196" on="0"/>
        <pt x="12" y="-179" on="1"/>
        <pt x="30" y="-115" on="1"/>
        <pt x="79" y="-124" on="0"/>
        <pt x="136" y="-124" on="1"/>
        <pt x="190" y="-124" on="0"/>
        <pt x="239" y="-86" on="0"/>
        <pt x="247" y="-46" on="1"/>
        <pt x="261" y="23" on="1"/>
        <pt x="220" y="-8" on="0"/>
        <pt x="165" y="-8" on="1"/>
        <pt x="104" y="-8" on="0"/>
        <pt x="37" y="71" on="0"/>
        <pt x="37" y="145" on="1"/>
        <pt x="37" y="186" on="0"/>
        <pt x="47" y="232" on="1"/>
        <pt x="69" y="342" on="0"/>
        <pt x="173" y="456" on="0"/>
        <pt x="250" y="456" on="1"/>
        <pt x="318" y="456" on="0"/>
        <pt x="351" y="412" on="1"/>
      </contour>
      <contour>
        <pt x="237" y="64" on="0"/>
        <pt x="278" y="110" on="1"/>
        <pt x="325" y="349" on="1"/>
        <pt x="307" y="384" on="0"/>
        <pt x="260" y="384" on="1"/>
        <pt x="215" y="384" on="0"/>
        <pt x="160" y="310" on="0"/>
        <pt x="142" y="217" on="1"/>
        <pt x="131" y="166" on="0"/>
        <pt x="131" y="129" on="1"/>
        <pt x="131" y="93" on="0"/>
        <pt x="156" y="64" on="0"/>
        <pt x="184" y="64" on="1"/>
      </contour>
    </TTGlyph>
</ttFont>
